<svg width="391" height="77" viewBox="0 0 391 77" fill="none" xmlns="http://www.w3.org/2000/svg">
<g filter="url(#filter0_d_54938_29280)">
<path d="M19.7178 21.6136C19.7178 13.3294 26.4335 6.61365 34.7178 6.61365H356.513C364.797 6.61365 371.513 13.3294 371.513 21.6136V47.4015C371.513 55.6858 364.797 62.4015 356.513 62.4015H34.7178C26.4335 62.4015 19.7178 55.6858 19.7178 47.4015V21.6136Z" fill="#F2F2F2"/>
<path d="M214.416 44.2922H215.329L217.658 50.0881L219.982 44.2922H220.9L218.009 51.4016H217.296L214.416 44.2922ZM214.118 44.2922H214.923L215.055 48.6281V51.4016H214.118V44.2922ZM220.387 44.2922H221.193V51.4016H220.255V48.6281L220.387 44.2922ZM224.904 51.4992C224.536 51.4992 224.202 51.4374 223.903 51.3137C223.607 51.1867 223.351 51.0093 223.136 50.7814C222.925 50.5536 222.762 50.2834 222.648 49.9709C222.534 49.6584 222.477 49.3166 222.477 48.9455V48.7404C222.477 48.3107 222.541 47.9282 222.667 47.593C222.794 47.2544 222.967 46.968 223.185 46.7336C223.403 46.4992 223.651 46.3218 223.927 46.2014C224.204 46.0809 224.49 46.0207 224.787 46.0207C225.164 46.0207 225.49 46.0858 225.763 46.216C226.04 46.3462 226.266 46.5285 226.442 46.7629C226.618 46.994 226.748 47.2674 226.833 47.5832C226.917 47.8957 226.959 48.2375 226.959 48.6086V49.0139H223.014V48.2766H226.056V48.2082C226.043 47.9738 225.994 47.746 225.91 47.5246C225.828 47.3032 225.698 47.121 225.519 46.9777C225.34 46.8345 225.096 46.7629 224.787 46.7629C224.582 46.7629 224.393 46.8068 224.22 46.8947C224.048 46.9793 223.9 47.1063 223.776 47.2756C223.652 47.4448 223.556 47.6516 223.488 47.8957C223.419 48.1398 223.385 48.4214 223.385 48.7404V48.9455C223.385 49.1961 223.419 49.4321 223.488 49.6535C223.559 49.8716 223.662 50.0637 223.795 50.2297C223.932 50.3957 224.097 50.5259 224.289 50.6203C224.484 50.7147 224.705 50.7619 224.953 50.7619C225.272 50.7619 225.542 50.6968 225.763 50.5666C225.985 50.4364 226.178 50.2622 226.344 50.0441L226.891 50.4787C226.777 50.6512 226.632 50.8156 226.457 50.9719C226.281 51.1281 226.064 51.2551 225.807 51.3527C225.553 51.4504 225.252 51.4992 224.904 51.4992ZM231.344 50.3762V43.9016H232.252V51.4016H231.422L231.344 50.3762ZM227.79 48.8185V48.716C227.79 48.3124 227.838 47.9461 227.936 47.6174C228.037 47.2853 228.179 47.0005 228.361 46.7629C228.546 46.5252 228.766 46.343 229.02 46.216C229.277 46.0858 229.564 46.0207 229.879 46.0207C230.211 46.0207 230.501 46.0793 230.749 46.1965C230.999 46.3104 231.211 46.478 231.383 46.6994C231.559 46.9175 231.697 47.1812 231.798 47.4904C231.899 47.7997 231.969 48.1496 232.008 48.5402V48.9894C231.972 49.3768 231.903 49.7251 231.798 50.0344C231.697 50.3436 231.559 50.6073 231.383 50.8254C231.211 51.0435 230.999 51.2111 230.749 51.3283C230.498 51.4422 230.205 51.4992 229.87 51.4992C229.56 51.4992 229.277 51.4325 229.02 51.299C228.766 51.1655 228.546 50.9784 228.361 50.7375C228.179 50.4966 228.037 50.2134 227.936 49.8879C227.838 49.5591 227.79 49.2027 227.79 48.8185ZM228.698 48.716V48.8185C228.698 49.0822 228.724 49.3296 228.776 49.5607C228.831 49.7918 228.916 49.9953 229.03 50.1711C229.144 50.3469 229.289 50.4852 229.464 50.5861C229.64 50.6838 229.85 50.7326 230.094 50.7326C230.394 50.7326 230.639 50.6691 230.832 50.5422C231.027 50.4152 231.183 50.2476 231.3 50.0392C231.417 49.8309 231.509 49.6047 231.574 49.3605V48.1838C231.535 48.0047 231.478 47.8322 231.403 47.6662C231.331 47.4969 231.237 47.3472 231.12 47.217C231.006 47.0835 230.864 46.9777 230.695 46.8996C230.529 46.8215 230.332 46.7824 230.104 46.7824C229.857 46.7824 229.643 46.8345 229.464 46.9387C229.289 47.0396 229.144 47.1795 229.03 47.3586C228.916 47.5344 228.831 47.7394 228.776 47.9738C228.724 48.2049 228.698 48.4523 228.698 48.716ZM234.64 46.1183V51.4016H233.732V46.1183H234.64ZM233.664 44.717C233.664 44.5705 233.708 44.4468 233.795 44.3459C233.887 44.245 234.02 44.1945 234.196 44.1945C234.368 44.1945 234.5 44.245 234.591 44.3459C234.686 44.4468 234.733 44.5705 234.733 44.717C234.733 44.857 234.686 44.9774 234.591 45.0783C234.5 45.176 234.368 45.2248 234.196 45.2248C234.02 45.2248 233.887 45.176 233.795 45.0783C233.708 44.9774 233.664 44.857 233.664 44.717ZM238.205 50.757C238.419 50.757 238.618 50.7131 238.8 50.6252C238.983 50.5373 239.132 50.4168 239.25 50.2639C239.367 50.1076 239.433 49.9302 239.45 49.7316H240.309C240.293 50.0441 240.187 50.3355 239.992 50.6057C239.8 50.8726 239.547 51.0891 239.235 51.2551C238.922 51.4178 238.579 51.4992 238.205 51.4992C237.807 51.4992 237.461 51.4292 237.165 51.2892C236.872 51.1493 236.627 50.9572 236.432 50.7131C236.24 50.4689 236.095 50.189 235.998 49.8732C235.903 49.5542 235.856 49.2173 235.856 48.8625V48.6574C235.856 48.3026 235.903 47.9673 235.998 47.6516C236.095 47.3325 236.24 47.051 236.432 46.8068C236.627 46.5627 236.872 46.3706 237.165 46.2307C237.461 46.0907 237.807 46.0207 238.205 46.0207C238.618 46.0207 238.979 46.1053 239.289 46.2746C239.598 46.4406 239.84 46.6685 240.016 46.9582C240.195 47.2446 240.293 47.5702 240.309 47.9348H239.45C239.433 47.7167 239.372 47.5197 239.264 47.3439C239.16 47.1682 239.017 47.0282 238.834 46.924C238.655 46.8166 238.445 46.7629 238.205 46.7629C237.928 46.7629 237.695 46.8182 237.506 46.9289C237.321 47.0363 237.173 47.1828 237.062 47.3683C236.955 47.5506 236.876 47.7541 236.828 47.9787C236.782 48.2001 236.759 48.4263 236.759 48.6574V48.8625C236.759 49.0936 236.782 49.3215 236.828 49.5461C236.873 49.7707 236.95 49.9741 237.057 50.1564C237.168 50.3387 237.316 50.4852 237.501 50.5959C237.69 50.7033 237.925 50.757 238.205 50.757ZM244.44 50.4982V47.7785C244.44 47.5702 244.398 47.3895 244.313 47.2365C244.232 47.0803 244.108 46.9598 243.942 46.8752C243.776 46.7905 243.571 46.7482 243.327 46.7482C243.099 46.7482 242.899 46.7873 242.726 46.8654C242.557 46.9435 242.423 47.0461 242.326 47.173C242.231 47.3 242.184 47.4367 242.184 47.5832H241.281C241.281 47.3944 241.33 47.2072 241.427 47.0217C241.525 46.8361 241.665 46.6685 241.847 46.5187C242.033 46.3657 242.254 46.2453 242.511 46.1574C242.772 46.0663 243.061 46.0207 243.38 46.0207C243.764 46.0207 244.103 46.0858 244.396 46.216C244.692 46.3462 244.923 46.5432 245.089 46.8068C245.259 47.0672 245.343 47.3944 245.343 47.7883V50.2492C245.343 50.425 245.358 50.6122 245.387 50.8107C245.42 51.0093 245.467 51.1802 245.529 51.3234V51.4016H244.586C244.541 51.2974 244.505 51.159 244.479 50.9865C244.453 50.8107 244.44 50.648 244.44 50.4982ZM244.596 48.1984L244.606 48.8332H243.693C243.436 48.8332 243.206 48.8543 243.004 48.8967C242.803 48.9357 242.633 48.996 242.497 49.0773C242.36 49.1587 242.256 49.2613 242.184 49.3849C242.112 49.5054 242.077 49.647 242.077 49.8098C242.077 49.9758 242.114 50.1271 242.189 50.2639C242.264 50.4006 242.376 50.5096 242.526 50.591C242.679 50.6691 242.866 50.7082 243.087 50.7082C243.364 50.7082 243.608 50.6496 243.82 50.5324C244.031 50.4152 244.199 50.272 244.323 50.1027C244.45 49.9335 244.518 49.7691 244.528 49.6096L244.914 50.0441C244.891 50.1808 244.829 50.3322 244.728 50.4982C244.627 50.6642 244.492 50.8238 244.323 50.9767C244.157 51.1265 243.958 51.2518 243.727 51.3527C243.499 51.4504 243.242 51.4992 242.956 51.4992C242.597 51.4992 242.283 51.4292 242.013 51.2892C241.746 51.1493 241.538 50.9621 241.388 50.7277C241.242 50.4901 241.168 50.2248 241.168 49.9318C241.168 49.6486 241.224 49.3996 241.334 49.1848C241.445 48.9667 241.605 48.786 241.813 48.6428C242.021 48.4963 242.272 48.3856 242.565 48.3107C242.858 48.2359 243.185 48.1984 243.546 48.1984H244.596ZM247.663 47.1682V51.4016H246.754V46.1183H247.614L247.663 47.1682ZM247.477 48.5598L247.057 48.5451C247.06 48.1838 247.108 47.8501 247.199 47.5441C247.29 47.2349 247.425 46.9663 247.604 46.7385C247.783 46.5106 248.006 46.3348 248.273 46.2111C248.54 46.0842 248.849 46.0207 249.201 46.0207C249.448 46.0207 249.676 46.0565 249.884 46.1281C250.093 46.1965 250.273 46.3055 250.426 46.4553C250.579 46.605 250.698 46.7971 250.783 47.0314C250.867 47.2658 250.91 47.549 250.91 47.881V51.4016H250.006V47.925C250.006 47.6483 249.959 47.4269 249.865 47.2609C249.774 47.0949 249.643 46.9745 249.474 46.8996C249.305 46.8215 249.106 46.7824 248.878 46.7824C248.611 46.7824 248.389 46.8296 248.209 46.924C248.03 47.0184 247.887 47.1486 247.78 47.3146C247.672 47.4807 247.594 47.6711 247.545 47.8859C247.5 48.0975 247.477 48.3221 247.477 48.5598ZM250.9 48.0617L250.294 48.2473C250.298 47.9575 250.345 47.6792 250.436 47.4123C250.53 47.1454 250.666 46.9077 250.841 46.6994C251.02 46.4911 251.24 46.3267 251.5 46.2062C251.761 46.0825 252.059 46.0207 252.394 46.0207C252.677 46.0207 252.928 46.0581 253.146 46.133C253.367 46.2079 253.553 46.3234 253.703 46.4797C253.856 46.6327 253.971 46.8296 254.049 47.0705C254.127 47.3114 254.167 47.5978 254.167 47.9299V51.4016H253.258V47.9201C253.258 47.6239 253.211 47.3944 253.117 47.2316C253.026 47.0656 252.895 46.9501 252.726 46.8849C252.56 46.8166 252.361 46.7824 252.13 46.7824C251.932 46.7824 251.756 46.8166 251.603 46.8849C251.45 46.9533 251.321 47.0477 251.217 47.1682C251.113 47.2853 251.033 47.4204 250.978 47.5734C250.926 47.7264 250.9 47.8892 250.9 48.0617ZM257.726 51.4992C257.358 51.4992 257.025 51.4374 256.725 51.3137C256.429 51.1867 256.173 51.0093 255.958 50.7814C255.747 50.5536 255.584 50.2834 255.47 49.9709C255.356 49.6584 255.299 49.3166 255.299 48.9455V48.7404C255.299 48.3107 255.363 47.9282 255.49 47.593C255.617 47.2544 255.789 46.968 256.007 46.7336C256.225 46.4992 256.473 46.3218 256.75 46.2014C257.026 46.0809 257.313 46.0207 257.609 46.0207C257.986 46.0207 258.312 46.0858 258.585 46.216C258.862 46.3462 259.088 46.5285 259.264 46.7629C259.44 46.994 259.57 47.2674 259.655 47.5832C259.739 47.8957 259.782 48.2375 259.782 48.6086V49.0139H255.836V48.2766H258.878V48.2082C258.865 47.9738 258.817 47.746 258.732 47.5246C258.651 47.3032 258.52 47.121 258.341 46.9777C258.162 46.8345 257.918 46.7629 257.609 46.7629C257.404 46.7629 257.215 46.8068 257.042 46.8947C256.87 46.9793 256.722 47.1063 256.598 47.2756C256.474 47.4448 256.378 47.6516 256.31 47.8957C256.242 48.1398 256.208 48.4214 256.208 48.7404V48.9455C256.208 49.1961 256.242 49.4321 256.31 49.6535C256.382 49.8716 256.484 50.0637 256.618 50.2297C256.754 50.3957 256.919 50.5259 257.111 50.6203C257.306 50.7147 257.528 50.7619 257.775 50.7619C258.094 50.7619 258.364 50.6968 258.585 50.5666C258.807 50.4364 259 50.2622 259.167 50.0441L259.713 50.4787C259.599 50.6512 259.455 50.8156 259.279 50.9719C259.103 51.1281 258.887 51.2551 258.629 51.3527C258.375 51.4504 258.074 51.4992 257.726 51.4992ZM261.74 47.2463V51.4016H260.836V46.1183H261.691L261.74 47.2463ZM261.525 48.5598L261.149 48.5451C261.152 48.1838 261.206 47.8501 261.31 47.5441C261.414 47.2349 261.561 46.9663 261.75 46.7385C261.938 46.5106 262.163 46.3348 262.423 46.2111C262.687 46.0842 262.978 46.0207 263.297 46.0207C263.558 46.0207 263.792 46.0565 264 46.1281C264.209 46.1965 264.386 46.3071 264.533 46.4601C264.682 46.6131 264.796 46.8117 264.875 47.0558C264.953 47.2967 264.992 47.5913 264.992 47.9396V51.4016H264.083V47.9299C264.083 47.6532 264.043 47.4318 263.961 47.2658C263.88 47.0965 263.761 46.9745 263.605 46.8996C263.449 46.8215 263.257 46.7824 263.029 46.7824C262.804 46.7824 262.599 46.8296 262.414 46.924C262.231 47.0184 262.073 47.1486 261.94 47.3146C261.81 47.4807 261.707 47.6711 261.632 47.8859C261.561 48.0975 261.525 48.3221 261.525 48.5598ZM268.576 46.1183V46.8117H265.719V46.1183H268.576ZM266.686 44.8342H267.589V50.093C267.589 50.272 267.617 50.4071 267.672 50.4982C267.728 50.5894 267.799 50.6496 267.887 50.6789C267.975 50.7082 268.069 50.7228 268.17 50.7228C268.245 50.7228 268.323 50.7163 268.405 50.7033C268.489 50.687 268.553 50.674 268.595 50.6642L268.6 51.4016C268.528 51.4243 268.434 51.4455 268.317 51.465C268.203 51.4878 268.065 51.4992 267.902 51.4992C267.681 51.4992 267.477 51.4553 267.292 51.3674C267.106 51.2795 266.958 51.133 266.847 50.9279C266.74 50.7196 266.686 50.4396 266.686 50.0881V44.8342ZM269.298 48.8185V48.7062C269.298 48.3254 269.354 47.9722 269.464 47.6467C269.575 47.3179 269.735 47.0331 269.943 46.7922C270.151 46.548 270.403 46.3592 270.7 46.2258C270.996 46.0891 271.328 46.0207 271.696 46.0207C272.067 46.0207 272.401 46.0891 272.697 46.2258C272.996 46.3592 273.25 46.548 273.458 46.7922C273.67 47.0331 273.831 47.3179 273.942 47.6467C274.053 47.9722 274.108 48.3254 274.108 48.7062V48.8185C274.108 49.1994 274.053 49.5526 273.942 49.8781C273.831 50.2036 273.67 50.4885 273.458 50.7326C273.25 50.9735 272.998 51.1623 272.702 51.299C272.409 51.4325 272.077 51.4992 271.706 51.4992C271.334 51.4992 271.001 51.4325 270.705 51.299C270.408 51.1623 270.154 50.9735 269.943 50.7326C269.735 50.4885 269.575 50.2036 269.464 49.8781C269.354 49.5526 269.298 49.1994 269.298 48.8185ZM270.202 48.7062V48.8185C270.202 49.0822 270.233 49.3312 270.294 49.5656C270.356 49.7967 270.449 50.0018 270.573 50.1808C270.7 50.3599 270.858 50.5015 271.046 50.6057C271.235 50.7066 271.455 50.757 271.706 50.757C271.953 50.757 272.169 50.7066 272.355 50.6057C272.544 50.5015 272.7 50.3599 272.824 50.1808C272.947 50.0018 273.04 49.7967 273.102 49.5656C273.167 49.3312 273.2 49.0822 273.2 48.8185V48.7062C273.2 48.4458 273.167 48.2001 273.102 47.9689C273.04 47.7346 272.946 47.5279 272.819 47.3488C272.695 47.1665 272.539 47.0233 272.35 46.9191C272.165 46.815 271.946 46.7629 271.696 46.7629C271.448 46.7629 271.23 46.815 271.042 46.9191C270.856 47.0233 270.7 47.1665 270.573 47.3488C270.449 47.5279 270.356 47.7346 270.294 47.9689C270.233 48.2001 270.202 48.4458 270.202 48.7062ZM278.317 50.0002C278.317 49.87 278.288 49.7495 278.229 49.6389C278.174 49.5249 278.058 49.4224 277.882 49.3312C277.71 49.2368 277.449 49.1555 277.101 49.0871C276.808 49.0252 276.543 48.952 276.305 48.8674C276.071 48.7827 275.871 48.6802 275.705 48.5598C275.542 48.4393 275.417 48.2977 275.329 48.1349C275.241 47.9722 275.197 47.7818 275.197 47.5637C275.197 47.3553 275.242 47.1584 275.333 46.9728C275.428 46.7873 275.56 46.6229 275.729 46.4797C275.902 46.3364 276.108 46.2241 276.349 46.1428C276.59 46.0614 276.859 46.0207 277.155 46.0207C277.578 46.0207 277.939 46.0956 278.239 46.2453C278.538 46.395 278.768 46.5952 278.927 46.8459C279.087 47.0933 279.167 47.3683 279.167 47.6711H278.263C278.263 47.5246 278.219 47.383 278.131 47.2463C278.047 47.1063 277.921 46.9907 277.755 46.8996C277.593 46.8085 277.392 46.7629 277.155 46.7629C276.904 46.7629 276.701 46.8019 276.544 46.8801C276.391 46.9549 276.279 47.051 276.208 47.1682C276.139 47.2853 276.105 47.409 276.105 47.5392C276.105 47.6369 276.121 47.7248 276.154 47.8029C276.19 47.8778 276.251 47.9478 276.339 48.0129C276.427 48.0747 276.551 48.1333 276.71 48.1887C276.87 48.244 277.073 48.2993 277.321 48.3547C277.754 48.4523 278.11 48.5695 278.39 48.7062C278.67 48.843 278.878 49.0106 279.015 49.2092C279.152 49.4077 279.22 49.6486 279.22 49.9318C279.22 50.1629 279.171 50.3745 279.074 50.5666C278.979 50.7586 278.841 50.9247 278.659 51.0646C278.48 51.2014 278.265 51.3088 278.014 51.3869C277.767 51.4618 277.488 51.4992 277.179 51.4992C276.714 51.4992 276.32 51.4162 275.998 51.2502C275.675 51.0842 275.431 50.8693 275.265 50.6057C275.099 50.342 275.016 50.0637 275.016 49.7707H275.924C275.937 50.0181 276.009 50.215 276.139 50.3615C276.269 50.5047 276.429 50.6073 276.618 50.6691C276.806 50.7277 276.994 50.757 277.179 50.757C277.427 50.757 277.633 50.7245 277.799 50.6594C277.969 50.5943 278.097 50.5047 278.185 50.3908C278.273 50.2769 278.317 50.1467 278.317 50.0002Z" fill="#605D64"/>
<path fill-rule="evenodd" clip-rule="evenodd" d="M326.339 16.6788C320.819 16.6788 316.339 21.1588 316.339 26.6788C316.339 32.1988 320.819 36.6788 326.339 36.6788C331.859 36.6788 336.339 32.1988 336.339 26.6788C336.339 21.1588 331.859 16.6788 326.339 16.6788ZM332.699 31.5088C331.269 29.7688 327.799 29.1788 326.339 29.1788C324.879 29.1788 321.409 29.7688 319.979 31.5088C318.959 30.1688 318.339 28.4988 318.339 26.6788C318.339 22.2688 321.929 18.6788 326.339 18.6788C330.749 18.6788 334.339 22.2688 334.339 26.6788C334.339 28.4988 333.719 30.1688 332.699 31.5088ZM322.839 24.1788C322.839 22.2388 324.399 20.6788 326.339 20.6788C328.279 20.6788 329.839 22.2388 329.839 24.1788C329.839 26.1188 328.279 27.6788 326.339 27.6788C324.399 27.6788 322.839 26.1188 322.839 24.1788Z" fill="#605D64"/>
<path d="M318.831 48.6135H316.932V47.8469H318.831C319.199 47.8469 319.497 47.7883 319.725 47.6711C319.952 47.5539 320.118 47.3911 320.223 47.1828C320.33 46.9745 320.384 46.7368 320.384 46.4699C320.384 46.2258 320.33 45.9963 320.223 45.7814C320.118 45.5666 319.952 45.3941 319.725 45.2639C319.497 45.1304 319.199 45.0637 318.831 45.0637H317.151V51.4016H316.209V44.2922H318.831C319.368 44.2922 319.822 44.3849 320.193 44.5705C320.564 44.756 320.846 45.0132 321.038 45.342C321.23 45.6675 321.326 46.0402 321.326 46.4601C321.326 46.9159 321.23 47.3049 321.038 47.6271C320.846 47.9494 320.564 48.1952 320.193 48.3644C319.822 48.5305 319.368 48.6135 318.831 48.6135ZM324.505 51.4992C324.137 51.4992 323.803 51.4374 323.504 51.3137C323.208 51.1867 322.952 51.0093 322.737 50.7814C322.526 50.5536 322.363 50.2834 322.249 49.9709C322.135 49.6584 322.078 49.3166 322.078 48.9455V48.7404C322.078 48.3107 322.142 47.9282 322.269 47.593C322.396 47.2544 322.568 46.968 322.786 46.7336C323.004 46.4992 323.252 46.3218 323.528 46.2014C323.805 46.0809 324.091 46.0207 324.388 46.0207C324.765 46.0207 325.091 46.0858 325.364 46.216C325.641 46.3462 325.867 46.5285 326.043 46.7629C326.219 46.994 326.349 47.2674 326.434 47.5832C326.518 47.8957 326.561 48.2375 326.561 48.6086V49.0139H322.615V48.2766H325.657V48.2082C325.644 47.9738 325.595 47.746 325.511 47.5246C325.429 47.3032 325.299 47.121 325.12 46.9777C324.941 46.8345 324.697 46.7629 324.388 46.7629C324.183 46.7629 323.994 46.8068 323.821 46.8947C323.649 46.9793 323.501 47.1063 323.377 47.2756C323.253 47.4448 323.157 47.6516 323.089 47.8957C323.021 48.1398 322.986 48.4214 322.986 48.7404V48.9455C322.986 49.1961 323.021 49.4321 323.089 49.6535C323.16 49.8716 323.263 50.0637 323.396 50.2297C323.533 50.3957 323.698 50.5259 323.89 50.6203C324.085 50.7147 324.306 50.7619 324.554 50.7619C324.873 50.7619 325.143 50.6968 325.364 50.5666C325.586 50.4364 325.779 50.2622 325.945 50.0441L326.492 50.4787C326.378 50.6512 326.233 50.8156 326.058 50.9719C325.882 51.1281 325.665 51.2551 325.408 51.3527C325.154 51.4504 324.853 51.4992 324.505 51.4992ZM328.519 46.9484V51.4016H327.615V46.1183H328.494L328.519 46.9484ZM330.169 46.0891L330.164 46.9289C330.089 46.9126 330.018 46.9029 329.949 46.8996C329.884 46.8931 329.809 46.8898 329.725 46.8898C329.516 46.8898 329.332 46.9224 329.173 46.9875C329.013 47.0526 328.878 47.1437 328.768 47.2609C328.657 47.3781 328.569 47.5181 328.504 47.6808C328.442 47.8404 328.401 48.0161 328.382 48.2082L328.128 48.3547C328.128 48.0357 328.159 47.7362 328.221 47.4562C328.286 47.1763 328.385 46.9289 328.519 46.7141C328.652 46.496 328.821 46.3267 329.026 46.2062C329.235 46.0825 329.482 46.0207 329.769 46.0207C329.834 46.0207 329.909 46.0288 329.993 46.0451C330.078 46.0581 330.136 46.0728 330.169 46.0891ZM332.21 51.4016H331.307V45.6594C331.307 45.259 331.385 44.9204 331.541 44.6437C331.697 44.367 331.92 44.1571 332.21 44.0139C332.5 43.8706 332.843 43.799 333.24 43.799C333.475 43.799 333.704 43.8283 333.929 43.8869C334.153 43.9422 334.384 44.0122 334.622 44.0969L334.471 44.8586C334.321 44.8 334.147 44.7446 333.948 44.6926C333.753 44.6372 333.538 44.6096 333.304 44.6096C332.916 44.6096 332.636 44.6974 332.464 44.8732C332.295 45.0458 332.21 45.3078 332.21 45.6594V51.4016ZM333.289 46.1183V46.8117H330.472V46.1183H333.289ZM335.066 46.1183V51.4016H334.163V46.1183H335.066ZM337.532 43.9016V51.4016H336.624V43.9016H337.532Z" fill="#605D64"/>
<path d="M55.624 44.2922V51.4016H54.6816V44.2922H55.624ZM58.1045 47.2463V51.4016H57.2012V46.1183H58.0557L58.1045 47.2463ZM57.8896 48.5598L57.5137 48.5451C57.5169 48.1838 57.5706 47.8501 57.6748 47.5441C57.779 47.2349 57.9255 46.9663 58.1143 46.7385C58.3031 46.5106 58.5277 46.3348 58.7881 46.2111C59.0518 46.0842 59.3431 46.0207 59.6621 46.0207C59.9225 46.0207 60.1569 46.0565 60.3652 46.1281C60.5736 46.1965 60.751 46.3071 60.8975 46.4601C61.0472 46.6131 61.1611 46.8117 61.2393 47.0558C61.3174 47.2967 61.3564 47.5913 61.3564 47.9396V51.4016H60.4482V47.9299C60.4482 47.6532 60.4076 47.4318 60.3262 47.2658C60.2448 47.0965 60.126 46.9745 59.9697 46.8996C59.8135 46.8215 59.6214 46.7824 59.3936 46.7824C59.1689 46.7824 58.9639 46.8296 58.7783 46.924C58.596 47.0184 58.4382 47.1486 58.3047 47.3146C58.1745 47.4807 58.0719 47.6711 57.9971 47.8859C57.9255 48.0975 57.8896 48.3221 57.8896 48.5598ZM63.7051 46.1183V51.4016H62.8018V46.1183H63.7051ZM62.7725 45.3469L63.7197 43.9113H64.8086L63.5 45.3469H62.7725ZM67.3232 50.757C67.5381 50.757 67.7367 50.7131 67.9189 50.6252C68.1012 50.5373 68.251 50.4168 68.3682 50.2639C68.4854 50.1076 68.5521 49.9302 68.5684 49.7316H69.4277C69.4115 50.0441 69.3057 50.3355 69.1104 50.6057C68.9183 50.8726 68.666 51.0891 68.3535 51.2551C68.041 51.4178 67.6976 51.4992 67.3232 51.4992C66.9261 51.4992 66.5794 51.4292 66.2832 51.2892C65.9902 51.1493 65.7461 50.9572 65.5508 50.7131C65.3587 50.4689 65.2139 50.189 65.1162 49.8732C65.0218 49.5542 64.9746 49.2173 64.9746 48.8625V48.6574C64.9746 48.3026 65.0218 47.9673 65.1162 47.6516C65.2139 47.3325 65.3587 47.051 65.5508 46.8068C65.7461 46.5627 65.9902 46.3706 66.2832 46.2307C66.5794 46.0907 66.9261 46.0207 67.3232 46.0207C67.7367 46.0207 68.098 46.1053 68.4072 46.2746C68.7165 46.4406 68.959 46.6685 69.1348 46.9582C69.3138 47.2446 69.4115 47.5702 69.4277 47.9348H68.5684C68.5521 47.7167 68.4902 47.5197 68.3828 47.3439C68.2786 47.1682 68.1354 47.0282 67.9531 46.924C67.7741 46.8166 67.5641 46.7629 67.3232 46.7629C67.0465 46.7629 66.8138 46.8182 66.625 46.9289C66.4395 47.0363 66.2913 47.1828 66.1807 47.3683C66.0732 47.5506 65.9951 47.7541 65.9463 47.9787C65.9007 48.2001 65.8779 48.4263 65.8779 48.6574V48.8625C65.8779 49.0936 65.9007 49.3215 65.9463 49.5461C65.9919 49.7707 66.0684 49.9741 66.1758 50.1564C66.2865 50.3387 66.4346 50.4852 66.6201 50.5959C66.8089 50.7033 67.0433 50.757 67.3232 50.757ZM71.4248 46.1183V51.4016H70.5166V46.1183H71.4248ZM70.4482 44.717C70.4482 44.5705 70.4922 44.4468 70.5801 44.3459C70.6712 44.245 70.8047 44.1945 70.9805 44.1945C71.153 44.1945 71.2848 44.245 71.376 44.3459C71.4704 44.4468 71.5176 44.5705 71.5176 44.717C71.5176 44.857 71.4704 44.9774 71.376 45.0783C71.2848 45.176 71.153 45.2248 70.9805 45.2248C70.8047 45.2248 70.6712 45.176 70.5801 45.0783C70.4922 44.9774 70.4482 44.857 70.4482 44.717ZM72.6357 48.8185V48.7062C72.6357 48.3254 72.6911 47.9722 72.8018 47.6467C72.9124 47.3179 73.0719 47.0331 73.2803 46.7922C73.4886 46.548 73.7409 46.3592 74.0371 46.2258C74.3333 46.0891 74.6654 46.0207 75.0332 46.0207C75.4043 46.0207 75.738 46.0891 76.0342 46.2258C76.3337 46.3592 76.5876 46.548 76.7959 46.7922C77.0075 47.0331 77.1686 47.3179 77.2793 47.6467C77.39 47.9722 77.4453 48.3254 77.4453 48.7062V48.8185C77.4453 49.1994 77.39 49.5526 77.2793 49.8781C77.1686 50.2036 77.0075 50.4885 76.7959 50.7326C76.5876 50.9735 76.3353 51.1623 76.0391 51.299C75.7461 51.4325 75.4141 51.4992 75.043 51.4992C74.6719 51.4992 74.3382 51.4325 74.042 51.299C73.7458 51.1623 73.4919 50.9735 73.2803 50.7326C73.0719 50.4885 72.9124 50.2036 72.8018 49.8781C72.6911 49.5526 72.6357 49.1994 72.6357 48.8185ZM73.5391 48.7062V48.8185C73.5391 49.0822 73.57 49.3312 73.6318 49.5656C73.6937 49.7967 73.7865 50.0018 73.9102 50.1808C74.0371 50.3599 74.195 50.5015 74.3838 50.6057C74.5726 50.7066 74.7923 50.757 75.043 50.757C75.2904 50.757 75.5068 50.7066 75.6924 50.6057C75.8812 50.5015 76.0374 50.3599 76.1611 50.1808C76.2848 50.0018 76.3776 49.7967 76.4395 49.5656C76.5046 49.3312 76.5371 49.0822 76.5371 48.8185V48.7062C76.5371 48.4458 76.5046 48.2001 76.4395 47.9689C76.3776 47.7346 76.2832 47.5279 76.1562 47.3488C76.0326 47.1665 75.8763 47.0233 75.6875 46.9191C75.502 46.815 75.2839 46.7629 75.0332 46.7629C74.7858 46.7629 74.5677 46.815 74.3789 46.9191C74.1934 47.0233 74.0371 47.1665 73.9102 47.3488C73.7865 47.5279 73.6937 47.7346 73.6318 47.9689C73.57 48.2001 73.5391 48.4458 73.5391 48.7062Z" fill="#00A8FF"/>
<path d="M60.3389 35.1969C60.3389 35.7492 60.7866 36.1969 61.3389 36.1969H62.3389C62.8912 36.1969 63.3389 35.7492 63.3389 35.1969V31.1969C63.3389 30.6446 63.7866 30.1969 64.3389 30.1969H68.3389C68.8912 30.1969 69.3389 30.6446 69.3389 31.1969V35.1969C69.3389 35.7492 69.7866 36.1969 70.3389 36.1969H71.3389C71.8912 36.1969 72.3389 35.7492 72.3389 35.1969V27.6969C72.3389 27.3821 72.1907 27.0858 71.9389 26.8969L66.9389 23.1469C66.5833 22.8802 66.0944 22.8802 65.7389 23.1469L60.7389 26.8969C60.4871 27.0858 60.3389 27.3821 60.3389 27.6969V35.1969ZM59.3389 38.1969C58.7866 38.1969 58.3389 37.7492 58.3389 37.1969V26.6969C58.3389 26.3821 58.4871 26.0858 58.7389 25.8969L65.7389 20.6469C66.0944 20.3802 66.5833 20.3802 66.9389 20.6469L73.9389 25.8969C74.1907 26.0858 74.3389 26.3821 74.3389 26.6969V37.1969C74.3389 37.7492 73.8912 38.1969 73.3389 38.1969H68.3392V32.1969H64.3486V38.1969H59.3389Z" fill="#00A8FF"/>
<path d="M59.7568 26.2303L66.3174 22.4126L72.4388 27.1957V36.3668H69.2355L68.6304 31.293L64.1492 31.0247L63.8379 37.2225H59.7568V26.2303Z" fill="#00A8FF"/>
<path d="M133.417 44.2922V51.4016H132.489V44.2922H133.417ZM135.702 44.2922V45.0637H130.208V44.2922H135.702ZM137.152 46.9484V51.4016H136.249V46.1183H137.127L137.152 46.9484ZM138.802 46.0891L138.797 46.9289C138.722 46.9126 138.651 46.9029 138.583 46.8996C138.517 46.8931 138.443 46.8898 138.358 46.8898C138.15 46.8898 137.966 46.9224 137.806 46.9875C137.647 47.0526 137.512 47.1437 137.401 47.2609C137.29 47.3781 137.202 47.5181 137.137 47.6808C137.075 47.8404 137.035 48.0161 137.015 48.2082L136.761 48.3547C136.761 48.0357 136.792 47.7362 136.854 47.4562C136.919 47.1763 137.018 46.9289 137.152 46.7141C137.285 46.496 137.455 46.3267 137.66 46.2062C137.868 46.0825 138.115 46.0207 138.402 46.0207C138.467 46.0207 138.542 46.0288 138.626 46.0451C138.711 46.0581 138.77 46.0728 138.802 46.0891ZM142.557 50.4982V47.7785C142.557 47.5702 142.515 47.3895 142.43 47.2365C142.349 47.0803 142.225 46.9598 142.059 46.8752C141.893 46.7905 141.688 46.7482 141.444 46.7482C141.216 46.7482 141.016 46.7873 140.843 46.8654C140.674 46.9435 140.541 47.0461 140.443 47.173C140.348 47.3 140.301 47.4367 140.301 47.5832H139.398C139.398 47.3944 139.447 47.2072 139.544 47.0217C139.642 46.8361 139.782 46.6685 139.964 46.5187C140.15 46.3657 140.371 46.2453 140.628 46.1574C140.889 46.0663 141.179 46.0207 141.498 46.0207C141.882 46.0207 142.22 46.0858 142.513 46.216C142.809 46.3462 143.041 46.5432 143.207 46.8068C143.376 47.0672 143.46 47.3944 143.46 47.7883V50.2492C143.46 50.425 143.475 50.6122 143.504 50.8107C143.537 51.0093 143.584 51.1802 143.646 51.3234V51.4016H142.704C142.658 51.2974 142.622 51.159 142.596 50.9865C142.57 50.8107 142.557 50.648 142.557 50.4982ZM142.713 48.1984L142.723 48.8332H141.81C141.553 48.8332 141.323 48.8543 141.122 48.8967C140.92 48.9357 140.75 48.996 140.614 49.0773C140.477 49.1587 140.373 49.2613 140.301 49.3849C140.23 49.5054 140.194 49.647 140.194 49.8098C140.194 49.9758 140.231 50.1271 140.306 50.2639C140.381 50.4006 140.493 50.5096 140.643 50.591C140.796 50.6691 140.983 50.7082 141.205 50.7082C141.481 50.7082 141.725 50.6496 141.937 50.5324C142.149 50.4152 142.316 50.272 142.44 50.1027C142.567 49.9335 142.635 49.7691 142.645 49.6096L143.031 50.0441C143.008 50.1808 142.946 50.3322 142.845 50.4982C142.744 50.6642 142.609 50.8238 142.44 50.9767C142.274 51.1265 142.075 51.2518 141.844 51.3527C141.616 51.4504 141.359 51.4992 141.073 51.4992C140.715 51.4992 140.401 51.4292 140.13 51.2892C139.863 51.1493 139.655 50.9621 139.505 50.7277C139.359 50.4901 139.286 50.2248 139.286 49.9318C139.286 49.6486 139.341 49.3996 139.452 49.1848C139.562 48.9667 139.722 48.786 139.93 48.6428C140.139 48.4963 140.389 48.3856 140.682 48.3107C140.975 48.2359 141.302 48.1984 141.664 48.1984H142.713ZM147.093 46.1183V46.8117H144.237V46.1183H147.093ZM145.204 44.8342H146.107V50.093C146.107 50.272 146.135 50.4071 146.19 50.4982C146.245 50.5894 146.317 50.6496 146.405 50.6789C146.493 50.7082 146.587 50.7228 146.688 50.7228C146.763 50.7228 146.841 50.7163 146.922 50.7033C147.007 50.687 147.07 50.674 147.113 50.6642L147.118 51.4016C147.046 51.4243 146.952 51.4455 146.834 51.465C146.721 51.4878 146.582 51.4992 146.419 51.4992C146.198 51.4992 145.995 51.4553 145.809 51.3674C145.624 51.2795 145.475 51.133 145.365 50.9279C145.257 50.7196 145.204 50.4396 145.204 50.0881V44.8342ZM151.268 50.4982V47.7785C151.268 47.5702 151.226 47.3895 151.141 47.2365C151.06 47.0803 150.936 46.9598 150.77 46.8752C150.604 46.7905 150.399 46.7482 150.155 46.7482C149.927 46.7482 149.727 46.7873 149.554 46.8654C149.385 46.9435 149.251 47.0461 149.154 47.173C149.059 47.3 149.012 47.4367 149.012 47.5832H148.109C148.109 47.3944 148.158 47.2072 148.255 47.0217C148.353 46.8361 148.493 46.6685 148.675 46.5187C148.861 46.3657 149.082 46.2453 149.339 46.1574C149.6 46.0663 149.889 46.0207 150.208 46.0207C150.593 46.0207 150.931 46.0858 151.224 46.216C151.52 46.3462 151.751 46.5432 151.917 46.8068C152.087 47.0672 152.171 47.3944 152.171 47.7883V50.2492C152.171 50.425 152.186 50.6122 152.215 50.8107C152.248 51.0093 152.295 51.1802 152.357 51.3234V51.4016H151.415C151.369 51.2974 151.333 51.159 151.307 50.9865C151.281 50.8107 151.268 50.648 151.268 50.4982ZM151.424 48.1984L151.434 48.8332H150.521C150.264 48.8332 150.034 48.8543 149.833 48.8967C149.631 48.9357 149.461 48.996 149.325 49.0773C149.188 49.1587 149.084 49.2613 149.012 49.3849C148.941 49.5054 148.905 49.647 148.905 49.8098C148.905 49.9758 148.942 50.1271 149.017 50.2639C149.092 50.4006 149.204 50.5096 149.354 50.591C149.507 50.6691 149.694 50.7082 149.916 50.7082C150.192 50.7082 150.436 50.6496 150.648 50.5324C150.86 50.4152 151.027 50.272 151.151 50.1027C151.278 49.9335 151.346 49.7691 151.356 49.6096L151.742 50.0441C151.719 50.1808 151.657 50.3322 151.556 50.4982C151.455 50.6642 151.32 50.8238 151.151 50.9767C150.985 51.1265 150.786 51.2518 150.555 51.3527C150.327 51.4504 150.07 51.4992 149.784 51.4992C149.426 51.4992 149.111 51.4292 148.841 51.2892C148.574 51.1493 148.366 50.9621 148.216 50.7277C148.07 50.4901 147.997 50.2248 147.997 49.9318C147.997 49.6486 148.052 49.3996 148.163 49.1848C148.273 48.9667 148.433 48.786 148.641 48.6428C148.849 48.4963 149.1 48.3856 149.393 48.3107C149.686 48.2359 150.013 48.1984 150.375 48.1984H151.424ZM154.491 47.1682V51.4016H153.583V46.1183H154.442L154.491 47.1682ZM154.305 48.5598L153.885 48.5451C153.889 48.1838 153.936 47.8501 154.027 47.5441C154.118 47.2349 154.253 46.9663 154.432 46.7385C154.611 46.5106 154.834 46.3348 155.101 46.2111C155.368 46.0842 155.677 46.0207 156.029 46.0207C156.276 46.0207 156.504 46.0565 156.712 46.1281C156.921 46.1965 157.101 46.3055 157.254 46.4553C157.407 46.605 157.526 46.7971 157.611 47.0314C157.695 47.2658 157.738 47.549 157.738 47.881V51.4016H156.834V47.925C156.834 47.6483 156.787 47.4269 156.693 47.2609C156.602 47.0949 156.472 46.9745 156.302 46.8996C156.133 46.8215 155.934 46.7824 155.707 46.7824C155.44 46.7824 155.217 46.8296 155.038 46.924C154.859 47.0184 154.715 47.1486 154.608 47.3146C154.5 47.4807 154.422 47.6711 154.374 47.8859C154.328 48.0975 154.305 48.3221 154.305 48.5598ZM157.728 48.0617L157.123 48.2473C157.126 47.9575 157.173 47.6792 157.264 47.4123C157.359 47.1454 157.494 46.9077 157.669 46.6994C157.848 46.4911 158.068 46.3267 158.329 46.2062C158.589 46.0825 158.887 46.0207 159.222 46.0207C159.505 46.0207 159.756 46.0581 159.974 46.133C160.195 46.2079 160.381 46.3234 160.531 46.4797C160.684 46.6327 160.799 46.8296 160.877 47.0705C160.956 47.3114 160.995 47.5978 160.995 47.9299V51.4016H160.086V47.9201C160.086 47.6239 160.039 47.3944 159.945 47.2316C159.854 47.0656 159.723 46.9501 159.554 46.8849C159.388 46.8166 159.19 46.7824 158.958 46.7824C158.76 46.7824 158.584 46.8166 158.431 46.8849C158.278 46.9533 158.15 47.0477 158.045 47.1682C157.941 47.2853 157.861 47.4204 157.806 47.5734C157.754 47.7264 157.728 47.8892 157.728 48.0617ZM164.554 51.4992C164.186 51.4992 163.853 51.4374 163.553 51.3137C163.257 51.1867 163.001 51.0093 162.787 50.7814C162.575 50.5536 162.412 50.2834 162.298 49.9709C162.184 49.6584 162.127 49.3166 162.127 48.9455V48.7404C162.127 48.3107 162.191 47.9282 162.318 47.593C162.445 47.2544 162.617 46.968 162.835 46.7336C163.054 46.4992 163.301 46.3218 163.578 46.2014C163.854 46.0809 164.141 46.0207 164.437 46.0207C164.815 46.0207 165.14 46.0858 165.414 46.216C165.69 46.3462 165.917 46.5285 166.092 46.7629C166.268 46.994 166.398 47.2674 166.483 47.5832C166.568 47.8957 166.61 48.2375 166.61 48.6086V49.0139H162.665V48.2766H165.707V48.2082C165.694 47.9738 165.645 47.746 165.56 47.5246C165.479 47.3032 165.348 47.121 165.169 46.9777C164.99 46.8345 164.746 46.7629 164.437 46.7629C164.232 46.7629 164.043 46.8068 163.871 46.8947C163.698 46.9793 163.55 47.1063 163.426 47.2756C163.303 47.4448 163.207 47.6516 163.138 47.8957C163.07 48.1398 163.036 48.4214 163.036 48.7404V48.9455C163.036 49.1961 163.07 49.4321 163.138 49.6535C163.21 49.8716 163.312 50.0637 163.446 50.2297C163.583 50.3957 163.747 50.5259 163.939 50.6203C164.134 50.7147 164.356 50.7619 164.603 50.7619C164.922 50.7619 165.192 50.6968 165.414 50.5666C165.635 50.4364 165.829 50.2622 165.995 50.0441L166.542 50.4787C166.428 50.6512 166.283 50.8156 166.107 50.9719C165.931 51.1281 165.715 51.2551 165.458 51.3527C165.204 51.4504 164.903 51.4992 164.554 51.4992ZM168.568 47.2463V51.4016H167.665V46.1183H168.519L168.568 47.2463ZM168.353 48.5598L167.977 48.5451C167.98 48.1838 168.034 47.8501 168.138 47.5441C168.242 47.2349 168.389 46.9663 168.578 46.7385C168.766 46.5106 168.991 46.3348 169.251 46.2111C169.515 46.0842 169.806 46.0207 170.125 46.0207C170.386 46.0207 170.62 46.0565 170.829 46.1281C171.037 46.1965 171.214 46.3071 171.361 46.4601C171.511 46.6131 171.625 46.8117 171.703 47.0558C171.781 47.2967 171.82 47.5913 171.82 47.9396V51.4016H170.912V47.9299C170.912 47.6532 170.871 47.4318 170.79 47.2658C170.708 47.0965 170.589 46.9745 170.433 46.8996C170.277 46.8215 170.085 46.7824 169.857 46.7824C169.632 46.7824 169.427 46.8296 169.242 46.924C169.059 47.0184 168.902 47.1486 168.768 47.3146C168.638 47.4807 168.535 47.6711 168.46 47.8859C168.389 48.0975 168.353 48.3221 168.353 48.5598ZM175.404 46.1183V46.8117H172.547V46.1183H175.404ZM173.514 44.8342H174.417V50.093C174.417 50.272 174.445 50.4071 174.5 50.4982C174.556 50.5894 174.627 50.6496 174.715 50.6789C174.803 50.7082 174.898 50.7228 174.999 50.7228C175.073 50.7228 175.152 50.7163 175.233 50.7033C175.318 50.687 175.381 50.674 175.423 50.6642L175.428 51.4016C175.357 51.4243 175.262 51.4455 175.145 51.465C175.031 51.4878 174.893 51.4992 174.73 51.4992C174.509 51.4992 174.305 51.4553 174.12 51.3674C173.934 51.2795 173.786 51.133 173.675 50.9279C173.568 50.7196 173.514 50.4396 173.514 50.0881V44.8342ZM176.126 48.8185V48.7062C176.126 48.3254 176.182 47.9722 176.292 47.6467C176.403 47.3179 176.563 47.0331 176.771 46.7922C176.979 46.548 177.232 46.3592 177.528 46.2258C177.824 46.0891 178.156 46.0207 178.524 46.0207C178.895 46.0207 179.229 46.0891 179.525 46.2258C179.824 46.3592 180.078 46.548 180.287 46.7922C180.498 47.0331 180.659 47.3179 180.77 47.6467C180.881 47.9722 180.936 48.3254 180.936 48.7062V48.8185C180.936 49.1994 180.881 49.5526 180.77 49.8781C180.659 50.2036 180.498 50.4885 180.287 50.7326C180.078 50.9735 179.826 51.1623 179.53 51.299C179.237 51.4325 178.905 51.4992 178.534 51.4992C178.163 51.4992 177.829 51.4325 177.533 51.299C177.236 51.1623 176.983 50.9735 176.771 50.7326C176.563 50.4885 176.403 50.2036 176.292 49.8781C176.182 49.5526 176.126 49.1994 176.126 48.8185ZM177.03 48.7062V48.8185C177.03 49.0822 177.061 49.3312 177.123 49.5656C177.184 49.7967 177.277 50.0018 177.401 50.1808C177.528 50.3599 177.686 50.5015 177.875 50.6057C178.063 50.7066 178.283 50.757 178.534 50.757C178.781 50.757 178.998 50.7066 179.183 50.6057C179.372 50.5015 179.528 50.3599 179.652 50.1808C179.776 50.0018 179.868 49.7967 179.93 49.5656C179.995 49.3312 180.028 49.0822 180.028 48.8185V48.7062C180.028 48.4458 179.995 48.2001 179.93 47.9689C179.868 47.7346 179.774 47.5279 179.647 47.3488C179.523 47.1665 179.367 47.0233 179.178 46.9191C178.993 46.815 178.775 46.7629 178.524 46.7629C178.277 46.7629 178.058 46.815 177.87 46.9191C177.684 47.0233 177.528 47.1665 177.401 47.3488C177.277 47.5279 177.184 47.7346 177.123 47.9689C177.061 48.2001 177.03 48.4458 177.03 48.7062Z" fill="#605D64"/>
<path fill-rule="evenodd" clip-rule="evenodd" d="M162.672 18.6838H161.672V16.6838H159.672V18.6838H151.672V16.6838H149.672V18.6838H148.672C147.562 18.6838 146.672 19.5838 146.672 20.6838V34.6838C146.672 35.7838 147.562 36.6838 148.672 36.6838H162.672C163.772 36.6838 164.672 35.7838 164.672 34.6838V20.6838C164.672 19.5838 163.772 18.6838 162.672 18.6838ZM162.672 34.6838H148.672V23.6838H162.672V34.6838ZM150.172 27.6838C150.172 26.3038 151.292 25.1838 152.672 25.1838C154.052 25.1838 155.172 26.3038 155.172 27.6838C155.172 29.0638 154.052 30.1838 152.672 30.1838C151.292 30.1838 150.172 29.0638 150.172 27.6838Z" fill="#605D64"/>
<path d="M244.505 30.1838H247.505V27.6838H250.005V24.6838H247.505V22.1838H244.505V24.6838H242.005V27.6838H244.505V30.1838ZM246.005 36.6838C243.689 36.1005 241.776 34.7713 240.268 32.6963C238.76 30.6213 238.005 28.3172 238.005 25.7838V19.6838L246.005 16.6838L254.005 19.6838V25.7838C254.005 28.3172 253.251 30.6213 251.743 32.6963C250.235 34.7713 248.322 36.1005 246.005 36.6838ZM246.005 34.5838C247.739 34.0338 249.172 32.9338 250.305 31.2838C251.439 29.6338 252.005 27.8005 252.005 25.7838V21.0588L246.005 18.8088L240.005 21.0588V25.7838C240.005 27.8005 240.572 29.6338 241.705 31.2838C242.839 32.9338 244.272 34.0338 246.005 34.5838Z" fill="#605D64"/>
</g>
<defs>
<filter id="filter0_d_54938_29280" x="-9.16113" y="-5" width="410" height="90" filterUnits="userSpaceOnUse" color-interpolation-filters="sRGB">
<feFlood flood-opacity="0" result="BackgroundImageFix"/>
<feColorMatrix in="SourceAlpha" type="matrix" values="0 0 0 0 0 0 0 0 0 0 0 0 0 0 0 0 0 0 127 0" result="hardAlpha"/>
<feOffset dy="4"/>
<feGaussianBlur stdDeviation="5"/>
<feComposite in2="hardAlpha" operator="out"/>
<feColorMatrix type="matrix" values="0 0 0 0 0 0 0 0 0 0 0 0 0 0 0 0 0 0 0.25 0"/>
<feBlend mode="normal" in2="BackgroundImageFix" result="effect1_dropShadow_54938_29280"/>
<feBlend mode="normal" in="SourceGraphic" in2="effect1_dropShadow_54938_29280" result="shape"/>
</filter>
</defs>
</svg>
