<svg width="252" height="199" viewBox="0 0 252 199" fill="none" xmlns="http://www.w3.org/2000/svg">
<g clip-path="url(#clip0_54912_28805)">
<path d="M152.067 134.179L160.433 124.604L160.52 124.681L162.059 122.92L161.972 122.844L164.54 119.904C164.636 119.794 164.71 119.667 164.756 119.528C164.803 119.39 164.822 119.244 164.812 119.099C164.802 118.953 164.764 118.811 164.699 118.681C164.635 118.55 164.545 118.433 164.435 118.337L158.214 112.901C158.104 112.805 157.976 112.732 157.838 112.685C157.7 112.638 157.554 112.619 157.408 112.629C157.263 112.639 157.121 112.677 156.99 112.742C156.86 112.807 156.743 112.896 156.647 113.006L154.856 115.056L154.714 114.938L153.666 116.193L153.779 116.288L153.542 116.559L153.421 116.459L152.373 117.714L152.466 117.791L144.173 127.281C144.077 127.39 144.003 127.518 143.957 127.656C143.91 127.794 143.891 127.94 143.901 128.086C143.91 128.232 143.949 128.374 144.014 128.504C144.079 128.635 144.169 128.752 144.279 128.847L150.5 134.284C150.722 134.477 151.011 134.575 151.305 134.555C151.599 134.535 151.873 134.4 152.067 134.179Z" fill="#3F3D56"/>
<path d="M144.425 128.298C144.372 128.203 144.349 128.093 144.361 127.984C144.372 127.875 144.417 127.772 144.489 127.69L157.095 113.265C157.188 113.158 157.319 113.093 157.46 113.084C157.6 113.075 157.739 113.121 157.845 113.214L159.169 114.371L159.117 114.397C159.027 114.442 158.95 114.509 158.892 114.591C158.834 114.673 158.797 114.768 158.784 114.868C158.772 114.967 158.784 115.069 158.819 115.163C158.855 115.257 158.913 115.34 158.989 115.407L161.927 117.974C162.005 118.032 162.096 118.07 162.192 118.086C162.289 118.102 162.387 118.095 162.48 118.066C162.572 118.037 162.655 117.988 162.724 117.921C162.792 117.854 162.844 117.771 162.875 117.681L162.894 117.626L164.261 118.821C164.367 118.914 164.432 119.045 164.442 119.185C164.451 119.326 164.404 119.465 164.312 119.571L152.285 133.334C152.038 133.616 151.69 133.788 151.317 133.813C150.943 133.838 150.575 133.714 150.293 133.468L144.54 128.441C144.493 128.4 144.454 128.352 144.425 128.298Z" fill="white"/>
<path d="M157.129 122.611C158.29 122.611 159.232 121.669 159.232 120.508C159.232 119.347 158.29 118.405 157.129 118.405C155.968 118.405 155.026 119.347 155.026 120.508C155.026 121.669 155.968 122.611 157.129 122.611Z" fill="#00A8FF"/>
<path d="M155.54 128.578L149.713 123.486C149.694 123.47 149.679 123.451 149.669 123.429C149.658 123.407 149.651 123.384 149.65 123.36C149.648 123.335 149.651 123.311 149.659 123.288C149.667 123.265 149.679 123.244 149.695 123.226C149.711 123.208 149.73 123.193 149.752 123.182C149.773 123.171 149.797 123.165 149.821 123.163C149.845 123.162 149.87 123.165 149.892 123.173C149.915 123.181 149.937 123.193 149.955 123.209L155.782 128.301C155.8 128.316 155.815 128.336 155.826 128.357C155.836 128.379 155.843 128.403 155.844 128.427C155.846 128.451 155.843 128.475 155.835 128.498C155.828 128.521 155.815 128.542 155.799 128.56C155.784 128.579 155.764 128.594 155.742 128.604C155.721 128.615 155.697 128.621 155.673 128.623C155.649 128.625 155.625 128.621 155.602 128.614C155.579 128.606 155.558 128.594 155.54 128.578Z" fill="white"/>
<path d="M153.038 127.494L151.121 125.82C151.085 125.787 151.062 125.742 151.059 125.693C151.056 125.645 151.072 125.597 151.104 125.56C151.136 125.523 151.181 125.501 151.23 125.497C151.279 125.494 151.327 125.51 151.363 125.542L153.28 127.217C153.317 127.249 153.339 127.295 153.343 127.343C153.346 127.392 153.33 127.44 153.298 127.477C153.265 127.514 153.22 127.536 153.171 127.539C153.123 127.543 153.075 127.526 153.038 127.494Z" fill="white"/>
<path d="M151.93 128.763L150.013 127.088C149.995 127.072 149.98 127.053 149.969 127.031C149.959 127.009 149.952 126.986 149.951 126.962C149.949 126.937 149.952 126.913 149.96 126.89C149.968 126.868 149.98 126.846 149.996 126.828C150.012 126.81 150.031 126.795 150.052 126.784C150.074 126.774 150.098 126.767 150.122 126.766C150.146 126.764 150.17 126.767 150.193 126.775C150.216 126.783 150.237 126.795 150.255 126.811L152.172 128.486C152.209 128.518 152.231 128.563 152.234 128.612C152.238 128.66 152.221 128.708 152.189 128.745C152.157 128.782 152.112 128.804 152.063 128.808C152.014 128.811 151.966 128.795 151.93 128.763Z" fill="white"/>
<path d="M151.362 129.412L149.445 127.737C149.427 127.721 149.412 127.702 149.401 127.68C149.391 127.659 149.384 127.635 149.383 127.611C149.381 127.587 149.384 127.563 149.392 127.54C149.4 127.517 149.412 127.496 149.428 127.477C149.444 127.459 149.463 127.444 149.485 127.434C149.506 127.423 149.53 127.417 149.554 127.415C149.578 127.413 149.602 127.417 149.625 127.424C149.648 127.432 149.669 127.444 149.688 127.46L151.604 129.135C151.622 129.151 151.637 129.17 151.648 129.192C151.659 129.214 151.665 129.237 151.667 129.261C151.668 129.285 151.665 129.31 151.657 129.332C151.65 129.355 151.638 129.376 151.622 129.395C151.606 129.413 151.586 129.428 151.565 129.438C151.543 129.449 151.52 129.456 151.495 129.457C151.471 129.459 151.447 129.456 151.424 129.448C151.401 129.44 151.38 129.428 151.362 129.412Z" fill="white"/>
<path d="M153.567 129.059L149.5 125.505C149.482 125.49 149.467 125.47 149.456 125.449C149.445 125.427 149.439 125.403 149.437 125.379C149.436 125.355 149.439 125.331 149.447 125.308C149.454 125.285 149.466 125.264 149.482 125.246C149.498 125.227 149.518 125.212 149.539 125.202C149.561 125.191 149.585 125.185 149.609 125.183C149.633 125.181 149.657 125.185 149.68 125.192C149.703 125.2 149.724 125.212 149.742 125.228L153.809 128.782C153.827 128.798 153.842 128.817 153.852 128.839C153.863 128.86 153.87 128.884 153.871 128.908C153.873 128.932 153.87 128.956 153.862 128.979C153.854 129.002 153.842 129.023 153.826 129.041C153.81 129.06 153.791 129.074 153.769 129.085C153.748 129.096 153.724 129.102 153.7 129.104C153.676 129.106 153.652 129.102 153.629 129.095C153.606 129.087 153.585 129.075 153.567 129.059Z" fill="white"/>
<path d="M149.513 130.142L148.817 129.534C148.786 129.507 148.761 129.474 148.743 129.437C148.724 129.4 148.714 129.36 148.711 129.319C148.708 129.278 148.713 129.237 148.727 129.198C148.74 129.159 148.76 129.123 148.787 129.092C148.814 129.062 148.847 129.036 148.884 129.018C148.921 129 148.961 128.989 149.002 128.986C149.043 128.983 149.084 128.989 149.123 129.002C149.162 129.015 149.198 129.036 149.229 129.063L149.925 129.671C149.987 129.725 150.025 129.803 150.031 129.885C150.037 129.968 150.009 130.05 149.954 130.112C149.9 130.175 149.823 130.213 149.74 130.218C149.657 130.224 149.576 130.197 149.513 130.142Z" fill="white"/>
<path d="M140.723 118.764C140.37 118.413 140.098 117.989 139.927 117.521C139.756 117.054 139.689 116.554 139.732 116.058C139.774 115.562 139.925 115.082 140.174 114.65C140.422 114.219 140.762 113.847 141.17 113.562L135.612 86.6608L141.608 88.5526L146.08 114.577C146.515 115.294 146.672 116.145 146.521 116.969C146.37 117.794 145.922 118.534 145.261 119.05C144.601 119.566 143.774 119.822 142.938 119.769C142.101 119.717 141.313 119.359 140.723 118.764Z" fill="#9E616A"/>
<path d="M127.875 46.8567L131.59 44.0526C131.59 44.0526 134.867 43.8206 135.447 49.7302C136.027 55.6398 139.661 78.3209 139.661 78.3209L145.346 104.648L137.477 106.375L131.389 77.9635L125.294 58.3621L127.875 46.8567Z" fill="#2F2E41"/>
<path d="M128.842 95.3388L116.719 79.7464C116.503 79.4683 116.406 79.1161 116.45 78.767C116.494 78.4178 116.674 78.1002 116.952 77.8839L134.771 64.0287C135.049 63.813 135.401 63.7165 135.75 63.7602C136.099 63.8038 136.417 63.9842 136.633 64.2618L148.757 79.8542C148.973 80.1322 149.069 80.4844 149.026 80.8336C148.982 81.1828 148.801 81.5003 148.524 81.7166L130.705 95.5718C130.427 95.7875 130.075 95.8841 129.725 95.8404C129.376 95.7967 129.059 95.6163 128.842 95.3388Z" fill="#3F3D56"/>
<path d="M129.149 93.9312L118.158 79.796C117.967 79.5491 117.881 79.2363 117.92 78.9263C117.959 78.6163 118.119 78.3344 118.365 78.1423L134.673 65.4624C134.92 65.2709 135.232 65.1852 135.542 65.224C135.852 65.2628 136.134 65.423 136.326 65.6694L147.317 79.8046C147.509 80.0514 147.594 80.3642 147.556 80.6742C147.517 80.9842 147.357 81.2662 147.11 81.4582L130.803 94.1381C130.556 94.3296 130.243 94.4154 129.933 94.3766C129.623 94.3378 129.341 94.1776 129.149 93.9312Z" fill="white"/>
<path d="M144.559 81.0469L139.014 73.9162C138.991 73.8856 138.973 73.8507 138.963 73.8134C138.953 73.7761 138.95 73.7371 138.955 73.6987C138.959 73.6603 138.972 73.6232 138.991 73.5896C139.01 73.556 139.035 73.5264 139.066 73.5027C139.097 73.4789 139.132 73.4614 139.169 73.4512C139.206 73.4409 139.245 73.4381 139.284 73.4429C139.322 73.4477 139.359 73.4601 139.393 73.4792C139.426 73.4984 139.456 73.5239 139.48 73.5545L145.024 80.6853C145.048 80.7158 145.066 80.7508 145.076 80.7881C145.086 80.8255 145.089 80.8645 145.084 80.9029C145.08 80.9414 145.067 80.9785 145.048 81.0122C145.029 81.0459 145.003 81.0755 144.973 81.0993C144.942 81.1231 144.907 81.1406 144.87 81.1508C144.832 81.1611 144.793 81.1638 144.755 81.159C144.717 81.1541 144.679 81.1417 144.646 81.1225C144.612 81.1033 144.583 81.0776 144.559 81.0469Z" fill="#E4E4E4"/>
<path d="M143.64 81.7615L138.095 74.6307C138.072 74.6001 138.054 74.5652 138.044 74.5279C138.033 74.4905 138.03 74.4515 138.035 74.413C138.04 74.3746 138.052 74.3375 138.071 74.3038C138.091 74.2701 138.116 74.2405 138.147 74.2167C138.177 74.1929 138.212 74.1754 138.25 74.1651C138.287 74.1549 138.326 74.1521 138.365 74.157C138.403 74.1618 138.44 74.1742 138.474 74.1935C138.507 74.2127 138.537 74.2384 138.561 74.269L144.105 81.3998C144.153 81.4615 144.174 81.5396 144.164 81.617C144.155 81.6944 144.115 81.7648 144.053 81.8126C143.991 81.8605 143.913 81.882 143.836 81.8724C143.758 81.8628 143.688 81.823 143.64 81.7615Z" fill="#E4E4E4"/>
<path d="M139.58 78.4363L137.177 75.3453C137.153 75.3147 137.135 75.2798 137.125 75.2424C137.114 75.2051 137.111 75.1661 137.116 75.1276C137.121 75.0892 137.133 75.052 137.152 75.0183C137.172 74.9846 137.197 74.955 137.228 74.9313C137.258 74.9075 137.293 74.89 137.331 74.8797C137.368 74.8695 137.407 74.8667 137.446 74.8716C137.484 74.8764 137.521 74.8888 137.555 74.908C137.588 74.9273 137.618 74.9529 137.642 74.9836L140.045 78.0746C140.093 78.1363 140.114 78.2145 140.105 78.292C140.095 78.3695 140.055 78.4399 139.993 78.4879C139.932 78.5358 139.853 78.5573 139.776 78.5477C139.698 78.538 139.628 78.4979 139.58 78.4363Z" fill="#E4E4E4"/>
<path d="M138.341 84.502L129.588 73.2447C129.564 73.2142 129.546 73.1793 129.536 73.1419C129.526 73.1046 129.523 73.0656 129.527 73.0271C129.532 72.9887 129.545 72.9515 129.564 72.9178C129.583 72.8841 129.608 72.8546 129.639 72.8308C129.67 72.807 129.705 72.7895 129.742 72.7792C129.779 72.769 129.818 72.7662 129.857 72.7711C129.895 72.7759 129.932 72.7883 129.966 72.8075C130 72.8268 130.029 72.8524 130.053 72.8831L138.806 84.1404C138.83 84.1709 138.847 84.2059 138.858 84.2432C138.868 84.2805 138.871 84.3196 138.866 84.358C138.861 84.3965 138.849 84.4336 138.83 84.4673C138.811 84.501 138.785 84.5306 138.755 84.5544C138.724 84.5781 138.689 84.5957 138.652 84.6059C138.614 84.6162 138.575 84.6189 138.537 84.6141C138.499 84.6092 138.461 84.5968 138.428 84.5776C138.394 84.5584 138.365 84.5327 138.341 84.502Z" fill="#E4E4E4"/>
<path d="M137.422 85.2166L128.669 73.9593C128.621 73.8976 128.6 73.8194 128.609 73.7419C128.619 73.6644 128.659 73.5939 128.721 73.546C128.782 73.498 128.861 73.4765 128.938 73.4862C129.016 73.4959 129.086 73.536 129.134 73.5976L137.887 84.8549C137.911 84.8855 137.928 84.9204 137.939 84.9577C137.949 84.995 137.952 85.034 137.947 85.0724C137.942 85.1108 137.93 85.1479 137.911 85.1815C137.892 85.2151 137.866 85.2447 137.836 85.2684C137.805 85.2922 137.77 85.3097 137.733 85.3199C137.695 85.3302 137.656 85.333 137.618 85.3282C137.58 85.3234 137.543 85.311 137.509 85.2919C137.475 85.2727 137.446 85.2471 137.422 85.2166Z" fill="#E4E4E4"/>
<path d="M135.336 86.8385L126.583 75.5812C126.559 75.5507 126.541 75.5158 126.531 75.4784C126.521 75.4411 126.518 75.4021 126.523 75.3636C126.527 75.3251 126.54 75.288 126.559 75.2543C126.578 75.2206 126.604 75.191 126.634 75.1673C126.665 75.1435 126.7 75.126 126.737 75.1157C126.774 75.1055 126.813 75.1027 126.852 75.1076C126.89 75.1124 126.927 75.1248 126.961 75.144C126.995 75.1633 127.024 75.1889 127.048 75.2196L135.801 86.4769C135.825 86.5074 135.842 86.5424 135.853 86.5797C135.863 86.617 135.866 86.6559 135.861 86.6943C135.856 86.7327 135.844 86.7698 135.825 86.8035C135.806 86.8371 135.78 86.8666 135.749 86.8904C135.719 86.9142 135.684 86.9317 135.647 86.9419C135.609 86.9522 135.57 86.955 135.532 86.9501C135.494 86.9453 135.457 86.933 135.423 86.9138C135.389 86.8947 135.36 86.8691 135.336 86.8385Z" fill="#E4E4E4"/>
<path d="M134.417 87.5531L125.664 76.2958C125.616 76.2341 125.595 76.1559 125.604 76.0784C125.614 76.0009 125.654 75.9304 125.716 75.8825C125.777 75.8346 125.856 75.8131 125.933 75.8227C126.011 75.8324 126.081 75.8725 126.129 75.9341L134.882 87.1914C134.93 87.2531 134.952 87.3313 134.942 87.4088C134.932 87.4863 134.892 87.5568 134.83 87.6047C134.769 87.6527 134.69 87.6742 134.613 87.6645C134.535 87.6548 134.465 87.6147 134.417 87.5531Z" fill="#E4E4E4"/>
<path d="M132.331 89.1751L123.578 77.9177C123.554 77.8872 123.537 77.8523 123.526 77.815C123.516 77.7777 123.513 77.7387 123.518 77.7003C123.523 77.6619 123.535 77.6248 123.554 77.5912C123.573 77.5575 123.599 77.528 123.63 77.5042C123.66 77.4805 123.695 77.463 123.732 77.4527C123.77 77.4425 123.809 77.4397 123.847 77.4445C123.885 77.4493 123.922 77.4617 123.956 77.4808C123.99 77.4999 124.019 77.5255 124.043 77.5561L132.796 88.8134C132.82 88.8439 132.837 88.8789 132.848 88.9162C132.858 88.9535 132.861 88.9924 132.856 89.0308C132.851 89.0692 132.839 89.1063 132.82 89.14C132.801 89.1736 132.775 89.2031 132.744 89.2269C132.714 89.2507 132.679 89.2682 132.642 89.2784C132.604 89.2887 132.565 89.2915 132.527 89.2866C132.489 89.2818 132.452 89.2695 132.418 89.2503C132.384 89.2312 132.355 89.2056 132.331 89.1751Z" fill="#E4E4E4"/>
<path d="M131.412 89.8896L122.659 78.6323C122.635 78.6017 122.618 78.5668 122.607 78.5295C122.597 78.4922 122.594 78.4532 122.599 78.4148C122.604 78.3764 122.616 78.3393 122.635 78.3057C122.654 78.2721 122.68 78.2425 122.711 78.2188C122.741 78.195 122.776 78.1775 122.813 78.1672C122.851 78.157 122.89 78.1542 122.928 78.159C122.966 78.1638 123.004 78.1762 123.037 78.1953C123.071 78.2145 123.1 78.2401 123.124 78.2706L131.877 89.5279C131.925 89.5896 131.946 89.6677 131.936 89.7451C131.927 89.8225 131.887 89.8929 131.825 89.9407C131.763 89.9886 131.685 90.0101 131.608 90.0005C131.531 89.9909 131.46 89.951 131.412 89.8896Z" fill="#E4E4E4"/>
<path d="M146.455 103.015C146.522 103.015 146.576 102.961 146.576 102.894C146.576 102.827 146.522 102.773 146.455 102.773C146.388 102.773 146.334 102.827 146.334 102.894C146.334 102.961 146.388 103.015 146.455 103.015Z" fill="white"/>
<path d="M155.247 134.702H154.378V126.874C154.378 124.068 153.263 121.376 151.278 119.391C149.294 117.407 146.602 116.292 143.796 116.292C140.989 116.292 138.298 117.407 136.313 119.391C134.329 121.376 133.214 124.068 133.214 126.874V134.702H132.344V126.874C132.344 123.837 133.551 120.924 135.698 118.776C137.846 116.629 140.759 115.422 143.796 115.422C146.833 115.422 149.746 116.629 151.893 118.776C154.041 120.924 155.247 123.837 155.247 126.874V134.702Z" fill="#2F2E41"/>
<path d="M168.192 127.605C167.904 126.362 167.202 125.255 166.202 124.464C165.201 123.673 163.962 123.245 162.687 123.25H123.252C121.901 123.254 120.595 123.74 119.57 124.621C118.545 125.501 117.867 126.719 117.66 128.054C117.068 132.175 116.873 136.342 117.077 140.5C117.144 142.101 117.262 143.743 117.433 145.429C117.544 146.53 117.675 147.651 117.828 148.792C118.015 150.147 118.685 151.39 119.715 152.29C120.746 153.19 122.066 153.688 123.435 153.691H162.611C163.897 153.697 165.146 153.262 166.15 152.459C167.154 151.655 167.853 150.532 168.128 149.276C168.418 147.989 168.658 146.706 168.847 145.429C169.094 143.795 169.258 142.15 169.34 140.5C169.564 136.169 169.177 131.828 168.192 127.605Z" fill="#00A8FF"/>
<path d="M155.247 132.238H154.378V124.41C154.378 121.603 153.263 118.912 151.278 116.927C149.294 114.943 146.602 113.828 143.796 113.828C140.989 113.828 138.298 114.943 136.313 116.927C134.329 118.912 133.214 121.603 133.214 124.41V132.238H132.344V124.41C132.344 121.373 133.551 118.46 135.698 116.312C137.846 114.165 140.759 112.958 143.796 112.958C146.833 112.958 149.746 114.165 151.893 116.312C154.041 118.46 155.247 121.373 155.247 124.41V132.238Z" fill="#2F2E41"/>
<path d="M144.53 125.448L143.08 122.937C142.945 122.686 142.738 122.481 142.486 122.35C142.233 122.218 141.947 122.166 141.664 122.2C141.381 122.234 141.115 122.352 140.901 122.539C140.686 122.727 140.533 122.974 140.462 123.25V126.149C140.462 126.418 140.569 126.676 140.759 126.867C140.949 127.057 141.207 127.164 141.476 127.164C141.745 127.164 142.004 127.057 142.194 126.867C142.384 126.676 142.491 126.418 142.491 126.149V125.976L142.772 126.462C142.907 126.695 143.128 126.866 143.388 126.935C143.648 127.005 143.925 126.968 144.158 126.834C144.391 126.699 144.561 126.478 144.631 126.218C144.701 125.958 144.664 125.681 144.53 125.448Z" fill="#2F2E41"/>
<path d="M133.069 133.977C134.029 133.977 134.808 133.198 134.808 132.238C134.808 131.277 134.029 130.498 133.069 130.498C132.108 130.498 131.329 131.277 131.329 132.238C131.329 133.198 132.108 133.977 133.069 133.977Z" fill="#2F2E41"/>
<path d="M154.668 134.122C155.628 134.122 156.407 133.343 156.407 132.382C156.407 131.422 155.628 130.643 154.668 130.643C153.707 130.643 152.928 131.422 152.928 132.382C152.928 133.343 153.707 134.122 154.668 134.122Z" fill="#2F2E41"/>
<path d="M169.34 140.5C169.258 142.15 169.094 143.795 168.847 145.429H117.434C117.262 143.741 117.144 142.099 117.077 140.5H169.34Z" fill="#3F3D56"/>
<path d="M19.5702 167.14C20.5611 159.172 25.4992 151.321 33.0983 148.728C30.1014 156.93 30.1021 165.927 33.1001 174.128C34.2678 177.286 35.8955 180.678 34.7971 183.861C34.1137 185.842 32.4419 187.357 30.5731 188.305C28.7042 189.252 26.6302 189.704 24.5821 190.147L24.179 190.48C20.9277 183.138 18.5792 175.108 19.5702 167.14Z" fill="#E6E6E6"/>
<path d="M33.1738 148.879C28.7485 153.837 25.998 160.064 25.313 166.675C25.1403 168.095 25.1926 169.534 25.4679 170.939C25.7803 172.298 26.451 173.549 27.4103 174.561C28.2858 175.523 29.2927 176.405 29.9191 177.563C30.231 178.161 30.413 178.817 30.4533 179.49C30.4935 180.163 30.3911 180.837 30.1528 181.467C29.5997 183.053 28.5097 184.346 27.3997 185.574C26.1674 186.936 24.8657 188.332 24.3419 190.139C24.2784 190.358 23.9425 190.247 24.0058 190.028C24.9172 186.885 27.9685 185.099 29.4236 182.268C30.1026 180.947 30.3876 179.414 29.7511 178.019C29.1944 176.8 28.1569 175.889 27.262 174.923C26.3117 173.949 25.6143 172.757 25.2308 171.451C24.8848 170.066 24.7772 168.631 24.9126 167.209C25.1661 164.004 25.9222 160.858 27.1531 157.887C28.539 154.488 30.4961 151.352 32.9396 148.614C33.0909 148.444 33.3241 148.711 33.1738 148.879Z" fill="white"/>
<path d="M25.4083 164.533C24.3147 164.268 23.3512 163.622 22.6897 162.712C22.0282 161.802 21.7118 160.686 21.7971 159.564C21.8151 159.337 22.1687 159.354 22.1506 159.581C22.0693 160.626 22.3641 161.665 22.9818 162.512C23.5995 163.358 24.4995 163.956 25.5192 164.197C25.7408 164.25 25.6285 164.586 25.4083 164.533Z" fill="white"/>
<path d="M26.9022 174.132C28.8772 172.952 30.3352 171.072 30.9854 168.865C31.0497 168.647 31.3856 168.758 31.3215 168.976C30.6405 171.271 29.1193 173.225 27.0613 174.448C26.8651 174.564 26.707 174.247 26.9022 174.132Z" fill="white"/>
<path d="M28.8673 154.824C29.269 155.015 29.7118 155.103 30.156 155.08C30.6002 155.058 31.0318 154.925 31.4121 154.694C31.6068 154.576 31.7647 154.892 31.5713 155.011C31.1499 155.263 30.6731 155.409 30.1824 155.435C29.6917 155.461 29.2021 155.367 28.7564 155.16C28.7127 155.144 28.6768 155.112 28.6559 155.07C28.635 155.029 28.6307 154.981 28.6438 154.936C28.6587 154.892 28.6906 154.855 28.7324 154.834C28.7743 154.813 28.8228 154.809 28.8673 154.824Z" fill="white"/>
<path d="M56.2614 162.96C56.142 163.038 56.0225 163.115 55.9029 163.196C54.3026 164.249 52.7903 165.429 51.3811 166.726C51.2706 166.825 51.1601 166.927 51.0526 167.028C47.6909 170.19 44.9454 173.948 42.9556 178.112C42.1654 179.769 41.5024 181.485 40.9724 183.243C40.2406 185.671 39.6403 188.362 38.1917 190.348C38.0429 190.557 37.8813 190.757 37.7078 190.946H24.617C24.5872 190.931 24.5573 190.919 24.5274 190.904L24.0048 190.928C24.0258 190.835 24.0495 190.74 24.0705 190.647C24.0825 190.593 24.0974 190.54 24.1093 190.486C24.1182 190.45 24.1273 190.414 24.1332 190.381C24.1362 190.369 24.1392 190.357 24.1421 190.348C24.1481 190.316 24.1572 190.286 24.1631 190.256C24.2945 189.721 24.4299 189.187 24.5693 188.652C24.5693 188.649 24.5693 188.649 24.5722 188.646C25.6445 184.575 27.0662 180.558 29.0523 176.884C29.1121 176.774 29.1717 176.66 29.2375 176.55C30.142 174.899 31.1798 173.325 32.3408 171.843C32.9791 171.033 33.6579 170.257 34.3747 169.516C36.2306 167.606 38.3754 165.999 40.7304 164.755C45.4256 162.276 50.8614 161.326 55.8792 162.841C56.0075 162.88 56.1331 162.918 56.2614 162.96Z" fill="#E6E6E6"/>
<path d="M56.2321 163.126C49.7133 164.421 43.7683 167.737 39.2413 172.603C38.2481 173.633 37.4236 174.813 36.798 176.1C36.2291 177.374 36.0115 178.776 36.168 180.162C36.2879 181.457 36.5605 182.768 36.3635 184.07C36.2527 184.734 36.0027 185.368 35.6298 185.93C35.2569 186.491 34.7695 186.967 34.1996 187.327C32.803 188.261 31.1542 188.637 29.529 188.949C27.7246 189.295 25.8449 189.626 24.3389 190.753C24.1564 190.889 23.9552 190.598 24.1374 190.462C26.7575 188.501 30.2687 188.912 33.1351 187.528C34.4726 186.882 35.6235 185.829 35.9548 184.332C36.2445 183.024 35.9646 181.672 35.8318 180.361C35.6594 179.012 35.8201 177.64 36.2999 176.367C36.8579 175.052 37.6356 173.842 38.5997 172.788C40.7323 170.381 43.23 168.325 46.0015 166.694C49.1542 164.815 52.6051 163.489 56.2049 162.773C56.4277 162.729 56.4534 163.082 56.2321 163.126Z" fill="white"/>
<path d="M40.6066 170.95C39.8934 170.08 39.5127 168.984 39.5326 167.859C39.5525 166.734 39.9717 165.653 40.7154 164.808C40.8664 164.638 41.1383 164.864 40.987 165.035C40.2931 165.82 39.9027 166.827 39.8863 167.875C39.8699 168.923 40.2286 169.942 40.8976 170.749C41.0427 170.924 40.751 171.124 40.6066 170.95Z" fill="white"/>
<path d="M36.0206 179.513C38.3076 179.761 40.6038 179.137 42.4515 177.767C42.6344 177.631 42.8357 177.922 42.6529 178.058C40.7276 179.48 38.3367 180.124 35.9574 179.861C35.7306 179.836 35.7951 179.488 36.0206 179.513Z" fill="white"/>
<path d="M49.2145 165.28C49.4203 165.674 49.7208 166.011 50.089 166.261C50.4573 166.51 50.8817 166.664 51.3242 166.709C51.5511 166.731 51.4864 167.079 51.2609 167.057C50.7723 167.005 50.3038 166.835 49.8963 166.56C49.4889 166.285 49.1549 165.915 48.9236 165.481C48.8983 165.442 48.8889 165.395 48.8972 165.35C48.9055 165.304 48.9309 165.263 48.9683 165.235C49.0069 165.209 49.0545 165.199 49.1006 165.207C49.1467 165.215 49.1876 165.242 49.2145 165.28Z" fill="white"/>
<path d="M157.191 171.103C150.57 163.914 147.164 153.152 150.733 144.055C155.992 153.29 164.349 160.367 174.323 164.034C178.175 165.434 182.605 166.59 184.698 170.114C186 172.307 186.092 175.052 185.502 177.533C184.912 180.014 183.7 182.295 182.5 184.546L182.492 185.182C173.116 182.426 163.811 178.291 157.191 171.103Z" fill="#E6E6E6"/>
<path d="M150.932 144.104C152.056 152.114 155.675 159.567 161.276 165.403C162.459 166.681 163.837 167.764 165.358 168.613C166.866 169.392 168.555 169.753 170.25 169.659C171.832 169.602 173.443 169.361 175.012 169.691C175.812 169.871 176.565 170.219 177.221 170.71C177.878 171.202 178.423 171.827 178.821 172.545C179.859 174.306 180.202 176.335 180.469 178.332C180.765 180.548 181.038 182.855 182.304 184.763C182.457 184.994 182.089 185.218 181.936 184.988C179.734 181.669 180.476 177.43 178.992 173.852C178.299 172.182 177.099 170.711 175.303 170.205C173.732 169.763 172.07 170.01 170.469 170.081C168.817 170.197 167.162 169.908 165.647 169.237C164.088 168.468 162.672 167.44 161.458 166.196C158.68 163.438 156.353 160.261 154.562 156.781C152.496 152.821 151.123 148.536 150.502 144.112C150.463 143.839 150.894 143.832 150.932 144.104Z" fill="white"/>
<path d="M159.362 163.63C158.255 164.437 156.898 164.824 155.532 164.722C154.166 164.62 152.881 164.036 151.906 163.074C151.71 162.879 152.004 162.564 152.201 162.76C153.107 163.657 154.304 164.201 155.576 164.293C156.848 164.386 158.111 164.02 159.137 163.263C159.36 163.098 159.584 163.467 159.362 163.63Z" fill="white"/>
<path d="M169.451 169.793C169.91 167.031 169.31 164.198 167.773 161.858C167.62 161.627 167.988 161.402 168.14 161.633C169.736 164.071 170.353 167.021 169.87 169.894C169.824 170.168 169.405 170.065 169.451 169.793Z" fill="white"/>
<path d="M153.066 152.78C153.559 152.557 153.989 152.215 154.318 151.784C154.646 151.354 154.863 150.849 154.948 150.314C154.99 150.04 155.409 150.143 155.366 150.415C155.27 151.006 155.03 151.563 154.668 152.039C154.306 152.515 153.833 152.896 153.29 153.147C153.241 153.175 153.183 153.183 153.128 153.17C153.073 153.157 153.025 153.123 152.994 153.076C152.965 153.027 152.956 152.968 152.969 152.913C152.983 152.857 153.017 152.81 153.066 152.78Z" fill="white"/>
<path d="M182.172 133.739C182.15 133.911 182.128 134.083 182.109 134.257C181.827 136.571 181.734 138.905 181.83 141.234C181.835 141.414 181.842 141.597 181.852 141.776C182.144 147.385 183.474 152.892 185.776 158.015C186.694 160.053 187.766 162.018 188.982 163.893C190.661 166.483 192.688 169.157 193.393 172.065C193.47 172.368 193.528 172.675 193.567 172.984L183.269 185.142C183.232 185.158 183.197 185.176 183.16 185.192L182.771 185.696C182.702 185.604 182.632 185.507 182.562 185.414C182.522 185.361 182.483 185.305 182.443 185.252C182.417 185.215 182.39 185.178 182.365 185.147C182.356 185.135 182.347 185.123 182.341 185.113C182.315 185.082 182.295 185.05 182.272 185.021C181.878 184.478 181.488 183.932 181.102 183.382C181.099 183.379 181.099 183.379 181.098 183.374C178.161 179.176 175.549 174.696 173.699 169.961C173.644 169.819 173.585 169.674 173.534 169.526C172.713 167.388 172.067 165.185 171.604 162.941C171.354 161.712 171.167 160.471 171.043 159.222C170.729 155.996 170.924 152.74 171.621 149.575C173.012 143.264 176.406 137.469 181.76 134C181.897 133.911 182.032 133.825 182.172 133.739Z" fill="#E6E6E6"/>
<path d="M182.303 133.897C178.377 140.969 176.78 149.099 177.738 157.131C177.913 158.864 178.361 160.558 179.064 162.151C179.799 163.681 180.931 164.986 182.341 165.931C183.638 166.839 185.07 167.617 186.124 168.824C186.654 169.45 187.046 170.18 187.274 170.968C187.502 171.756 187.561 172.584 187.447 173.396C187.215 175.427 186.267 177.255 185.279 179.009C184.181 180.957 183.009 182.963 182.871 185.248C182.855 185.525 182.426 185.483 182.443 185.207C182.683 181.231 185.827 178.294 186.796 174.543C187.248 172.792 187.176 170.895 186.046 169.41C185.059 168.111 183.583 167.308 182.261 166.4C180.872 165.499 179.725 164.271 178.92 162.824C178.138 161.271 177.626 159.597 177.406 157.873C176.848 153.999 176.903 150.061 177.568 146.204C178.303 141.798 179.786 137.55 181.954 133.644C182.088 133.403 182.436 133.657 182.303 133.897Z" fill="white"/>
<path d="M177.277 154.563C175.908 154.54 174.591 154.032 173.562 153.129C172.532 152.225 171.858 150.985 171.658 149.63C171.619 149.356 172.043 149.282 172.083 149.556C172.266 150.818 172.895 151.973 173.855 152.813C174.815 153.652 176.043 154.121 177.319 154.134C177.596 154.137 177.553 154.566 177.277 154.563Z" fill="white"/>
<path d="M181.622 165.558C183.651 163.629 184.878 161.006 185.059 158.212C185.077 157.935 185.506 157.977 185.488 158.253C185.294 161.16 184.012 163.888 181.896 165.89C181.694 166.081 181.422 165.748 181.622 165.558Z" fill="white"/>
<path d="M178.783 142.108C179.311 142.227 179.86 142.213 180.381 142.067C180.903 141.922 181.38 141.649 181.769 141.273C181.969 141.08 182.241 141.414 182.043 141.606C181.61 142.019 181.083 142.32 180.508 142.482C179.932 142.644 179.325 142.663 178.741 142.537C178.685 142.53 178.634 142.501 178.598 142.458C178.562 142.414 178.544 142.358 178.547 142.302C178.553 142.245 178.581 142.193 178.625 142.157C178.669 142.12 178.726 142.103 178.783 142.108Z" fill="white"/>
<path d="M18.6182 186.104C17.4168 186.104 16.2129 186.154 15.0372 186.254L14.8661 186.268C7.06771 186.958 1.36357 190.957 1.59817 195.572L1.64352 196.406C1.67342 196.934 1.70529 197.501 1.73152 198.13C1.74573 198.44 2.16909 198.678 2.69589 198.678H194.517C208.041 198.596 221.516 198.493 234.566 198.371C237.014 198.376 239.46 198.249 241.893 197.991C245.52 197.562 248.037 196.711 249.589 195.39H249.59C251.52 193.752 251.581 191.689 251.464 189.359C251.226 184.653 250.99 179.709 250.755 174.78C250.547 170.436 250.34 166.104 250.133 161.956C250.005 159.494 249.721 157.322 247.529 155.661C245.153 153.865 240.82 152.955 234.65 152.955C234.575 152.955 234.501 152.955 234.426 152.955C215.089 153.024 195.93 159.673 186.75 169.5C185.693 170.632 184.708 171.843 183.756 173.015C182.348 174.746 180.893 176.536 179.156 178.136C178.216 179.015 177.199 179.807 176.118 180.505C176.044 180.556 175.958 180.611 175.868 180.664C175.662 180.798 175.446 180.928 175.236 181.043C174.004 181.755 172.706 182.345 171.361 182.805L171.225 182.851C171.123 182.887 171.012 182.924 170.901 182.957C170.124 183.206 169.317 183.422 168.508 183.597C165.009 184.368 161.03 184.553 156.683 184.146C152.69 183.762 148.749 182.959 144.925 181.749C140.899 180.477 137.13 178.891 133.486 177.357C131.885 176.683 130.23 175.986 128.576 175.326C128.265 175.201 127.96 175.08 127.649 174.958C125.63 174.171 123.799 173.521 122.052 172.971C117.724 171.603 113.244 170.773 108.714 170.501C103.905 170.237 99.6666 170.734 96.1204 171.973C95.1427 172.314 94.1908 172.724 93.2719 173.201C89.0716 175.382 86.4822 178.601 83.9784 181.714C80.8636 185.586 77.6428 189.591 71.2829 191.667C63.9441 194.064 53.2321 193.068 45.6533 191.336C43.2706 190.791 40.8908 190.165 38.5892 189.559C37.6596 189.314 36.7294 189.07 35.7985 188.829C33.9693 188.357 32.4722 187.995 31.0872 187.689L30.6491 187.592C30.4054 187.539 30.1615 187.486 29.9132 187.436C28.2681 187.09 26.7362 186.818 25.2276 186.605L24.8707 186.553C24.1551 186.458 23.4862 186.38 22.8297 186.314L22.5676 186.288C21.2819 186.166 19.9512 186.104 18.6182 186.104Z" fill="#F2F2F2"/>
<path d="M69.2901 66.8602C68.6845 66.4327 68.0219 65.9869 67.2808 66.0048C65.4871 66.0479 64.5201 68.6773 62.7283 68.5849C61.5856 68.5259 60.827 67.3651 59.763 66.9442C58.3779 66.3962 56.6151 67.4679 56.464 68.9498L56.6419 68.787C62.0264 70.0996 67.614 70.3578 73.0966 69.5471C71.8278 68.6515 70.5589 67.7559 69.2901 66.8602Z" fill="#F2F2F2"/>
<path d="M64.3615 106.579C63.7559 106.151 63.0933 105.706 62.3522 105.723C60.5585 105.767 59.5915 108.396 57.7997 108.304C56.657 108.245 55.8984 107.084 54.8344 106.663C53.4493 106.115 51.6865 107.187 51.5354 108.668L51.7133 108.506C57.0978 109.818 62.6854 110.076 68.168 109.266C66.8992 108.37 65.6304 107.475 64.3615 106.579Z" fill="#F2F2F2"/>
<path d="M186.276 31.7204C184.755 29.649 183.09 27.489 181.229 27.5754C176.724 27.7843 174.295 40.5248 169.795 40.0767C166.925 39.791 165.02 34.1665 162.348 32.1271C158.869 29.4721 154.442 34.6646 154.062 41.845L154.509 41.0561C167.989 47.4124 182.11 48.6709 195.836 44.7393C192.649 40.3997 189.462 36.06 186.276 31.7204Z" fill="#F2F2F2"/>
<path d="M42.4696 51.4955C49.6749 51.4955 55.5159 45.6545 55.5159 38.4493C55.5159 31.244 49.6749 25.403 42.4696 25.403C35.2644 25.403 29.4233 31.244 29.4233 38.4493C29.4233 45.6545 35.2644 51.4955 42.4696 51.4955Z" fill="#F2F2F2"/>
<path d="M108.281 17.5752C110.683 17.5752 112.63 15.6282 112.63 13.2264C112.63 10.8247 110.683 8.87769 108.281 8.87769C105.879 8.87769 103.932 10.8247 103.932 13.2264C103.932 15.6282 105.879 17.5752 108.281 17.5752Z" fill="#2F2E41"/>
<path d="M115.239 34.1005C121.323 34.1005 126.256 29.1681 126.256 23.0836C126.256 16.9992 121.323 12.0668 115.239 12.0668C109.154 12.0668 104.222 16.9992 104.222 23.0836C104.222 29.1681 109.154 34.1005 115.239 34.1005Z" fill="#2F2E41"/>
<path d="M109.567 189.327H114.751L117.218 169.332H109.567V189.327Z" fill="#9E616A"/>
<path d="M107.876 185.776L116.158 185.282V188.83L124.031 194.268C124.42 194.537 124.713 194.923 124.867 195.37C125.022 195.816 125.029 196.301 124.888 196.752C124.747 197.203 124.466 197.598 124.086 197.878C123.705 198.158 123.245 198.309 122.772 198.309H112.912L111.212 194.799L110.549 198.309H106.831L107.876 185.776Z" fill="#2F2E41"/>
<path d="M78.7693 182.785L82.9293 185.878L96.8404 171.305L90.7008 166.74L78.7693 182.785Z" fill="#9E616A"/>
<path d="M79.5304 178.926L86.4712 183.471L84.3539 186.319L87.4274 195.381C87.5792 195.829 87.584 196.313 87.4411 196.763C87.2982 197.214 87.015 197.607 86.6329 197.885C86.2508 198.163 85.7897 198.312 85.3171 198.31C84.8445 198.307 84.385 198.154 84.0058 197.872L76.0936 191.988L76.8242 188.157L74.1973 190.578L71.2141 188.36L79.5304 178.926Z" fill="#2F2E41"/>
<path d="M126.546 78.7478H106.831V97.3025H126.546V78.7478Z" fill="#9E616A"/>
<path d="M103.532 86.1624C103.532 86.1624 93.6961 94.66 98.2342 118.885L103.775 142.621L85.7061 172.596L91.4672 179.605L114.957 147.16L123.469 127.194L127.971 92.2007L103.532 86.1624Z" fill="#2F2E41"/>
<path d="M118.777 132.884L119.369 142.046L117.558 181.088L109.039 179.605L107.411 151.807L118.777 132.884Z" fill="#2F2E41"/>
<path d="M121.42 37.1497L111.908 37.5208L108.117 43.8138L99.4679 45.5022L104.631 71.6238L99.5317 90.5815L117.856 98.6006L121.934 86.3806L127.353 101.195L136.053 91.7345L128.892 73.4717L132.597 59.0646L131.764 43.9576L124.806 43.0878L121.42 37.1497Z" fill="#2F2E41"/>
<path d="M116.15 34.0978C121.095 34.0978 125.103 30.0896 125.103 25.1453C125.103 20.201 121.095 16.1929 116.15 16.1929C111.206 16.1929 107.198 20.201 107.198 25.1453C107.198 30.0896 111.206 34.0978 116.15 34.0978Z" fill="#9E616A"/>
<path d="M122.23 16.0196C120.661 15.0632 118.864 14.5459 117.027 14.5216C115.19 14.4974 113.38 14.9672 111.787 15.8819C110.194 16.7966 108.875 18.1225 107.97 19.7211C107.064 21.3198 106.605 23.1323 106.639 24.9692C111.201 26.1146 115.993 26.991 120.858 25.2432L122.007 22.4315L122.684 25.2453C124.166 25.8508 125.651 26.3632 127.136 25.2394C127.197 23.4077 126.776 21.5921 125.915 19.9741C125.054 18.3562 123.783 16.9925 122.23 16.0196Z" fill="#2F2E41"/>
<path d="M104.232 1.4212C101.225 0.042375 97.4516 0.689363 94.9477 2.85143C92.4437 5.01349 91.2534 8.5323 91.7368 11.805C92.2299 15.1436 94.2595 18.0186 96.1304 20.8274C98.0013 23.6362 99.8291 26.714 99.827 30.0889C99.8256 32.5196 98.8601 34.8506 97.1425 36.5705C95.4249 38.2905 93.0953 39.2591 90.6646 39.2639C93.5174 40.4921 96.495 41.7443 99.5976 41.5988C102.7 41.4532 105.952 39.4586 106.458 36.3941C106.823 34.186 105.74 32.0329 104.836 29.9853C103.364 26.649 102.301 23.1473 101.668 19.5561C101.366 17.8421 101.17 16.0402 101.728 14.392C102.173 13.1707 102.999 12.1246 104.084 11.4081C105.168 10.6916 106.455 10.3427 107.753 10.4127L108.778 9.49037C109.234 6.21374 107.239 2.80001 104.232 1.4212Z" fill="#2F2E41"/>
<path d="M249.969 198.613H0.845178C0.753799 198.613 0.666254 198.576 0.601733 198.511C0.537211 198.447 0.500977 198.359 0.500977 198.268C0.500977 198.176 0.537211 198.089 0.601733 198.024C0.666254 197.959 0.753799 197.923 0.845178 197.922H249.969C250.061 197.923 250.148 197.959 250.213 198.024C250.277 198.089 250.314 198.176 250.314 198.268C250.314 198.359 250.277 198.447 250.213 198.511C250.148 198.576 250.061 198.613 249.969 198.613Z" fill="#CCCCCC"/>
<path d="M99.8457 102.811H91.2895C91.0965 102.81 90.9057 102.852 90.7305 102.933C90.5553 103.014 90.3999 103.133 90.2752 103.28C89.9596 103.222 89.6348 103.239 89.3273 103.331C89.0199 103.423 88.7386 103.587 88.5066 103.808C88.2746 104.03 88.0985 104.304 87.9927 104.607C87.8869 104.909 87.8545 105.233 87.8981 105.551C87.9416 105.869 88.06 106.172 88.2434 106.435C88.4268 106.699 88.67 106.915 88.9531 107.066C89.2362 107.217 89.5511 107.299 89.8719 107.304C90.1927 107.31 90.5103 107.24 90.7987 107.099L91.7982 115.493C91.8823 115.767 92.0518 116.006 92.2818 116.176C92.5118 116.345 92.7902 116.437 93.0761 116.437H98.639C98.925 116.437 99.2033 116.345 99.4333 116.176C99.6633 116.006 99.8327 115.767 99.9168 115.493L101.124 104.541C101.185 104.341 101.199 104.129 101.164 103.923C101.129 103.717 101.045 103.522 100.921 103.354C100.797 103.185 100.635 103.049 100.448 102.954C100.261 102.86 100.055 102.811 99.8457 102.811ZM89.9142 106.725C89.5298 106.725 89.161 106.572 88.8892 106.3C88.6173 106.028 88.4646 105.66 88.4646 105.275C88.4646 104.891 88.6173 104.522 88.8892 104.25C89.161 103.978 89.5298 103.826 89.9142 103.826C89.9407 103.826 89.9653 103.832 89.9915 103.833C89.9338 104.067 89.9408 104.311 90.0117 104.541L90.624 106.531C90.4083 106.657 90.1636 106.723 89.9142 106.725Z" fill="#00A8FF"/>
<path d="M92.7351 116.445C93.0862 116.092 93.3556 115.666 93.5245 115.198C93.6933 114.729 93.7574 114.23 93.7123 113.734C93.6671 113.238 93.5138 112.759 93.2632 112.328C93.0125 111.898 92.6706 111.528 92.2615 111.245L97.6831 84.316L91.696 86.2383L87.3563 112.285C86.9253 113.004 86.7729 113.856 86.9281 114.679C87.0833 115.503 87.5352 116.241 88.1982 116.754C88.8612 117.267 89.6892 117.518 90.5254 117.461C91.3616 117.404 92.1478 117.043 92.7351 116.445Z" fill="#9E616A"/>
<path d="M103.183 48.3063L99.4678 45.5022C99.4678 45.5022 96.1908 45.2701 95.6105 51.1798C95.0301 57.0894 91.3962 79.7704 91.3962 79.7704L85.7119 106.098L93.5805 107.825L99.6688 79.413L105.763 59.8117L103.183 48.3063Z" fill="#2F2E41"/>
<path d="M135.243 72.8196C136.405 72.8196 137.346 71.8782 137.346 70.7168C137.346 69.5555 136.405 68.614 135.243 68.614C134.082 68.614 133.14 69.5555 133.14 70.7168C133.14 71.8782 134.082 72.8196 135.243 72.8196Z" fill="#00A8FF"/>
</g>
<defs>
<clipPath id="clip0_54912_28805">
<rect width="251" height="197.982" fill="white" transform="translate(0.5 0.695801)"/>
</clipPath>
</defs>
</svg>
