<svg width="135" height="96" viewBox="0 0 135 96" fill="none" xmlns="http://www.w3.org/2000/svg">
<g clip-path="url(#clip0_55379_31741)">
<path d="M26.9334 86.668C29.3861 89.9536 34.4772 90.2995 34.4772 90.2995C34.4772 90.2995 35.5919 85.3183 33.1393 82.0327C30.6867 78.7471 25.5955 78.4012 25.5955 78.4012C25.5955 78.4012 24.4808 83.3824 26.9334 86.668Z" fill="#E6E6E6"/>
<path d="M39.4269 87.9032C37.8085 90.0713 34.449 90.2994 34.449 90.2994C34.449 90.2994 33.7135 87.0125 35.3319 84.8444C36.9503 82.6764 40.3098 82.4482 40.3098 82.4482C40.3098 82.4482 41.0453 85.7351 39.4269 87.9032Z" fill="#E6E6E6"/>
<path d="M134.909 90.1412H21.9707V90.5225H134.909V90.1412Z" fill="#3F3D56"/>
<path d="M130.118 20.1984L131.102 20.6905C131.102 20.6905 136.431 34.0591 134.628 37.2577C132.824 40.4564 127.166 46.4436 127.166 46.4436L126.101 43.409L130.46 33.9552L130.118 20.1984Z" fill="#575A89"/>
<path opacity="0.1" d="M130.118 20.1984L131.102 20.6905C131.102 20.6905 136.431 34.0591 134.628 37.2577C132.824 40.4564 127.166 46.4436 127.166 46.4436L126.101 43.409L130.46 33.9552L130.118 20.1984Z" fill="black"/>
<path d="M129.052 87.0416C129.052 87.0416 130.446 90.2402 129.708 90.4863C128.97 90.7323 128.068 90.7323 127.166 90.7323C126.264 90.7323 125.198 90.4042 125.034 90.0762C124.87 89.7481 125.69 87.6157 125.69 87.6157L129.052 87.0416Z" fill="#575A89"/>
<path d="M110.276 88.6819C110.276 88.6819 111.178 91.5525 110.768 91.7165C110.358 91.8805 109.046 92.6187 108.308 92.3726C107.571 92.1266 106.423 91.5525 106.177 91.3064C105.931 91.0604 106.177 89.7481 106.177 89.7481L107.325 88.1078L110.276 88.6819Z" fill="#575A89"/>
<path d="M126.428 46.0335L127.603 46.4436C127.603 46.4436 127.904 49.2321 127.576 50.2163C127.248 51.2005 126.51 58.3359 126.92 59.8122C127.33 61.2885 127.084 63.667 127.084 63.667C127.084 63.667 129.544 71.7045 129.052 73.4269C128.56 75.1492 128.642 77.6097 129.134 78.84C129.626 80.0702 130.036 80.5623 129.79 81.5465C129.544 82.5307 129.052 83.0228 129.544 83.8429C130.036 84.6631 131.019 84.9091 130.527 85.6473C130.036 86.3854 129.544 86.9596 129.708 87.4516C129.872 87.9437 125.362 88.8459 124.952 88.1078C124.952 88.1078 126.264 86.9595 124.952 86.3034C123.64 85.6473 124.05 83.1868 124.05 83.1868C124.05 83.1868 121.754 73.7549 121.836 73.0168C121.918 72.2787 118.229 60.7964 118.229 60.7964C118.229 60.7964 112.818 77.1996 112.49 77.9378C112.162 78.6759 112.9 80.4803 112.49 80.9724C112.08 81.4645 112.654 82.6947 112.08 83.1868C111.506 83.6789 113.063 85.4833 112.08 86.1394C111.096 86.7955 110.604 88.8459 110.686 89.256C110.768 89.6661 106.586 89.174 106.586 88.5999C106.586 88.0258 106.668 87.5337 106.258 86.5495C105.848 85.5653 105.602 84.9091 105.93 84.5811C106.258 84.253 106.504 83.8429 106.176 82.6947C105.848 81.5465 106.668 78.0198 106.422 77.3637C106.176 76.7075 106.258 72.2787 106.258 72.2787C106.258 72.2787 107.078 65.7994 106.832 64.7332C106.586 63.667 106.832 63.4209 106.914 63.0108C106.996 62.6007 107.488 58.1719 107.816 57.5157C108.144 56.8596 108.554 45.6234 110.44 45.0493C112.326 44.4752 126.428 46.0335 126.428 46.0335Z" fill="#2F2E41"/>
<path d="M127.084 89.9942C127.084 89.9942 130.036 89.5021 130.2 89.9942C130.364 90.4862 130.856 94.341 129.708 94.423C128.56 94.505 126.592 94.7511 126.265 94.0129C125.937 93.2748 124.379 92.7827 124.379 92.7827C124.379 92.7827 122.083 92.1266 122.083 91.3884C122.083 90.6503 122.165 89.5021 122.575 89.42C122.985 89.338 124.625 88.4359 124.625 88.1078C124.625 87.7797 127.084 89.9942 127.084 89.9942Z" fill="#2F2E41"/>
<path d="M108.636 91.3064C108.636 91.3064 110.768 90.6503 111.26 91.0604C111.751 91.4704 112.407 95.9813 111.26 95.8993C110.112 95.8173 107.078 96.3094 106.914 95.6533C106.75 94.9972 104.536 94.8331 104.536 94.8331C104.536 94.8331 102.159 93.6849 102.323 92.4546C102.487 91.2244 102.733 90.8143 103.716 90.7323C104.7 90.6503 105.438 89.5021 105.52 89.42C105.602 89.338 106.325 88.7385 106.415 89.4073C106.504 90.0762 107.57 91.5525 108.636 91.3064Z" fill="#2F2E41"/>
<path d="M115.36 11.8327C118.122 11.8327 120.361 9.59283 120.361 6.82975C120.361 4.06668 118.122 1.82677 115.36 1.82677C112.598 1.82677 110.358 4.06668 110.358 6.82975C110.358 9.59283 112.598 11.8327 115.36 11.8327Z" fill="#A0616A"/>
<path d="M119.705 7.97797C119.705 7.97797 120.033 13.4731 121.263 13.9651C122.493 14.4572 115.031 14.4572 115.031 14.4572C115.031 14.4572 114.949 11.0126 113.884 10.1924C112.818 9.37225 119.705 7.97797 119.705 7.97797Z" fill="#A0616A"/>
<path d="M121.673 12.7349C121.673 12.7349 116.589 10.8485 114.785 13.8011C114.785 13.8011 109.046 16.5077 108.636 18.148C108.226 19.7883 112.08 32.0907 112.08 32.0907C112.08 32.0907 112.08 42.2607 111.26 43.3269C110.44 44.3932 108.882 45.5414 109.948 45.7874C111.014 46.0335 127.74 47.8378 127.658 46.7716C127.576 45.7054 126.51 44.8032 127.658 44.1471C128.806 43.491 127.822 42.7528 128.56 40.6204C129.298 38.488 131.101 20.8545 131.101 20.8545C131.101 20.8545 129.872 18.6401 129.626 18.394C129.38 18.148 121.673 12.7349 121.673 12.7349Z" fill="#575A89"/>
<path d="M106.996 48.658C106.996 48.658 103.799 55.8754 106.586 56.8596C109.374 57.8438 109.21 49.2321 109.21 49.2321L106.996 48.658Z" fill="#A0616A"/>
<path d="M117.758 7.7602C117.468 7.17912 117.034 6.50877 116.386 6.54416C116.058 6.56205 115.776 6.76607 115.483 6.91584C115.191 7.06561 114.817 7.15845 114.55 6.96758C114.159 6.68839 114.28 6.0262 113.931 5.69683C113.549 5.33727 112.782 5.53802 112.536 5.07509C112.404 4.8279 112.51 4.52121 112.453 4.24717C112.054 4.28128 111.652 4.23457 111.271 4.10983C110.901 3.95974 110.581 3.61198 110.591 3.21257C110.602 3.0765 110.64 2.944 110.703 2.82284C110.766 2.70169 110.852 2.5943 110.957 2.50698C111.461 2.04854 112.191 1.96063 112.812 1.68259C113.307 1.46133 113.738 1.1165 114.224 0.87716C115.061 0.465235 116.027 0.385353 116.958 0.456469C118.368 0.564297 119.795 1.03258 120.818 2.01018C121.841 2.98778 122.382 4.53007 121.941 5.87468C121.691 6.6366 121.161 7.27702 120.866 8.0224C120.684 8.53248 120.559 9.06065 120.491 9.59772L120.283 10.8716C120.316 10.6733 119.88 10.1761 119.738 10.0578C119.426 9.79967 118.974 9.88724 118.685 9.64818C118.257 9.29458 118.01 8.26432 117.758 7.7602Z" fill="#2F2E41"/>
<path opacity="0.1" d="M110.522 17.5739L109.21 18.394C109.21 18.394 107.078 31.2706 107.324 33.0749C107.57 34.8793 106.34 45.0493 106.75 45.8695C107.16 46.6896 107.324 46.8537 107.324 47.3457C107.324 47.8378 106.176 49.6422 106.914 49.9703C107.652 50.2983 110.358 50.8724 110.358 49.9703C110.358 49.0681 109.866 47.8378 110.768 47.2637C111.67 46.6896 112.326 42.9989 112.326 42.9989C112.326 42.9989 112.736 39.2261 113.146 38.488C113.556 37.7499 114.13 35.0433 114.13 33.8951C114.13 32.7469 115.113 28.0719 114.54 25.6935C113.966 23.315 113.802 16.9177 110.522 17.5739Z" fill="black"/>
<path d="M109.948 17.3278L108.636 18.148C108.636 18.148 106.504 31.0245 106.75 32.8289C106.996 34.6332 105.766 44.8032 106.176 45.6234C106.586 46.4436 106.75 46.6076 106.75 47.0997C106.75 47.5918 105.602 49.3961 106.34 49.7242C107.078 50.0523 109.784 50.6264 109.784 49.7242C109.784 48.822 109.292 47.5918 110.194 47.0177C111.096 46.4436 111.752 42.7528 111.752 42.7528C111.752 42.7528 112.162 38.9801 112.571 38.2419C112.981 37.5038 113.555 34.7973 113.555 33.649C113.555 32.5008 114.539 27.8259 113.965 25.4474C113.391 23.0689 113.227 16.6717 109.948 17.3278Z" fill="#575A89"/>
<path d="M96.5374 0H0V48.4479H96.5374V0Z" fill="#E6E6E6"/>
<path d="M92.1043 3.94153H4.43262V44.5064H92.1043V3.94153Z" fill="white"/>
<path d="M6.15014 7.23322L5.91797 7.46546L17.6908 19.2418L21.3848 15.5467L27.8698 22.0338L35.8325 14.0686L49.3773 27.6177L55.534 21.4589L68.9966 34.9259L76.5489 27.3713L90.3882 41.2147L90.6203 40.9825L76.5489 26.9068L68.9966 34.4615L55.534 20.9946L49.3773 27.1532L35.8325 13.6042L27.8698 21.5693L21.3848 15.0822L17.6908 18.7775L6.15014 7.23322Z" fill="#B3261E"/>
<path d="M36.4067 16.0535C37.4948 16.0535 38.3768 15.1712 38.3768 14.0827C38.3768 12.9943 37.4948 12.112 36.4067 12.112C35.3186 12.112 34.4365 12.9943 34.4365 14.0827C34.4365 15.1712 35.3186 16.0535 36.4067 16.0535Z" fill="#B3261E"/>
<path d="M49.0483 29.0277C50.1364 29.0277 51.0184 28.1454 51.0184 27.0569C51.0184 25.9685 50.1364 25.0862 49.0483 25.0862C47.9602 25.0862 47.0781 25.9685 47.0781 27.0569C47.0781 28.1454 47.9602 29.0277 49.0483 29.0277Z" fill="#B3261E"/>
<path d="M76.4662 29.0277C77.5543 29.0277 78.4364 28.1454 78.4364 27.0569C78.4364 25.9685 77.5543 25.0862 76.4662 25.0862C75.3782 25.0862 74.4961 25.9685 74.4961 27.0569C74.4961 28.1454 75.3782 29.0277 76.4662 29.0277Z" fill="#B3261E"/>
</g>
<defs>
<clipPath id="clip0_55379_31741">
<rect width="135" height="96" fill="white"/>
</clipPath>
</defs>
</svg>
