<svg width="747" height="583" viewBox="0 0 747 583" fill="none" xmlns="http://www.w3.org/2000/svg">
<g clip-path="url(#clip0_55572_6033)">
<path d="M538.883 107.939H484.172V20.301L538.883 37.8286V107.939Z" fill="#2F2E41"/>
<path d="M548.604 552.904L537.313 553.172L531.02 502.254L547.682 501.858L548.604 552.904Z" fill="#A0616A"/>
<path d="M509.864 576.55C509.864 578.464 511.218 580.016 512.888 580.016H535.299C535.299 580.016 537.504 571.117 546.496 567.288L547.117 580.016H558.678L557.277 559.549C557.277 559.549 560.369 548.599 553.947 543.002C547.524 537.404 552.726 538.184 552.726 538.184L550.199 525.516L532.729 527.578L532.601 547.463L524.123 567.201L511.688 573.368C510.581 573.916 509.864 575.167 509.864 576.55Z" fill="#2F2E41"/>
<path d="M490.736 552.904L479.445 553.172L473.151 502.254L489.814 501.858L490.736 552.904Z" fill="#A0616A"/>
<path d="M451.996 576.549C451.996 578.464 453.35 580.016 455.019 580.016H477.43C477.43 580.016 479.636 571.117 488.628 567.287L489.248 580.016H500.809L499.409 559.549C499.409 559.549 502.501 548.599 496.079 543.002C489.656 537.404 494.858 538.184 494.858 538.184L492.331 525.516L474.861 527.578L474.733 547.463L466.255 567.201L453.82 573.367C452.713 573.916 451.996 575.167 451.996 576.549Z" fill="#2F2E41"/>
<path d="M542.38 203.757L470.207 246.992L453.91 313.596L462.059 519.254H497.797L505.712 321.192L521.555 519.254H557.852L567.033 296.838C569.561 280.674 567.566 264.123 561.269 249.031L542.38 203.757Z" fill="#2F2E41"/>
<path d="M526.079 71.7152L495.813 69.3782L487.664 85.7373L464.383 91.5799L458.562 164.027C470.077 194.056 477.305 222.752 470.203 246.991L558.673 242.317L543.902 202.225C543.902 202.225 543.54 187.398 551.689 167.533C559.837 147.668 547.032 96.2539 547.032 96.2539L528.407 91.5799L526.079 71.7152Z" fill="#00A8FF"/>
<path d="M322.292 99.8973C325.239 99.989 327.963 99.4049 330.105 98.3585L358.124 101.012L358.992 87.5913L330.475 86.3447C328.402 85.1672 325.72 84.415 322.773 84.3233C316.04 84.1139 310.475 87.4305 310.342 91.7311C310.21 96.0318 315.56 99.6879 322.292 99.8973Z" fill="#A0616A"/>
<path d="M488.04 140.867C488.04 140.867 487.051 98.1137 477.709 91.6965C473.856 89.0501 414.619 88.4489 412.462 88.2244C399.153 86.8399 389.683 81.5361 378.477 80.9547C351.17 79.538 337.365 86.1899 337.365 86.1899L336.883 99.9163L488.04 140.867Z" fill="#00A8FF"/>
<path d="M508.37 68.2706C521.717 68.2706 532.537 57.4094 532.537 44.0115C532.537 30.6136 521.717 19.7524 508.37 19.7524C495.023 19.7524 484.203 30.6136 484.203 44.0115C484.203 57.4094 495.023 68.2706 508.37 68.2706Z" fill="#A0616A"/>
<path d="M501.043 7.88835C495.844 11.1776 492.037 8.82267 488.325 10.4815C481.07 13.7226 468.823 36.4871 469.927 46.0176C471.491 59.5154 476.434 60.0712 476.286 69.7552C476.049 85.3056 474.819 85.2411 477.991 90.6708C481.52 96.7099 501.505 95.0702 505.216 86.8807C505.948 85.2651 497.817 85.9005 488.833 64.7043C484.325 54.068 487.285 44.3759 488.833 40.1656C489.196 39.1799 489.361 32.1819 490.135 32.9585C496.919 39.7684 500.722 34.7904 504.818 34.2192C513.225 33.0468 519.556 39.855 522.107 37.4108C524.005 35.592 521.584 30.783 522.504 30.4291C523.486 30.0518 526.736 35.3273 528.863 41.0013C530.235 44.6604 530.921 46.4899 530.85 48.5814C530.631 55.0403 528.991 73.3531 526.084 78.7264C519.806 90.33 527.711 94.7083 532.639 93.8624C536.621 93.179 554.222 95.8697 555.186 93.917C556.044 92.1774 554.083 74.2834 552.023 57.6478C549.547 37.6528 539.624 19.2785 524.064 6.54998C523.151 5.80354 522.471 5.2914 522.107 5.09572C521.245 4.63222 512.359 0.00064805 505.812 3.69939C503.402 5.06104 503.794 6.14733 501.043 7.88835Z" fill="#2F2E41"/>
<path d="M199.153 571.842L185.744 571.841L179.365 519.924L199.155 519.925L199.153 571.842Z" fill="#FFB6B6"/>
<path d="M153.21 571.537C152.793 572.243 152.572 574.521 152.572 575.342C152.572 577.865 154.61 579.91 157.123 579.91H198.649C200.363 579.91 201.753 578.515 201.753 576.793V575.058C201.753 575.058 203.808 569.842 199.578 563.413C199.578 563.413 194.322 568.447 186.467 560.563L184.151 556.351L167.385 568.66L158.092 569.808C156.059 570.059 154.256 569.769 153.21 571.537Z" fill="#2F2E41"/>
<path d="M255.689 571.842L242.28 571.841L235.901 519.924L255.691 519.925L255.689 571.842Z" fill="#FFB6B6"/>
<path d="M209.746 571.537C209.329 572.243 209.108 574.521 209.108 575.342C209.108 577.865 211.146 579.91 213.659 579.91H255.185C256.899 579.91 258.289 578.515 258.289 576.793V575.058C258.289 575.058 260.344 569.842 256.114 563.413C256.114 563.413 250.858 568.447 243.004 560.563L240.687 556.351L223.921 568.66L214.628 569.808C212.595 570.059 210.792 569.769 209.746 571.537Z" fill="#2F2E41"/>
<path d="M258.345 244.064L159.977 242.929L149.801 307.622L174.676 531.212H207.287L214.814 322.944L228.382 535.185H261.773L277.001 293.435L258.345 244.064Z" fill="#2F2E41"/>
<path d="M675.371 562.925C677.706 563.072 678.997 560.159 677.23 558.461L677.054 557.76C677.077 557.703 677.101 557.647 677.124 557.591C679.486 551.937 687.492 551.976 689.834 557.639C691.913 562.664 694.56 567.699 695.212 573.013C695.504 575.359 695.372 577.748 694.854 580.05C699.725 569.369 702.288 557.706 702.288 545.977C702.288 543.03 702.127 540.083 701.799 537.144C701.529 534.739 701.156 532.35 700.674 529.982C698.067 517.183 692.422 504.992 684.279 494.809C680.365 492.662 677.101 489.304 675.129 485.28C674.421 483.828 673.865 482.267 673.603 480.676C674.048 480.735 675.282 473.924 674.946 473.507C675.567 472.561 676.678 472.091 677.356 471.168C680.728 466.579 685.374 467.38 687.799 473.617C692.98 476.241 693.03 480.594 689.851 484.781C687.829 487.445 687.551 491.049 685.776 493.9C685.959 494.135 686.149 494.362 686.331 494.597C689.679 498.907 692.575 503.54 695.016 508.408C694.326 502.998 695.345 496.481 697.081 492.28C699.058 487.494 702.763 483.463 706.025 479.325C709.944 474.354 717.98 476.523 718.671 482.824C718.678 482.885 718.684 482.946 718.69 483.007C718.206 483.281 717.731 483.573 717.267 483.881C714.622 485.637 715.536 489.753 718.671 490.239L718.742 490.25C718.566 492.002 718.267 493.739 717.829 495.447C722.014 511.695 712.978 517.613 700.076 517.879C699.791 518.026 699.513 518.172 699.228 518.312C700.536 522.006 701.58 525.796 702.354 529.637C703.048 533.031 703.53 536.462 703.8 539.908C704.136 544.255 704.107 548.624 703.741 552.963L703.763 552.81C704.691 548.03 707.276 543.566 711.03 540.472C716.622 535.861 724.522 534.163 730.554 530.457C733.458 528.673 737.18 530.978 736.673 534.358L736.648 534.52C735.75 534.886 734.874 535.311 734.026 535.788C733.542 536.062 733.067 536.354 732.603 536.662C729.958 538.418 730.872 542.534 734.007 543.02L734.078 543.03C734.129 543.038 734.172 543.045 734.223 543.053C732.683 546.725 730.536 550.134 727.848 553.073C725.231 567.257 713.991 568.603 701.967 564.473H701.96C700.645 570.22 698.724 575.835 696.256 581.186H675.881C675.808 580.959 675.742 580.725 675.677 580.497C677.561 580.615 679.459 580.505 681.314 580.16C679.803 578.298 678.291 576.422 676.779 574.56C676.743 574.523 676.714 574.486 676.684 574.45C675.918 573.497 675.143 572.551 674.377 571.598L674.376 571.597C674.328 568.671 674.678 565.755 675.371 562.925Z" fill="#F2F2F2"/>
<path d="M0 581.649C0 582.399 0.599289 583 1.34557 583H745.655C746.401 583 747 582.399 747 581.649C747 580.9 746.401 580.299 745.655 580.299H1.34557C0.599289 580.299 0 580.9 0 581.649Z" fill="#CCCCCC"/>
<path d="M224.99 74.3851H189.98L183.156 88.0048L149.801 103.381L161.673 191.287L152.627 249.171H265.619L255.518 182.208L269.086 101.624L231.774 86.8698L224.99 74.3851Z" fill="#E6E6E6"/>
<path d="M342.185 287.4C340.658 284.273 339.961 281.059 340.04 278.246L323.619 249.378L337.532 241.937L352.691 272.021C354.954 273.682 357.058 276.203 358.585 279.33C362.073 286.474 361.23 294.072 356.701 296.3C352.172 298.529 345.673 294.544 342.185 287.4Z" fill="#FFB6B6"/>
<path d="M233.943 97.7508C233.943 97.7508 245.02 86.3098 257.447 94.2715C269.873 102.233 315.205 183.706 315.205 183.706L350.173 253.748L325.491 265.291L295.712 198.22L233.175 130.665L233.943 97.7508Z" fill="#E6E6E6"/>
<path d="M206.003 67.7463C223.463 67.7463 237.617 53.5383 237.617 36.0118C237.617 18.4853 223.463 4.27731 206.003 4.27731C188.543 4.27731 174.389 18.4853 174.389 36.0118C174.389 53.5383 188.543 67.7463 206.003 67.7463Z" fill="#FFB6B6"/>
<path d="M196.084 61.5521C196.23 64.6611 196.303 66.2156 195.828 66.4035C194.395 66.969 175.951 56.0348 173.779 48.7561C172.766 45.3613 173.622 45.2936 172.882 35.6355C172.175 26.3982 171.382 26.3246 172.32 24.0393C173.361 21.4992 176.543 18.3697 182.906 12.1105C185.312 9.74393 186.515 8.56061 187.274 7.94881C189.575 6.09453 198.149 -0.813287 206.011 0.0791778C209.307 0.453277 208.744 1.77402 221.055 8.47564C222.115 9.05286 223.537 9.81484 225.501 10.6897C230.277 12.8175 233.24 13.3691 234.8 13.9624C244.253 17.5586 241.479 37.5906 240.667 37.7054C240.371 37.7473 240.29 35.1497 238.739 34.9349C237.343 34.7416 236.453 36.7141 235.184 36.7859C231.718 36.9819 235.567 33.6515 227.085 29.9525C223.787 28.5145 232.963 34.9981 224.228 34.8929C210.568 34.7283 219.304 35.601 214.117 38.3363C210.334 40.3312 195.115 29.353 195.733 32.861C196.169 35.3352 197.958 36.0476 197.7 38.8194C197.45 41.5048 195.439 44.3992 193.666 44.5056C192.031 44.6036 191.136 42.301 190.59 42.5214C189.997 42.7611 190.649 45.6504 191.928 48.6189C193.551 52.3875 194.52 52.417 195.376 55.3154C195.869 56.9825 195.941 58.5057 196.084 61.5521Z" fill="#2F2E41"/>
<path d="M445.253 278.082L241.554 226.058C228.533 222.732 220.635 209.393 223.948 196.322L249.289 96.3409C252.602 83.27 265.891 75.3415 278.912 78.6671L482.611 130.691C495.633 134.016 503.531 147.356 500.218 160.427L474.877 260.408C471.564 273.479 458.275 281.407 445.253 278.082Z" fill="white"/>
<path d="M445.252 278.082L241.553 226.058C235.042 224.395 229.812 220.229 226.076 214.704C220.64 206.667 219.222 196.547 221.608 187.132L242.859 103.291C245.245 93.8765 251.309 85.668 259.91 81.2153C265.822 78.155 272.4 77.0042 278.911 78.667L482.61 130.691C495.652 134.022 503.535 147.335 500.216 160.427L474.875 260.408C471.562 273.479 458.273 281.407 445.252 278.082ZM278.353 80.8669C266.521 77.8451 269.614 88.6016 266.603 100.478C251.916 158.424 282.294 218.331 337.618 240.487C367.483 252.446 392.324 262.222 392.324 262.222C433.695 272.788 475.766 247.688 486.292 206.159L498.025 159.867C501.035 147.99 493.884 135.912 482.052 132.891L278.353 80.8669Z" fill="#3F3D56"/>
<path d="M373.663 159.655C372.243 147.942 361.633 139.601 349.964 141.026C338.406 142.437 330.15 152.901 331.374 164.482L331.035 164.524L336.176 206.942L375.06 202.194C376.288 202.26 377.539 202.227 378.803 202.073C390.472 200.648 398.781 189.997 397.361 178.284C395.942 166.571 385.332 158.23 373.663 159.655Z" fill="#00A8FF"/>
<path d="M299.13 560.362C297.483 556.103 292.708 553.989 288.464 555.643C284.261 557.28 282.158 561.998 283.719 566.227L283.596 566.275L289.56 581.701L303.701 576.192C304.168 576.1 304.634 575.967 305.094 575.788C309.338 574.135 311.443 569.342 309.796 565.082C308.149 560.822 303.374 558.709 299.13 560.362Z" fill="#E6E6E6"/>
<path d="M615.716 560.362C614.069 556.102 609.294 553.989 605.05 555.642C600.847 557.28 598.744 561.998 600.305 566.227L600.182 566.275L606.146 581.701L620.287 576.192C620.754 576.1 621.22 575.967 621.68 575.788C625.924 574.135 628.029 569.342 626.382 565.082C624.735 560.822 619.96 558.709 615.716 560.362Z" fill="#E6E6E6"/>
<path d="M356.969 281.912C371.956 281.912 384.105 269.716 384.105 254.672C384.105 239.628 371.956 227.433 356.969 227.433C341.982 227.433 329.833 239.628 329.833 254.672C329.833 269.716 341.982 281.912 356.969 281.912Z" fill="#00A8FF"/>
<path d="M233.611 144.202C230.699 146.095 227.603 147.172 224.812 147.427L198.209 167.225L189.194 154.242L217.151 135.558C218.524 133.105 220.768 130.708 223.68 128.815C230.332 124.489 237.947 124.426 240.69 128.676C243.432 132.925 240.263 139.876 233.611 144.202Z" fill="#FFB6B6"/>
<path d="M171.301 98.0033C171.301 98.0033 150.949 95.7334 147.557 103.678C144.165 111.623 137.381 191.071 137.381 191.071L148.688 210.366L222.836 154.034L207.82 138.962L176.042 154.034L171.301 98.0033Z" fill="#E6E6E6"/>
<path d="M466.084 123.675C468.502 126.172 471.282 127.914 473.947 128.787L495.489 154.034L507.157 143.393L484.048 118.928C483.254 116.23 481.597 113.391 479.179 110.894C473.654 105.19 466.244 103.427 462.627 106.956C459.011 110.486 460.559 117.971 466.084 123.675Z" fill="#A0616A"/>
<path d="M537.077 92.5659C537.077 92.5659 557.421 94.9026 558.965 103.406C560.51 111.91 549.497 190.879 549.497 190.879L534.194 207.162L474.405 135.669L492.388 124.332L520.024 146.13L537.077 92.5659Z" fill="#00A8FF"/>
<path d="M262.759 184.255C272.129 184.255 279.724 176.63 279.724 167.225C279.724 157.82 272.129 150.195 262.759 150.195C253.389 150.195 245.794 157.82 245.794 167.225C245.794 176.63 253.389 184.255 262.759 184.255Z" fill="#E6E6E6"/>
</g>
<defs>
<clipPath id="clip0_55572_6033">
<rect width="747" height="583" fill="white"/>
</clipPath>
</defs>
</svg>
