<svg width="252" height="175" viewBox="0 0 252 175" fill="none" xmlns="http://www.w3.org/2000/svg">
<g clip-path="url(#clip0_54912_28508)">
<path d="M210.22 26.8736L190.857 27.0623C189.947 22.5803 186.889 10.8202 189.643 7.61257C189.768 6.40529 190.355 5.29295 191.279 4.50711C192.204 3.72127 193.396 3.32248 194.608 3.39376C197.609 -1.30552 202.607 -0.599953 205.986 2.33495C209.386 3.50858 210.668 5.59361 210.22 8.42308C212.738 10.628 213.202 13.3105 212.072 16.3641L210.22 26.8736Z" fill="#2F2E41"/>
<path d="M208.356 38.8054L194.386 36.8705L191.592 32.7858C195.441 30.232 196.803 26.6651 195.031 21.8213L204.702 21.6064C204.249 25.9198 205.675 29.2595 209.645 31.2808L208.356 38.8054Z" fill="#FFB9B9"/>
<path d="M191.083 164.85L190.549 172.155C190.525 172.485 190.572 172.817 190.686 173.128C190.801 173.439 190.981 173.722 191.214 173.958C191.446 174.194 191.727 174.377 192.037 174.496C192.346 174.614 192.677 174.665 193.008 174.645L196.759 174.418C196.933 174.408 197.102 174.359 197.255 174.275C197.408 174.192 197.541 174.076 197.643 173.935C197.746 173.795 197.817 173.634 197.851 173.463C197.884 173.292 197.88 173.115 197.838 172.947L195.755 164.616L191.083 164.85Z" fill="#E6E6E6"/>
<path d="M203.227 164.616L201.145 172.947C201.102 173.115 201.098 173.292 201.131 173.463C201.165 173.634 201.236 173.795 201.339 173.935C201.442 174.076 201.574 174.192 201.727 174.275C201.88 174.359 202.049 174.408 202.223 174.418L205.974 174.645C206.305 174.665 206.636 174.614 206.945 174.496C207.255 174.377 207.536 174.194 207.768 173.958C208.001 173.722 208.181 173.439 208.296 173.128C208.41 172.817 208.457 172.485 208.433 172.154L207.899 164.85L203.227 164.616Z" fill="#E6E6E6"/>
<path d="M208.141 165.864L203.079 165.356L198.04 111.472L196.135 165.182L191.162 165.004L182.781 90.6176H214.803L208.141 165.864Z" fill="#00A8FF"/>
<path d="M200.404 25.2612C205.745 25.2612 210.075 20.9297 210.075 15.5867C210.075 10.2436 205.745 5.91219 200.404 5.91219C195.063 5.91219 190.733 10.2436 190.733 15.5867C190.733 20.9297 195.063 25.2612 200.404 25.2612Z" fill="#FFB9B9"/>
<path d="M219.531 92.3376L180.417 92.7676C186.221 70.6618 189.694 50.1274 183.64 36.0106L193.312 31.2809C197.975 36.1464 203.168 35.6448 208.786 30.8509L218.027 33.2157C216.444 51.7278 217.154 71.5543 219.531 92.3376Z" fill="#00A8FF"/>
<path d="M169.671 69.5488L193.956 79.2233L199.386 80.8208C199.629 80.8922 199.884 80.9139 200.135 80.8843C200.386 80.8548 200.629 80.7747 200.849 80.6489C201.069 80.5231 201.261 80.3542 201.414 80.1523C201.566 79.9503 201.677 79.7196 201.738 79.4739C201.846 79.0432 201.797 78.5882 201.602 78.1897C201.406 77.7911 201.075 77.4749 200.669 77.2969L195.031 75.5685L178.052 65.679L181.599 56.327L174.184 52.3497L169.671 69.5488Z" fill="#FFB9B9"/>
<path d="M169.885 51.9197C174.506 53.723 178.181 56.8004 181.061 60.9493L190.088 47.835L183.64 36.0106L169.885 51.9197Z" fill="#00A8FF"/>
<path d="M211.304 14.0187C207.379 13.007 203.519 12.8681 199.768 14.1514C197.378 15.3092 194.508 15.2025 191.317 14.2486V4.59631L208.547 5.05594L211.304 14.0187Z" fill="#2F2E41"/>
<path d="M193.876 58.2768C193.116 58.2776 192.388 58.5798 191.851 59.117C191.314 59.6541 191.012 60.3824 191.011 61.1421L192.142 84.8176C192.143 85.5773 192.445 86.3056 192.982 86.8428C193.519 87.3799 194.247 87.6821 195.006 87.6829H207.933C208.692 87.6821 209.42 87.3799 209.957 86.8428C210.494 86.3056 210.796 85.5773 210.797 84.8176L211.928 61.1421C211.927 60.3824 211.625 59.6541 211.088 59.117C210.551 58.5798 209.823 58.2776 209.064 58.2768H193.876Z" fill="#3F3D56"/>
<path d="M230.552 67.7603L209.384 76.1919L207.787 76.8281C207.736 76.8479 207.685 76.8649 207.632 76.8818L202.281 78.4568C201.597 78.6575 200.65 77.7357 200.096 77.0995C199.822 76.7929 199.666 76.3982 199.658 75.9868C199.65 75.5755 199.789 75.1747 200.051 74.8573C200.125 74.7721 200.206 74.6935 200.294 74.6226C200.5 74.4621 200.743 74.3552 201 74.3116L206.346 73.2598C206.537 73.2221 206.722 73.1534 206.891 73.0562L209.384 71.6029L222.327 64.0647C222.687 63.8554 222.961 63.5251 223.1 63.1326C223.239 62.7401 223.235 62.3109 223.087 61.9214L220.617 55.404C220.465 55.0053 220.464 54.5649 220.613 54.1653C220.763 53.7657 221.052 53.4341 221.428 53.2325L225.521 51.0383C225.755 50.9128 226.014 50.8419 226.279 50.8311C226.545 50.8203 226.809 50.8698 227.052 50.976C227.295 51.0822 227.511 51.2422 227.684 51.444C227.856 51.6458 227.981 51.8842 228.048 52.1411L231.601 65.6792C231.71 66.0943 231.664 66.5351 231.471 66.9185C231.278 67.3018 230.951 67.6012 230.552 67.7603Z" fill="#FFB9B9"/>
<path d="M231.782 49.5549C227.161 51.3581 223.486 54.4356 220.606 58.5844L211.579 45.4701L218.027 33.2157L231.782 49.5549Z" fill="#00A8FF"/>
<path d="M206.84 24.1975C202.609 25.9579 198.173 25.8864 193.555 24.1975C194.899 21.9032 192.89 20.1064 191.859 17.7904L209.101 17.2778C207.783 19.2898 205.837 21.6668 206.84 24.1975Z" fill="white"/>
<path d="M208.919 17.6606L208.719 17.4607L209.001 17.178L210.69 15.2066L210.905 15.3904L209.209 17.3697L208.919 17.6606Z" fill="white"/>
<path d="M190.678 16.4623L190.497 16.6797L192.193 18.0934L192.374 17.8761L190.678 16.4623Z" fill="white"/>
<path d="M209.406 19.323L206.437 23.9879L206.676 24.1398L209.644 19.4748L209.406 19.323Z" fill="white"/>
<path d="M190.989 19.3226L190.751 19.4744L193.719 24.1398L193.957 23.988L190.989 19.3226Z" fill="white"/>
<path d="M209.949 71.2029V76.3254L208.167 77.0355C208.11 77.0576 208.053 77.0765 207.993 77.0955L202.02 78.8534C201.257 79.0775 200.2 78.0486 199.582 77.3385C199.275 76.9963 199.102 76.5556 199.093 76.0964C199.083 75.6372 199.239 75.1899 199.531 74.8356C199.614 74.7405 199.704 74.6528 199.802 74.5737C200.033 74.3945 200.304 74.2752 200.591 74.2265L206.558 73.0524C206.772 73.0104 206.977 72.9336 207.167 72.8251L209.949 71.2029Z" fill="white"/>
<path d="M212.533 52.9316H211.511C211.511 38.48 208.537 28.4089 205.638 28.4089L205.383 27.3871C207.982 27.3871 209.64 31.5787 210.572 35.095C211.837 39.862 212.533 46.1965 212.533 52.9316Z" fill="#3F3D56"/>
<path d="M189.04 49.3554H188.018C188.018 36.12 191.013 27.898 195.424 27.898L195.168 28.9198C192.118 28.9198 189.04 35.2387 189.04 49.3554Z" fill="#3F3D56"/>
<path d="M212.022 55.7415C213.432 55.7415 214.576 54.5978 214.576 53.187C214.576 51.7763 213.432 50.6326 212.022 50.6326C210.612 50.6326 209.469 51.7763 209.469 53.187C209.469 54.5978 210.612 55.7415 212.022 55.7415Z" fill="#3F3D56"/>
<path d="M184.954 55.4861H183.932C183.932 51.8239 185.994 48.8445 188.529 48.8445V49.8663C186.558 49.8663 184.954 52.3873 184.954 55.4861Z" fill="#3F3D56"/>
<path d="M193.125 55.4861H192.104C192.104 52.3873 190.5 49.8663 188.529 49.8663V48.8445C191.063 48.8445 193.125 51.8239 193.125 55.4861Z" fill="#3F3D56"/>
<path d="M192.615 56.7633C193.179 56.7633 193.636 56.3058 193.636 55.7415C193.636 55.1772 193.179 54.7197 192.615 54.7197C192.051 54.7197 191.593 55.1772 191.593 55.7415C191.593 56.3058 192.051 56.7633 192.615 56.7633Z" fill="#3F3D56"/>
<path d="M184.443 56.7633C185.007 56.7633 185.465 56.3058 185.465 55.7415C185.465 55.1772 185.007 54.7197 184.443 54.7197C183.879 54.7197 183.422 55.1772 183.422 55.7415C183.422 56.3058 183.879 56.7633 184.443 56.7633Z" fill="#3F3D56"/>
<path d="M61.3479 21.4036L43.4087 24.4425C42.9656 24.5181 42.5101 24.4266 42.1305 24.1857C41.7509 23.9447 41.4741 23.5715 41.3538 23.1382C40.0577 18.4588 37.3479 12.3544 39.9788 9.29C40.1129 8.00083 40.7388 6.81302 41.7263 5.97387C42.7138 5.13472 43.9867 4.70887 45.2802 4.78498C48.4849 -0.233108 53.8228 0.520326 57.4305 3.65434C61.0613 4.90759 62.4302 7.13407 61.9515 10.1555C63.5201 11.5289 64.3424 13.076 64.5158 14.7739C64.5981 15.7188 64.4779 16.6704 64.1633 17.5651C63.8487 18.4599 63.347 19.2772 62.6916 19.9626L61.3479 21.4036Z" fill="#2F2E41"/>
<path d="M58.5589 35.5313L44.652 34.7129C46.0149 31.5838 46.5593 28.5705 46.0154 25.7114H56.3774C56.3539 27.9066 57.446 31.704 58.5589 35.5313Z" fill="#9F616A"/>
<path d="M41.8188 164.078L41.2484 171.878C41.2226 172.231 41.2726 172.586 41.3949 172.918C41.5173 173.25 41.7093 173.552 41.958 173.804C42.2066 174.056 42.5063 174.252 42.8368 174.378C43.1673 174.505 43.5211 174.559 43.8743 174.538L47.8797 174.295C48.0652 174.284 48.2461 174.232 48.4093 174.143C48.5725 174.054 48.7141 173.93 48.824 173.78C48.934 173.63 49.0095 173.457 49.0453 173.275C49.0811 173.092 49.0763 172.904 49.0312 172.724L46.808 163.828L41.8188 164.078Z" fill="#E6E6E6"/>
<path d="M54.7857 163.828L52.5625 172.724C52.5174 172.904 52.5126 173.092 52.5484 173.275C52.5842 173.457 52.6597 173.63 52.7697 173.78C52.8796 173.93 53.0212 174.054 53.1844 174.143C53.3476 174.232 53.5285 174.284 53.714 174.295L57.7193 174.538C58.0726 174.559 58.4264 174.505 58.7569 174.378C59.0874 174.252 59.3871 174.056 59.6357 173.804C59.8844 173.552 60.0764 173.25 60.1988 172.918C60.3211 172.586 60.3711 172.231 60.3453 171.878L59.7749 164.078L54.7857 163.828Z" fill="#E6E6E6"/>
<path d="M60.0333 165.16L54.6284 164.618L49.2471 107.078L47.2134 164.432L41.9031 164.242L32.9528 84.8096H67.1478L60.0333 165.16Z" fill="#00A8FF"/>
<path d="M51.4697 29.0227C57.1734 29.0227 61.7971 24.3974 61.7971 18.6919C61.7971 12.9863 57.1734 8.36107 51.4697 8.36107C45.7661 8.36107 41.1423 12.9863 41.1423 18.6919C41.1423 24.3974 45.7661 29.0227 51.4697 29.0227Z" fill="#9F616A"/>
<path d="M63.1091 13.7567C58.9176 13.0265 54.7965 12.9262 50.7905 13.8525C48.2386 14.6881 45.174 14.6111 41.7659 13.9226V6.95592L60.1652 7.28766L63.1091 13.7567Z" fill="#2F2E41"/>
<path d="M58.3426 26.981C53.8247 28.8609 49.0874 28.7846 44.1565 26.981C45.5913 24.5311 43.4465 22.6124 42.3455 20.1393L60.7573 19.592C59.3493 21.7404 57.2717 24.2787 58.3426 26.981Z" fill="white"/>
<path d="M41.0778 18.7285L40.8967 18.9458L42.7076 20.4554L42.8887 20.2381L41.0778 18.7285Z" fill="white"/>
<path d="M61.091 21.7807L57.921 26.7622L58.1595 26.9141L61.3295 21.9326L61.091 21.7807Z" fill="white"/>
<path d="M41.4079 21.7805L41.1694 21.9324L44.3387 26.9143L44.5772 26.7625L41.4079 21.7805Z" fill="white"/>
<path d="M31.8358 65.8092L23.928 60.8993L30.672 41.1409C31.4241 39.1021 32.8648 37.3903 34.745 36.3014L37.0168 34.9857L37.2143 54.9182L31.8358 65.8092Z" fill="#00A8FF"/>
<path d="M66.0169 75.4053L64.847 65.3811C64.7845 60.09 65.6843 54.9746 67.83 50.2611L68.9207 35.5312L56.9227 30.6213C56.8859 30.8659 56.8546 31.1103 56.8195 31.3548L51.1963 34.1674L45.7122 32.9206L45.7426 31.1669L34.8353 36.0768C38.4423 52.8519 36.475 70.2721 30.2721 90.8483L44.6415 94.7788L44.761 87.8767L57.5673 86.9616C57.6992 89.2009 57.8052 91.4005 57.8667 93.5513C65.0929 96.2125 65.3411 96.1684 71.9251 92.358C69.3031 86.8435 67.2271 81.1051 66.0169 75.4053Z" fill="#00A8FF"/>
<path d="M84.4637 63.3541L77.1014 60.8993L65.3247 47.185L68.9207 35.5314L85.2818 58.4444L84.4637 63.3541Z" fill="#00A8FF"/>
<path d="M61.3899 73.9715C61.5104 74.5004 61.8356 74.9598 62.2942 75.2492C62.7528 75.5385 63.3074 75.6341 63.8364 75.5151L70.0861 74.0993L69.1829 70.1087L62.933 71.5243C62.404 71.6442 61.9442 71.9694 61.6549 72.4283C61.3655 72.8872 61.2702 73.4423 61.3899 73.9715Z" fill="#E6E6E6"/>
<path d="M67.012 69.3553L70.5569 75.9019C76.5193 74.2383 81.6867 68.994 86.6452 62.8087L85.2818 58.4443L76.8286 60.6265L67.012 69.3553Z" fill="#00A8FF"/>
<path d="M20.792 48.8201L27.5973 50.0357L43.1522 72.1601L34.8887 70.2151L20.792 48.8201Z" fill="#E6E6E6"/>
<path d="M19.585 48.5493C19.4813 48.5509 19.3799 48.5803 19.2915 48.6345C19.203 48.6886 19.1307 48.7656 19.0822 48.8573C19.0337 48.9489 19.0106 49.052 19.0155 49.1556C19.0204 49.2593 19.0531 49.3597 19.1101 49.4464L33.6498 71.514C33.7309 71.6374 33.8562 71.725 34 71.7587L40.7649 73.3509C40.8789 73.3777 40.9985 73.3693 41.1076 73.3266C41.2167 73.2839 41.3103 73.2091 41.376 73.112C41.4416 73.0149 41.4762 72.9001 41.4751 72.7829C41.474 72.6657 41.4373 72.5516 41.3699 72.4557L25.4062 49.7498C25.3629 49.6879 25.3078 49.6352 25.2441 49.5946C25.1805 49.554 25.1094 49.5264 25.0351 49.5134L19.694 48.5592C19.6581 48.5527 19.6216 48.5494 19.585 48.5493Z" fill="#3F3D56"/>
<path d="M28.6549 64.3275L29.059 68.3991L35.4357 67.7659C35.9754 67.7123 36.4718 67.4465 36.8156 67.0268C37.1593 66.6071 37.3224 66.068 37.2688 65.5281C37.2153 64.9881 36.9495 64.4916 36.5299 64.1477C36.1104 63.8038 35.5714 63.6407 35.0317 63.6943L28.6549 64.3275Z" fill="#E6E6E6"/>
<path d="M23.11 63.8558C23.1192 65.2442 23.6767 66.5726 24.6608 67.5516C25.6449 68.5306 26.9759 69.0809 28.3638 69.0825H29.4123L30.1757 62.7191L23.8553 60.443L23.11 63.8558Z" fill="#00A8FF"/>
<path d="M60.2536 20.2959L60.0537 20.096L60.3556 19.794L62.1592 17.6884L62.3738 17.8722L60.5628 19.9857L60.2536 20.2959Z" fill="white"/>
<path d="M251.5 174.205H0.5V174.77H251.5V174.205Z" fill="#3F3D56"/>
<path d="M96.3209 173.922H155.679V101.901C155.679 98.087 151.924 94.9845 147.308 94.9845H104.692C100.076 94.9845 96.3209 98.087 96.3209 101.901V173.922Z" fill="#E6E6E6"/>
<path d="M100.844 170.944H151.157V109.897C151.157 106.665 147.974 104.035 144.061 104.035H107.939C104.026 104.035 100.844 106.665 100.844 109.897V170.944Z" fill="white"/>
<path d="M95.8725 89.3794C94.4054 89.3794 93.2117 90.3657 93.2117 91.5779V97.9239C93.2117 99.1361 94.4054 100.122 95.8725 100.122H156.128C157.595 100.122 158.788 99.1361 158.788 97.9239V91.5779C158.788 90.3657 157.595 89.3794 156.128 89.3794H95.8725Z" fill="#3F3D56"/>
<path d="M108.244 163.116C107.555 163.118 106.895 163.393 106.408 163.88C105.921 164.367 105.646 165.027 105.644 165.716C105.646 166.406 105.921 167.066 106.408 167.553C106.895 168.04 107.555 168.315 108.244 168.317H113.109V163.116H108.244Z" fill="#3F3D56"/>
<path d="M117.575 163.116H112.843V168.317H117.575C118.264 168.315 118.924 168.04 119.411 167.553C119.898 167.066 120.173 166.406 120.175 165.716C120.173 165.027 119.898 164.367 119.411 163.88C118.924 163.393 118.264 163.118 117.575 163.116Z" fill="#00A8FF"/>
<path opacity="0.2" d="M119.271 163.753C119.681 164.223 119.908 164.826 119.908 165.45C119.906 166.139 119.632 166.799 119.145 167.286C118.657 167.773 117.997 168.048 117.309 168.05H112.843V168.317H117.575C118.264 168.315 118.924 168.04 119.411 167.553C119.898 167.066 120.173 166.406 120.175 165.716C120.174 165.343 120.093 164.975 119.937 164.636C119.781 164.297 119.554 163.996 119.271 163.753Z" fill="black"/>
<path d="M130.201 123.948C129.727 123.448 129.074 123.156 128.386 123.135C127.697 123.115 127.029 123.368 126.526 123.839C126.026 124.313 125.734 124.966 125.714 125.655C125.694 126.343 125.947 127.012 126.418 127.515L129.755 131.057L133.538 127.489L130.201 123.948Z" fill="#3F3D56"/>
<path d="M136.602 130.74L133.355 127.295L129.572 130.863L132.818 134.308C133.292 134.808 133.945 135.1 134.633 135.12C135.322 135.14 135.99 134.887 136.493 134.416C136.993 133.942 137.285 133.289 137.305 132.6C137.326 131.912 137.073 131.243 136.602 130.74Z" fill="#00A8FF"/>
<path opacity="0.2" d="M137.302 132.412C137.241 133.033 136.958 133.611 136.504 134.039C136.002 134.51 135.333 134.763 134.644 134.743C133.956 134.723 133.303 134.43 132.83 133.93L129.766 130.68L129.572 130.863L132.818 134.308C133.292 134.808 133.945 135.1 134.633 135.12C135.322 135.14 135.99 134.887 136.493 134.416C136.764 134.16 136.976 133.848 137.116 133.502C137.256 133.156 137.319 132.784 137.302 132.412Z" fill="black"/>
<path d="M116.35 132.147C115.877 131.647 115.224 131.355 114.536 131.335C113.847 131.315 113.178 131.568 112.676 132.039C112.176 132.513 111.884 133.166 111.864 133.854C111.843 134.543 112.096 135.212 112.567 135.715L115.905 139.257L119.688 135.689L116.35 132.147Z" fill="#3F3D56"/>
<path d="M122.751 138.94L119.505 135.495L115.722 139.063L118.968 142.507C119.442 143.007 120.095 143.299 120.783 143.32C121.472 143.34 122.14 143.087 122.643 142.616C123.143 142.142 123.435 141.489 123.455 140.8C123.475 140.112 123.222 139.443 122.751 138.94Z" fill="#00A8FF"/>
<path opacity="0.2" d="M123.452 140.611C123.391 141.232 123.107 141.81 122.654 142.239C122.151 142.71 121.483 142.963 120.794 142.943C120.106 142.922 119.453 142.63 118.979 142.13L115.916 138.88L115.722 139.063L118.968 142.507C119.442 143.007 120.095 143.299 120.783 143.32C121.472 143.34 122.14 143.087 122.643 142.616C122.914 142.36 123.126 142.048 123.266 141.702C123.405 141.356 123.469 140.984 123.452 140.611Z" fill="black"/>
<path d="M130.201 139.782C129.727 139.282 129.074 138.99 128.386 138.969C127.697 138.949 127.029 139.202 126.526 139.673C126.026 140.147 125.734 140.8 125.714 141.489C125.694 142.177 125.947 142.846 126.418 143.349L129.755 146.891L133.538 143.324L130.201 139.782Z" fill="#3F3D56"/>
<path d="M136.602 146.574L133.355 143.129L129.572 146.697L132.818 150.142C133.292 150.642 133.945 150.934 134.633 150.954C135.322 150.974 135.99 150.721 136.493 150.25C136.993 149.776 137.285 149.123 137.305 148.435C137.326 147.746 137.073 147.077 136.602 146.574Z" fill="#00A8FF"/>
<path opacity="0.2" d="M137.302 148.246C137.241 148.867 136.958 149.445 136.504 149.873C136.002 150.344 135.333 150.597 134.644 150.577C133.956 150.557 133.303 150.265 132.83 149.765L129.766 146.514L129.572 146.697L132.818 150.142C133.292 150.642 133.945 150.934 134.633 150.954C135.322 150.974 135.99 150.721 136.493 150.25C136.764 149.994 136.976 149.682 137.116 149.336C137.256 148.99 137.319 148.618 137.302 148.246Z" fill="black"/>
<path d="M138.65 156.031C139.144 155.55 139.428 154.894 139.44 154.205C139.452 153.516 139.191 152.851 138.714 152.354C138.234 151.859 137.578 151.575 136.889 151.563C136.2 151.551 135.535 151.813 135.038 152.29L131.538 155.671L135.15 159.412L138.65 156.031Z" fill="#3F3D56"/>
<path d="M131.938 162.516L135.342 159.227L131.73 155.486L128.326 158.775C127.832 159.255 127.548 159.911 127.536 160.6C127.524 161.289 127.785 161.955 128.262 162.452C128.742 162.946 129.398 163.23 130.087 163.242C130.776 163.254 131.441 162.993 131.938 162.516Z" fill="#00A8FF"/>
<path opacity="0.2" d="M130.276 163.236C129.654 163.183 129.073 162.907 128.639 162.458C128.162 161.961 127.901 161.296 127.913 160.607C127.925 159.918 128.209 159.262 128.703 158.781L131.915 155.678L131.73 155.486L128.326 158.775C127.832 159.255 127.548 159.911 127.536 160.6C127.524 161.289 127.785 161.955 128.262 162.452C128.522 162.72 128.836 162.928 129.183 163.064C129.531 163.199 129.903 163.258 130.276 163.236Z" fill="black"/>
<path d="M119.995 147.831C120.489 147.351 120.773 146.694 120.785 146.006C120.797 145.317 120.536 144.651 120.058 144.154C119.578 143.66 118.922 143.376 118.234 143.364C117.545 143.352 116.88 143.613 116.383 144.09L112.883 147.472L116.495 151.212L119.995 147.831Z" fill="#3F3D56"/>
<path d="M113.283 154.316L116.687 151.027L113.075 147.286L109.671 150.575C109.177 151.055 108.893 151.711 108.881 152.4C108.869 153.089 109.13 153.755 109.607 154.252C110.087 154.746 110.743 155.03 111.432 155.042C112.12 155.054 112.786 154.793 113.283 154.316Z" fill="#00A8FF"/>
<path opacity="0.2" d="M111.62 155.037C110.999 154.983 110.418 154.707 109.984 154.259C109.507 153.762 109.246 153.096 109.258 152.407C109.27 151.718 109.554 151.062 110.048 150.582L113.26 147.478L113.075 147.286L109.671 150.575C109.177 151.055 108.893 151.711 108.881 152.4C108.869 153.089 109.13 153.755 109.607 154.252C109.866 154.52 110.181 154.729 110.528 154.864C110.876 154.999 111.248 155.058 111.62 155.037Z" fill="black"/>
<path d="M146.564 137.935C147.059 137.454 147.343 136.798 147.354 136.109C147.366 135.42 147.105 134.755 146.628 134.258C146.148 133.763 145.492 133.479 144.804 133.467C144.115 133.455 143.449 133.716 142.953 134.194L139.453 137.575L143.065 141.316L146.564 137.935Z" fill="#3F3D56"/>
<path d="M139.852 144.42L143.256 141.131L139.645 137.39L136.241 140.679C135.747 141.159 135.463 141.815 135.451 142.504C135.439 143.193 135.7 143.859 136.177 144.356C136.657 144.85 137.313 145.134 138.001 145.146C138.69 145.158 139.356 144.897 139.852 144.42Z" fill="#00A8FF"/>
<path opacity="0.2" d="M138.19 145.14C137.569 145.087 136.988 144.811 136.554 144.362C136.077 143.865 135.816 143.2 135.828 142.511C135.84 141.822 136.124 141.165 136.618 140.685L139.83 137.582L139.645 137.39L136.241 140.679C135.747 141.159 135.463 141.815 135.451 142.504C135.439 143.193 135.7 143.859 136.177 144.356C136.436 144.624 136.75 144.832 137.098 144.968C137.445 145.103 137.818 145.162 138.19 145.14Z" fill="black"/>
<path d="M140.659 158.443C140.185 157.943 139.533 157.651 138.844 157.631C138.156 157.611 137.487 157.864 136.984 158.335C136.485 158.809 136.193 159.462 136.172 160.15C136.152 160.839 136.405 161.508 136.876 162.011L140.214 165.552L143.997 161.985L140.659 158.443Z" fill="#3F3D56"/>
<path d="M147.06 165.236L143.814 161.791L140.031 165.358L143.277 168.803C143.751 169.303 144.403 169.595 145.092 169.616C145.78 169.636 146.449 169.383 146.951 168.912C147.451 168.438 147.743 167.785 147.763 167.096C147.784 166.407 147.531 165.739 147.06 165.236Z" fill="#00A8FF"/>
<path opacity="0.2" d="M147.76 166.907C147.699 167.528 147.416 168.106 146.962 168.535C146.46 169.006 145.791 169.259 145.103 169.239C144.414 169.218 143.762 168.926 143.288 168.426L140.225 165.175L140.031 165.358L143.277 168.803C143.751 169.303 144.403 169.595 145.092 169.616C145.78 169.636 146.449 169.383 146.951 168.912C147.222 168.655 147.435 168.344 147.574 167.998C147.714 167.652 147.777 167.28 147.76 166.907Z" fill="black"/>
<path d="M122.286 158.161C121.812 157.661 121.16 157.368 120.471 157.348C119.783 157.328 119.114 157.581 118.612 158.052C118.112 158.526 117.82 159.179 117.799 159.868C117.779 160.556 118.032 161.225 118.503 161.728L121.841 165.27L125.624 161.702L122.286 158.161Z" fill="#3F3D56"/>
<path d="M128.687 164.953L125.441 161.508L121.658 165.076L124.904 168.52C125.378 169.02 126.03 169.313 126.719 169.333C127.407 169.353 128.076 169.1 128.579 168.629C129.078 168.155 129.37 167.502 129.391 166.813C129.411 166.125 129.158 165.456 128.687 164.953Z" fill="#00A8FF"/>
<path opacity="0.2" d="M129.387 166.625C129.327 167.246 129.043 167.824 128.59 168.252C128.087 168.723 127.419 168.976 126.73 168.956C126.042 168.936 125.389 168.643 124.915 168.143L121.852 164.893L121.658 165.076L124.904 168.52C125.378 169.02 126.03 169.313 126.719 169.333C127.407 169.353 128.076 169.1 128.579 168.629C128.85 168.373 129.062 168.061 129.202 167.715C129.341 167.369 129.405 166.997 129.387 166.625Z" fill="black"/>
<path d="M127.458 148.832C127.458 149.696 127.16 150.534 126.613 151.204C126.067 151.874 125.306 152.334 124.459 152.507C123.964 152.607 123.454 152.607 122.959 152.507C122.113 152.334 121.352 151.873 120.805 151.204C120.259 150.534 119.96 149.696 119.96 148.832C119.96 147.967 120.259 147.129 120.805 146.46C121.352 145.79 122.113 145.33 122.959 145.156C123.454 145.056 123.964 145.056 124.459 145.156C125.306 145.329 126.067 145.79 126.613 146.459C127.16 147.129 127.458 147.967 127.458 148.832Z" fill="#00A8FF"/>
<path opacity="0.2" d="M124.459 145.156V152.507C123.964 152.607 123.454 152.607 122.959 152.507V145.156C123.454 145.056 123.964 145.056 124.459 145.156Z" fill="black"/>
<path d="M129.154 133.846C129.154 134.71 128.856 135.548 128.309 136.218C127.763 136.888 127.002 137.348 126.155 137.521C125.66 137.621 125.15 137.621 124.655 137.521C123.808 137.348 123.047 136.888 122.501 136.218C121.954 135.548 121.656 134.71 121.656 133.846C121.656 132.981 121.954 132.143 122.501 131.474C123.047 130.804 123.808 130.344 124.655 130.171C125.15 130.071 125.66 130.071 126.155 130.171C127.002 130.344 127.763 130.804 128.309 131.474C128.856 132.143 129.154 132.981 129.154 133.846Z" fill="#00A8FF"/>
<path opacity="0.2" d="M126.155 130.171V137.521C125.66 137.621 125.15 137.621 124.655 137.521V130.171C125.15 130.071 125.66 130.071 126.155 130.171Z" fill="black"/>
<path d="M129.154 155.335C129.154 156.199 128.856 157.037 128.309 157.707C127.763 158.377 127.002 158.837 126.155 159.01C125.66 159.11 125.15 159.11 124.655 159.01C123.808 158.837 123.047 158.377 122.501 157.707C121.954 157.037 121.656 156.199 121.656 155.335C121.656 154.47 121.954 153.632 122.501 152.963C123.047 152.293 123.808 151.833 124.655 151.66C125.15 151.56 125.66 151.56 126.155 151.66C127.002 151.833 127.763 152.293 128.309 152.963C128.856 153.632 129.154 154.47 129.154 155.335Z" fill="#00A8FF"/>
<path opacity="0.2" d="M126.155 151.66V159.01C125.66 159.11 125.15 159.11 124.655 159.01V151.66C125.15 151.56 125.66 151.56 126.155 151.66Z" fill="black"/>
<path d="M138.482 165.797C138.482 166.661 138.183 167.499 137.637 168.169C137.09 168.839 136.329 169.299 135.482 169.472C134.987 169.572 134.478 169.572 133.983 169.472C133.136 169.299 132.375 168.839 131.829 168.169C131.282 167.499 130.984 166.661 130.984 165.797C130.984 164.932 131.282 164.094 131.829 163.425C132.375 162.755 133.136 162.295 133.983 162.122C134.478 162.022 134.987 162.022 135.482 162.122C136.329 162.294 137.09 162.755 137.637 163.424C138.183 164.094 138.482 164.932 138.482 165.797Z" fill="#00A8FF"/>
<path opacity="0.2" d="M135.482 162.122V169.472C134.988 169.572 134.478 169.572 133.983 169.472V162.122C134.478 162.022 134.988 162.022 135.482 162.122Z" fill="black"/>
<path d="M146.722 146.548C147.344 147.148 147.74 147.945 147.843 148.803C147.945 149.661 147.749 150.529 147.285 151.259C147.014 151.685 146.66 152.052 146.245 152.339C145.533 152.829 144.673 153.057 143.812 152.986C142.951 152.915 142.14 152.548 141.518 151.948C140.896 151.349 140.5 150.552 140.397 149.694C140.294 148.835 140.491 147.968 140.954 147.238C141.226 146.812 141.58 146.445 141.995 146.158C142.707 145.668 143.566 145.439 144.428 145.51C145.289 145.581 146.099 145.948 146.722 146.548Z" fill="#00A8FF"/>
<path opacity="0.2" d="M141.995 146.158L147.285 151.259C147.014 151.685 146.66 152.052 146.245 152.339L140.954 147.238C141.226 146.812 141.58 146.445 141.995 146.158Z" fill="black"/>
<path d="M147.852 154.748C148.475 155.348 148.871 156.144 148.973 157.003C149.076 157.861 148.879 158.729 148.416 159.459C148.145 159.884 147.791 160.252 147.375 160.539C146.663 161.028 145.804 161.257 144.943 161.186C144.081 161.115 143.271 160.748 142.649 160.148C142.027 159.548 141.631 158.752 141.528 157.893C141.425 157.035 141.622 156.168 142.085 155.438C142.356 155.012 142.71 154.645 143.126 154.358C143.838 153.868 144.697 153.639 145.558 153.71C146.42 153.781 147.23 154.148 147.852 154.748Z" fill="#00A8FF"/>
<path opacity="0.2" d="M143.126 154.358L148.416 159.459C148.145 159.884 147.791 160.252 147.375 160.539L142.085 155.438C142.356 155.012 142.71 154.645 143.126 154.358Z" fill="black"/>
<path d="M114.216 156.727C114.838 157.327 115.234 158.124 115.337 158.982C115.44 159.84 115.243 160.708 114.78 161.438C114.508 161.864 114.155 162.231 113.739 162.518C113.027 163.008 112.168 163.236 111.306 163.165C110.445 163.094 109.635 162.727 109.013 162.128C108.39 161.528 107.994 160.731 107.892 159.873C107.789 159.014 107.986 158.147 108.449 157.417C108.72 156.991 109.074 156.624 109.489 156.337C110.201 155.847 111.061 155.618 111.922 155.689C112.783 155.761 113.594 156.127 114.216 156.727Z" fill="#00A8FF"/>
<path opacity="0.2" d="M109.489 156.337L114.78 161.438C114.508 161.864 114.155 162.231 113.739 162.518L108.449 157.417C108.72 156.991 109.074 156.624 109.489 156.337Z" fill="black"/>
<path opacity="0.2" d="M102.115 89.3794H100.702V99.8412H102.115V89.3794Z" fill="black"/>
<path opacity="0.2" d="M110.312 89.3794H108.899V99.8412H110.312V89.3794Z" fill="black"/>
<path opacity="0.2" d="M118.51 89.3794H117.096V99.8412H118.51V89.3794Z" fill="black"/>
<path opacity="0.2" d="M126.707 89.3794H125.293V99.8412H126.707V89.3794Z" fill="black"/>
<path opacity="0.2" d="M134.904 89.3794H133.49V99.8412H134.904V89.3794Z" fill="black"/>
<path opacity="0.2" d="M143.101 89.3794H141.688V99.8412H143.101V89.3794Z" fill="black"/>
<path opacity="0.2" d="M151.298 89.3794H149.885V99.8412H151.298V89.3794Z" fill="black"/>
</g>
<defs>
<clipPath id="clip0_54912_28508">
<rect width="251" height="174.77" fill="white" transform="translate(0.5)"/>
</clipPath>
</defs>
</svg>
