<svg width="252" height="178" viewBox="0 0 252 178" fill="none" xmlns="http://www.w3.org/2000/svg">
<g clip-path="url(#clip0_54912_28100)">
<path opacity="0.1" d="M83.9471 177.9C96.1706 177.9 106.08 176.307 106.08 174.341C106.08 172.376 96.1706 170.782 83.9471 170.782C71.7236 170.782 61.8145 172.376 61.8145 174.341C61.8145 176.307 71.7236 177.9 83.9471 177.9Z" fill="#00A8FF"/>
<path opacity="0.1" d="M204.257 178C219.51 178 231.875 176.407 231.875 174.441C231.875 172.476 219.51 170.882 204.257 170.882C189.004 170.882 176.639 172.476 176.639 174.441C176.639 176.407 189.004 178 204.257 178Z" fill="#00A8FF"/>
<path opacity="0.1" d="M3.6436 76.9088H26.6961V108.366H5.33125C5.27447 108.689 5.21996 109.014 5.1609 109.339H26.6961V134.709C26.6575 134.697 26.6235 134.684 26.5871 134.67C25.9784 134.429 25.3742 134.174 24.77 133.901L24.3839 133.726C23.7781 133.44 23.1724 133.137 22.5667 132.817C22.3555 132.705 22.1442 132.589 21.9353 132.471C18.5726 130.585 15.5179 128.196 12.8769 125.385C12.7997 125.31 12.727 125.23 12.6497 125.158C12.2818 124.757 11.9206 124.353 11.5708 123.939L11.1847 123.484C10.7713 122.977 10.3715 122.456 9.9831 121.928C9.92632 121.851 9.8718 121.774 9.81275 121.701C8.23309 119.508 6.92147 117.134 5.90592 114.629C5.87412 114.554 5.84686 114.472 5.81734 114.401C5.5054 113.598 5.22904 112.787 4.98827 111.968C4.88379 111.625 4.78384 111.286 4.69753 110.929C4.66573 110.824 4.63847 110.722 4.61349 110.62C3.32333 105.578 3.17114 100.341 3.17114 95.14C3.17114 94.5328 3.17114 93.9234 3.17114 93.3207C3.17114 91.2172 3.19613 89.1001 3.23247 86.9852C3.23247 86.4371 3.25518 85.8914 3.26654 85.341C3.29834 83.9448 3.34377 82.5485 3.40283 81.1522C3.41646 80.7634 3.43463 80.3768 3.45507 79.9902C3.45507 79.7673 3.46643 79.5445 3.48914 79.3216C3.54365 78.512 3.58908 77.7093 3.6436 76.9088Z" fill="#00A8FF"/>
<path opacity="0.1" d="M26.6962 41.8837H14.0513C16.1068 38.6627 18.3527 35.5674 20.7769 32.6146C22.6554 30.3042 24.6383 28.0528 26.6962 25.8834V41.8837Z" fill="#00A8FF"/>
<path opacity="0.1" d="M26.6962 42.857V75.9355H3.71631C3.71631 75.84 3.73221 75.7422 3.73902 75.6467C3.75947 75.3852 3.77991 75.1237 3.80262 74.8644C3.82761 74.5597 3.85486 74.2527 3.88439 73.9548C3.91392 73.6569 3.94572 73.2931 3.97979 72.9633C4.01386 72.6336 4.04566 72.2993 4.08428 71.9695C4.12289 71.6398 4.15696 71.3101 4.19785 70.9826C4.23873 70.6551 4.27508 70.3231 4.31823 69.9957C4.3523 69.7228 4.38865 69.4522 4.42499 69.1793C4.47723 68.795 4.53174 68.4084 4.5908 68.0263C4.5908 67.9695 4.6067 67.9103 4.61579 67.8558C5.03036 65.059 5.59525 62.2867 6.30799 59.5509C7.05405 56.681 8.00675 53.869 9.15861 51.1369C10.3828 48.2788 11.8162 45.5151 13.447 42.8684L26.6962 42.857Z" fill="#00A8FF"/>
<path opacity="0.1" d="M32.1997 76.9065V108.366H81.4371V76.9065H32.1997ZM32.1997 109.337V136.353C32.4814 136.412 32.7607 136.469 33.0379 136.517C33.4149 136.589 33.7897 136.655 34.1736 136.712C34.2462 136.723 34.3212 136.735 34.4007 136.742C34.5506 136.767 34.7051 136.787 34.855 136.808C35.2343 136.86 35.6114 136.903 35.9907 136.937C36.1701 136.955 36.3518 136.971 36.5336 136.985L36.9719 137.019C37.2104 137.037 37.4467 137.051 37.6806 137.058C37.826 137.058 37.9714 137.071 38.1213 137.076C38.2348 137.076 38.3484 137.076 38.4665 137.076C38.5846 137.076 38.7527 137.076 38.8958 137.076C39.0912 137.076 39.2865 137.076 39.4796 137.076H39.7408C39.9361 137.076 40.1315 137.076 40.3245 137.058H40.3382C40.4722 137.058 40.6085 137.058 40.7448 137.04C40.7826 137.042 40.8205 137.042 40.8583 137.04C40.9719 137.04 41.0855 137.04 41.1945 137.024H41.274L42.0349 136.965C42.2848 136.942 42.5369 136.912 42.7913 136.885L43.3092 136.824C45.4161 136.528 47.4996 136.084 49.5442 135.495C54.137 134.213 58.6298 132.419 63.2204 131.104C69.1556 129.41 75.7131 128.578 81.4484 130.649V109.337H32.1997ZM81.4371 41.8837V0.00228464C76.0464 -0.0561869 70.6704 0.575048 65.4395 1.88066C52.9718 5.01659 41.7851 11.8183 32.1997 20.5052V41.8814H34.671V42.8525H32.1997V75.9355H81.4371V42.8547H44.8174V41.8837H81.4371ZM144.68 27.7368C141.595 27.6276 138.529 26.6498 135.756 25.1398C130.452 22.2517 126.216 17.7923 121.482 14.0287C111.647 6.19001 99.4494 1.45996 86.9362 0.286542V41.8837H157.225L157.4 41.6995L144.68 27.7368ZM151.083 26.5997L157.872 34.0586V24.644C155.599 24.926 153.607 25.5969 151.092 26.5906L151.083 26.5997ZM157.872 143.061V109.337H143.406C143.367 109.194 143.328 109.048 143.283 108.903C143.326 109.048 143.363 109.194 143.403 109.337H86.9453V133.726C87.4813 134.124 88.0105 134.543 88.5352 134.968C89.1008 135.423 89.6596 135.903 90.2206 136.373L90.7862 136.842C91.0565 137.069 91.3291 137.297 91.6039 137.51C92.149 137.953 92.6995 138.39 93.2552 138.82C93.5301 139.048 93.8117 139.252 94.0911 139.466C98.5265 142.861 103.205 145.925 108.09 148.633C109.185 149.239 110.289 149.831 111.404 150.409C112.147 150.789 112.894 151.166 113.643 151.532C114.77 152.083 115.906 152.613 117.051 153.124C127.605 157.867 138.765 161.122 150.213 162.796C152.756 163.172 155.308 163.467 157.87 163.682V143.059H158.097L157.872 143.061ZM86.9453 42.8547V75.9355H157.881V42.8547H86.9453ZM86.9453 76.9065V108.366H157.881V76.9065H86.9453ZM163.387 24.6031V35.1047L172.053 25.5855C169.182 25.1216 166.293 24.7903 163.387 24.5917V24.6031ZM163.387 76.9179V108.366H232.381V76.9065L163.387 76.9179ZM232.129 145.558L232.372 109.337H163.387V164.044C167.831 164.231 172.282 164.178 176.72 163.885H176.798C178.918 163.751 181.028 163.557 183.128 163.303H183.176C194.381 161.997 205.337 159.07 215.702 154.614M245.685 82.0869C245.426 81.4751 245.156 80.868 244.881 80.2676C244.368 79.1306 243.825 78.0254 243.266 76.9202H237.883V108.366H251.493C251.486 99.4607 249.235 90.3644 245.692 82.0755L245.685 82.0869ZM237.883 109.348V140.503C241.717 136.824 244.956 132.614 247.289 127.802C250.094 122.008 251.377 115.734 251.482 109.344L237.883 109.348ZM237.883 67.7512V75.9378H242.762C241.286 73.1196 239.659 70.383 237.89 67.7398L237.883 67.7512ZM191.092 30.7749C190.733 30.6385 190.374 30.4997 190.013 30.3656C186.204 28.9573 182.312 27.7862 178.358 26.859L165.098 41.4289L164.843 41.6995L165.014 41.886H212.209C205.636 37.3562 198.55 33.6226 191.099 30.7635L191.092 30.7749ZM213.592 42.8661H164.355L163.387 43.753V75.9355H171.869H171.882H232.391V60.3468C226.917 53.7192 220.599 47.8385 213.599 42.8547L213.592 42.8661Z" fill="#00A8FF"/>
<path opacity="0.1" d="M26.6962 59.5418V75.9355H3.71631C3.71631 75.84 3.73221 75.7422 3.73902 75.6467C3.75947 75.3852 3.77991 75.1237 3.80262 74.8644C3.82761 74.5597 3.85486 74.2527 3.88439 73.9548C3.91392 73.6569 3.94572 73.293 3.97979 72.9633C4.01386 72.6336 4.04566 72.2993 4.08428 71.9695C4.12289 71.6398 4.15696 71.3101 4.19785 70.9826C4.23873 70.6551 4.27508 70.3231 4.31823 69.9956C4.3523 69.7228 4.38865 69.4521 4.42499 69.1793C4.47723 68.7949 4.53174 68.4083 4.5908 68.0263C4.5908 67.9695 4.6067 67.9103 4.61579 67.8558C5.03036 65.059 5.59525 62.2867 6.30799 59.5509L26.6962 59.5418Z" fill="#00A8FF"/>
<path opacity="0.1" d="M3.6436 76.9088H26.6961V108.366H5.33125C5.27447 108.689 5.21996 109.014 5.1609 109.339H26.6961V134.709C26.6575 134.697 26.6235 134.684 26.5871 134.67C25.9784 134.429 25.3742 134.174 24.77 133.901L24.3839 133.726C23.7781 133.44 23.1724 133.137 22.5667 132.817C22.3555 132.705 22.1442 132.589 21.9353 132.471C18.5726 130.585 15.5179 128.196 12.8769 125.385C12.7997 125.31 12.727 125.23 12.6497 125.158C12.2818 124.757 11.9206 124.353 11.5708 123.939L11.1847 123.484C10.7713 122.977 10.3715 122.456 9.9831 121.928C9.92632 121.851 9.8718 121.774 9.81275 121.701C8.23309 119.508 6.92147 117.134 5.90592 114.629C5.87412 114.554 5.84686 114.472 5.81734 114.401C5.5054 113.598 5.22904 112.787 4.98827 111.968C4.88379 111.625 4.78384 111.286 4.69753 110.929C4.66573 110.824 4.63847 110.722 4.61349 110.62C3.32333 105.578 3.17114 100.341 3.17114 95.14C3.17114 94.5328 3.17114 93.9234 3.17114 93.3207C3.17114 91.2172 3.19613 89.1001 3.23247 86.9852C3.23247 86.4371 3.25518 85.8914 3.26654 85.341C3.29834 83.9448 3.34377 82.5485 3.40283 81.1522C3.41646 80.7634 3.43463 80.3768 3.45507 79.9902C3.45507 79.7673 3.46643 79.5445 3.48914 79.3216C3.54365 78.512 3.58908 77.7093 3.6436 76.9088Z" fill="#00A8FF"/>
<path opacity="0.1" d="M49.5328 47.5916V75.9355H32.1997V47.5916H34.671V37.995H44.8151V47.5916H49.5328Z" fill="#00A8FF"/>
<path opacity="0.1" d="M49.533 76.9065H32.2021V108.364H49.533V76.9065Z" fill="#00A8FF"/>
<path opacity="0.1" d="M32.1997 109.339H49.5328V135.491C47.4882 136.079 45.4047 136.522 43.2978 136.817L42.7799 136.88C42.5255 136.91 42.2734 136.935 42.0236 136.96C41.7737 136.985 41.5148 137.003 41.2626 137.019H41.1831C41.0741 137.019 40.956 137.033 40.8492 137.035H40.7334C40.5971 137.035 40.4608 137.049 40.3245 137.053C40.1315 137.065 39.9384 137.067 39.7408 137.069C39.6567 137.069 39.5773 137.069 39.4932 137.069C39.2979 137.069 39.1048 137.069 38.9095 137.069H38.4802C38.3643 137.069 38.253 137.069 38.1326 137.069L37.6943 137.053C37.4671 137.053 37.2218 137.028 36.9856 137.012L36.5495 136.98L36.0066 136.93C35.625 136.896 35.2457 136.853 34.8709 136.801L34.4166 136.737L34.1895 136.705C33.8101 136.646 33.4354 136.582 33.0538 136.51C32.7744 136.462 32.4973 136.403 32.2156 136.346L32.1997 109.339Z" fill="#00A8FF"/>
<path opacity="0.1" d="M157.882 44.2442H143.59V75.9332H157.882V44.2442Z" fill="#00A8FF"/>
<path opacity="0.1" d="M157.884 76.9065V108.366H86.9453V94.7966H124.73V102.801H143.59V76.9065H157.884Z" fill="#00A8FF"/>
<path opacity="0.1" d="M158.109 143.068H157.881V163.705C155.322 163.488 152.771 163.194 150.227 162.821C138.774 161.142 127.608 157.88 117.051 153.129C114.002 151.755 111.016 150.256 108.092 148.63C103.208 145.921 98.5283 142.858 94.0912 139.464C92.9767 138.609 91.8765 137.734 90.7908 136.839C90.039 136.219 89.2917 135.582 88.5353 134.963C88.0106 134.538 87.4814 134.12 86.9453 133.719V109.339H143.401C143.363 109.194 143.324 109.048 143.283 108.905C143.326 109.048 143.367 109.194 143.406 109.339H157.881V143.054C157.959 143.057 158.034 143.064 158.109 143.068Z" fill="#00A8FF"/>
<path opacity="0.1" d="M195.155 41.8837H185.843V38.9865H190.017V30.3565C190.379 30.4884 190.74 30.624 191.099 30.7635V38.9865H195.155V41.8837Z" fill="#00A8FF"/>
<path opacity="0.1" d="M217.592 75.9355H171.873C171.873 75.9355 171.873 75.9355 171.889 75.9469L171.869 75.9355H163.387V44.2464H165.791V67.6693H176.773V53.7975H185.845V42.857H195.158V53.8066H204.23V67.6784H217.592V75.9355Z" fill="#00A8FF"/>
<path opacity="0.1" d="M163.387 76.9065V108.366H217.592V76.9065H163.387ZM232.307 145.397L232.382 120.496H217.592V109.353H163.387V164.044C167.831 164.231 172.282 164.178 176.721 163.885H176.798C178.918 163.751 181.028 163.557 183.128 163.303H183.176C194.381 161.997 205.337 159.07 215.703 154.614" fill="#00A8FF"/>
<path opacity="0.1" d="M238.846 109.339H251.491C251.38 115.727 250.099 122.001 247.296 127.796C244.963 132.61 241.722 136.819 237.892 140.496V120.484H238.846V109.339Z" fill="#00A8FF"/>
<path opacity="0.1" d="M251.498 108.366H238.846V82.0755H245.692C249.235 90.3644 251.486 99.4607 251.498 108.366Z" fill="#00A8FF"/>
<path opacity="0.1" d="M157.884 53.0539H150.227V62.9893H157.884V53.0539Z" fill="#00A8FF"/>
<path opacity="0.1" d="M157.884 73.6478H150.227V75.9355H157.884V73.6478Z" fill="#00A8FF"/>
<path opacity="0.1" d="M157.884 76.9065H150.227V83.5809H157.884V76.9065Z" fill="#00A8FF"/>
<path opacity="0.1" d="M157.884 94.2417H150.227V104.177H157.884V94.2417Z" fill="#00A8FF"/>
<path opacity="0.1" d="M157.884 114.836H150.227V124.771H157.884V114.836Z" fill="#00A8FF"/>
<path opacity="0.1" d="M157.881 143.054C157.959 143.054 158.034 143.054 158.109 143.068H157.881V145.376H150.227V135.43H157.881V143.054Z" fill="#00A8FF"/>
<path opacity="0.1" d="M157.881 156.019V163.694C155.322 163.477 152.771 163.182 150.227 162.809V156.019H157.881Z" fill="#00A8FF"/>
<path opacity="0.1" d="M119.76 107.636H86.9453V108.366H119.76V107.636Z" fill="#00A8FF"/>
<path opacity="0.1" d="M119.76 109.337H86.9453V112.134H119.76V109.337Z" fill="#00A8FF"/>
<path opacity="0.1" d="M119.76 121.303H86.9453V125.801H119.76V121.303Z" fill="#00A8FF"/>
<path opacity="0.1" d="M119.758 134.97V139.468H94.0911C92.9766 138.616 91.8757 137.742 90.7885 136.844C90.0366 136.223 89.2916 135.586 88.533 134.97H119.758Z" fill="#00A8FF"/>
<path opacity="0.1" d="M119.758 148.635V153.129H117.048C114.003 151.754 111.018 150.253 108.092 148.628L119.758 148.635Z" fill="#00A8FF"/>
<path opacity="0.1" d="M183.183 79.9561H176.723V86.4235H183.183V79.9561Z" fill="#00A8FF"/>
<path opacity="0.1" d="M43.3139 49.8224H36.854V56.2899H43.3139V49.8224Z" fill="#00A8FF"/>
<path opacity="0.1" d="M43.3139 64.8449H36.854V71.3123H43.3139V64.8449Z" fill="#00A8FF"/>
<path opacity="0.1" d="M43.3139 79.8674H36.854V86.3348H43.3139V79.8674Z" fill="#00A8FF"/>
<path opacity="0.1" d="M43.3139 94.8875H36.854V101.355H43.3139V94.8875Z" fill="#00A8FF"/>
<path opacity="0.1" d="M43.3139 109.91H36.854V116.377H43.3139V109.91Z" fill="#00A8FF"/>
<path opacity="0.1" d="M43.3139 124.932H36.854V131.4H43.3139V124.932Z" fill="#00A8FF"/>
<path opacity="0.1" d="M207.843 79.9561H201.384V86.4235H207.843V79.9561Z" fill="#00A8FF"/>
<path opacity="0.1" d="M183.183 95.9086H176.723V102.376H183.183V95.9086Z" fill="#00A8FF"/>
<path opacity="0.1" d="M207.843 95.9086H201.384V102.376H207.843V95.9086Z" fill="#00A8FF"/>
<path opacity="0.1" d="M183.183 111.859H176.723V118.326H183.183V111.859Z" fill="#00A8FF"/>
<path opacity="0.1" d="M207.843 111.859H201.384V118.326H207.843V111.859Z" fill="#00A8FF"/>
<path opacity="0.1" d="M183.183 127.811H176.723V134.279H183.183V127.811Z" fill="#00A8FF"/>
<path opacity="0.1" d="M207.843 127.811H201.384V134.279H207.843V127.811Z" fill="#00A8FF"/>
<path opacity="0.1" d="M183.183 143.764H176.723V150.231H183.183V143.764Z" fill="#00A8FF"/>
<path opacity="0.1" d="M207.843 143.764H201.384V150.231H207.843V143.764Z" fill="#00A8FF"/>
<path opacity="0.1" d="M176.723 163.885V159.714H183.181V163.291L176.723 163.885Z" fill="#00A8FF"/>
<path opacity="0.1" d="M4.58862 67.8512V71.5511H26.6963V67.8512H4.58862ZM6.79189 71.3192H4.98839V68.0786H6.80552L6.79189 71.3192ZM8.99289 71.3192H7.17576V68.0786H8.99289V71.3192ZM11.1893 71.3192H9.37222V68.0786H11.1893V71.3192ZM13.3903 71.3192H11.5755V68.0786H13.3926L13.3903 71.3192ZM15.5891 71.3192H13.7719V68.0786H15.5891V71.3192ZM17.7901 71.3192H15.9729V68.0786H17.7901V71.3192ZM19.9911 71.3192H18.1739V68.0786H19.9911V71.3192ZM22.1898 71.3192H20.3727V68.0786H22.1898V71.3192ZM24.3885 71.3192H22.5714V68.0786H24.3885V71.3192ZM26.5872 71.3192H24.7701V68.0786H26.5872V71.3192Z" fill="#00A8FF"/>
<path opacity="0.1" d="M4.58862 78.6166V82.3165H26.6963V78.6166H4.58862ZM6.79189 82.0823H4.98839V78.8509H6.80552L6.79189 82.0823ZM8.99289 82.0823H7.17576V78.8509H8.99289V82.0823ZM11.1893 82.0823H9.37222V78.8509H11.1893V82.0823ZM13.3903 82.0823H11.5755V78.8509H13.3926L13.3903 82.0823ZM15.5891 82.0823H13.7719V78.8509H15.5891V82.0823ZM17.7901 82.0823H15.9729V78.8509H17.7901V82.0823ZM19.9911 82.0823H18.1739V78.8509H19.9911V82.0823ZM22.1898 82.0823H20.3727V78.8509H22.1898V82.0823ZM24.3885 82.0823H22.5714V78.8509H24.3885V82.0823ZM26.5872 82.0823H24.7701V78.8509H26.5872V82.0823Z" fill="#00A8FF"/>
<path opacity="0.1" d="M4.58862 89.3866V93.0933H26.6963V89.3866H4.58862ZM6.79189 92.8523H4.98839V89.6185H6.80552L6.79189 92.8523ZM8.99289 92.8523H7.17576V89.6185H8.99289V92.8523ZM11.1893 92.8523H9.37222V89.6185H11.1893V92.8523ZM13.3903 92.8523H11.5755V89.6185H13.3926L13.3903 92.8523ZM15.5891 92.8523H13.7719V89.6185H15.5891V92.8523ZM17.7901 92.8523H15.9729V89.6185H17.7901V92.8523ZM19.9911 92.8523H18.1739V89.6185H19.9911V92.8523ZM22.1898 92.8523H20.3727V89.6185H22.1898V92.8523ZM24.3885 92.8523H22.5714V89.6185H24.3885V92.8523ZM26.5872 92.8523H24.7701V89.6185H26.5872V92.8523Z" fill="#00A8FF"/>
<path opacity="0.1" d="M4.58862 100.157V103.852H26.6963V100.157H4.58862ZM6.79189 103.622H4.98839V100.386H6.80552L6.79189 103.622ZM8.99289 103.622H7.17576V100.386H8.99289V103.622ZM11.1893 103.622H9.37222V100.386H11.1893V103.622ZM13.3903 103.622H11.5755V100.386H13.3926L13.3903 103.622ZM15.5891 103.622H13.7719V100.386H15.5891V103.622ZM17.7901 103.622H15.9729V100.386H17.7901V103.622ZM19.9911 103.622H18.1739V100.386H19.9911V103.622ZM22.1898 103.622H20.3727V100.386H22.1898V103.622ZM24.3885 103.622H22.5714V100.386H24.3885V103.622ZM26.5872 103.622H24.7701V100.386H26.5872V103.622Z" fill="#00A8FF"/>
<path opacity="0.1" d="M4.68384 110.924C4.77242 111.272 4.87236 111.62 4.97685 111.963V111.156H6.79398V114.39H5.82181C5.85134 114.465 5.88087 114.547 5.9104 114.617H26.6961V110.924H4.68384ZM8.99952 114.39H7.18239V111.156H8.99952V114.39ZM11.196 114.39H9.37884V111.156H11.196V114.39ZM13.397 114.39H11.5753V111.156H13.3924L13.397 114.39ZM15.5957 114.39H13.7786V111.156H15.5957V114.39ZM17.7967 114.39H15.9796V111.156H17.7967V114.39ZM19.9977 114.39H18.1806V111.156H19.9977V114.39ZM22.1964 114.39H20.3793V111.156H22.1964V114.39ZM24.3951 114.39H22.578V111.156H24.3951V114.39ZM26.5939 114.39H24.7767V111.156H26.5939V114.39Z" fill="#00A8FF"/>
<path opacity="0.1" d="M9.81738 121.694C9.87417 121.767 9.92868 121.849 9.98774 121.922H11.1893V123.475C11.3188 123.629 11.446 123.784 11.5777 123.93V121.913H13.3949V125.158H12.6589C12.7316 125.233 12.802 125.312 12.8861 125.385H26.7031V121.694H9.81738ZM15.589 125.158H13.7719V121.926H15.589V125.158ZM17.79 125.158H15.9729V121.926H17.79V125.158ZM19.991 125.158H18.1739V121.926H19.991V125.158ZM22.1898 125.158H20.3726V121.926H22.1898V125.158ZM24.3885 125.158H22.5714V121.926H24.3885V125.158ZM26.5872 125.158H24.7701V121.926H26.5872V125.158Z" fill="#00A8FF"/>
<path opacity="0.1" d="M21.9443 132.462C22.151 132.58 22.3623 132.689 22.5758 132.808V132.694H24.3929V133.717L24.7791 133.897V132.694H26.5962V134.661C26.631 134.678 26.6676 134.692 26.7052 134.702V132.462H21.9443Z" fill="#00A8FF"/>
<path opacity="0.1" d="M143.283 108.903C143.326 109.048 143.363 109.194 143.404 109.337C143.367 109.194 143.329 109.048 143.283 108.903ZM34.6802 41.8769V42.8479H44.8266V41.8769H34.6802ZM143.283 108.903C143.326 109.048 143.363 109.194 143.404 109.337C143.367 109.194 143.329 109.048 143.283 108.903ZM143.283 108.903C143.326 109.048 143.363 109.194 143.404 109.337C143.367 109.194 143.329 109.048 143.283 108.903Z" fill="#00A8FF"/>
<path d="M105.348 86.3394C105.348 86.3394 104.453 86.2143 104.453 84.909C104.453 83.6037 103.813 81.1659 103.813 81.1659C103.813 81.1545 103.259 76.9202 102.493 76.2471C101.728 75.5739 100.744 71.6216 100.744 71.6216C100.744 71.6216 100.576 69.4772 100.233 69.0155C99.8901 68.5539 99.4267 67.4237 98.743 65.8114C98.0593 64.1991 95.2087 63.0825 95.2087 63.0825C95.2087 63.0825 90.0548 60.0898 88.5943 59.1143C88.4616 59.0341 88.3375 58.9404 88.2241 58.8346C87.9697 58.5003 86.8613 58.4935 86.8613 58.4935C86.7454 57.7612 86.6341 56.9198 86.5978 56.158C86.5978 56.0761 86.5978 55.9943 86.5864 55.9124C88.215 54.9486 89.4417 53.429 90.0412 51.6326C90.0685 51.5462 90.0912 51.4552 90.1162 51.3688C90.2138 51.3366 90.3036 51.2844 90.3798 51.2155C90.4561 51.1466 90.5172 51.0625 90.5591 50.9686C90.6908 50.6752 90.6931 50.3318 90.8567 50.059C91.0475 49.736 91.4109 49.5632 91.6971 49.3199C92.4194 48.7059 92.6056 47.6712 92.5716 46.7297C92.5489 45.9679 92.4262 45.1993 92.4739 44.442L92.4875 44.251C92.5012 44.1373 92.5171 44.0236 92.5375 43.9144C92.6488 43.3505 92.8918 42.8183 93.0281 42.2589C93.1644 41.6995 93.178 41.0696 92.86 40.5875C92.3944 39.8802 91.4245 39.7393 90.5727 39.6665C89.6074 39.5846 88.7442 39.6915 88.1264 38.8888C87.8373 38.4692 87.512 38.0758 87.1543 37.7131C87.0271 37.5948 85.7914 36.8398 85.7914 36.7898C84.5854 36.2306 83.2184 36.1256 81.9414 36.4942C81.3008 36.6806 80.6966 36.9854 80.047 37.1377C78.6456 37.4697 77.0329 37.1104 75.8426 37.9132C75.1794 38.368 74.7819 39.0911 74.4094 39.7961C74.1065 40.3768 73.7991 40.9566 73.4872 41.5358C72.9852 42.4886 72.4741 43.4573 72.2629 44.5125C72.2185 44.7421 72.1911 44.9747 72.1811 45.2084V45.2197C72.1811 45.3039 72.1811 45.388 72.1811 45.4722V45.579C72.1811 45.6586 72.1811 45.736 72.1947 45.8065C72.2084 45.8769 72.2061 45.8997 72.2129 45.9474C72.2197 45.9952 72.2311 46.1021 72.2447 46.1749C72.2583 46.2476 72.2856 46.375 72.3129 46.475C72.3242 46.5182 72.3401 46.5592 72.3537 46.6001C72.3765 46.6774 72.4037 46.7525 72.4332 46.8275C72.4491 46.8662 72.465 46.9071 72.4832 46.9458C72.5173 47.0254 72.5582 47.1027 72.5991 47.1732C72.6172 47.205 72.6309 47.2346 72.649 47.2641C72.7124 47.3699 72.7822 47.4716 72.858 47.5689C73.3441 48.176 74.0596 48.5626 74.5888 49.1311C74.5888 49.1539 74.5888 49.1766 74.5888 49.1971C74.5888 49.2608 74.5888 49.3222 74.5888 49.3858C74.6169 50.6537 74.954 51.8956 75.5707 53.0033C76.1875 54.1111 77.0653 55.0512 78.1277 55.7418C78.1277 55.8283 78.139 55.9169 78.1436 56.0034C78.1879 56.6784 78.1795 57.3558 78.1186 58.0295C78.0261 57.9205 77.9103 57.8336 77.7798 57.7754C77.6493 57.7171 77.5073 57.6889 77.3645 57.693C77.2669 57.6882 77.1691 57.6966 77.0737 57.718L77.0533 57.7021V57.7225C76.5536 57.8453 75.938 58.3661 75.3497 59.8465C75.3497 59.8465 73.5599 61.8659 72.197 61.7817C70.8342 61.6976 67.3839 63.883 67.3839 63.883C67.3839 63.883 64.0177 66.0706 63.2954 68.2992C62.8916 69.5629 62.4076 70.7995 61.8462 72.0014L57.685 80.586L56.9172 87.3968C56.9172 87.3968 57.342 90.4258 57.2579 90.8875C57.1739 91.3491 59.0047 95.5129 59.0047 95.5129C59.0047 95.5129 65.0534 106.153 67.5247 106.699L67.7019 106.574C67.8076 106.629 67.9198 106.671 68.0358 106.699L68.5446 106.34C68.5751 106.74 68.5622 107.143 68.506 107.54C68.1653 108.591 68.6332 115.447 69.2283 116.791C69.8234 118.135 69.6122 135.757 69.6122 135.757L69.5281 137.312C69.5281 137.312 69.5281 137.363 69.5486 137.449L69.5281 137.817L69.5894 137.849C69.6531 138.343 69.6324 138.843 69.5281 139.33C69.3146 140.012 69.2283 141.94 69.2283 141.94C69.2283 141.94 67.527 152.828 68.3334 155.016C69.1397 157.204 69.8257 159.601 69.8257 159.601C69.8257 159.601 70.6774 162.329 69.8666 162.796C69.0557 163.262 66.7502 164.044 67.2249 165.181C67.6565 166.232 69.2942 169.047 69.5372 169.459L69.5168 169.675L69.1829 173.297C69.2369 173.776 69.3665 174.242 69.5667 174.68C69.9324 175.469 70.6434 176.288 71.9949 176.199C72.222 176.183 72.4855 176.156 72.7399 176.122C75.2135 175.79 78.2594 174.684 78.2594 174.684C78.1013 174.584 77.9563 174.464 77.8278 174.327C77.7063 174.209 77.6099 174.068 77.5447 173.912C77.4795 173.755 77.4468 173.587 77.4485 173.418C77.4849 172.758 76.2515 169.616 75.9449 168.842C75.8972 168.731 75.8722 168.667 75.8722 168.667C75.8722 168.667 78.6842 165.725 78.2163 163.116C78.2163 163.116 75.1044 161.297 76.1288 160.299C77.1532 159.3 78.984 156.433 78.984 156.433C78.984 156.433 79.068 145.711 78.984 144.11C78.8963 142.998 78.949 141.881 79.1407 140.783C79.1748 140.617 79.2157 140.455 79.2588 140.296C80.6756 140.508 82.1058 140.616 83.5382 140.621C84.0606 140.621 84.5921 140.621 85.1282 140.589C85.1282 140.741 85.135 140.905 85.1486 141.081C85.2667 143.737 85.487 148.394 85.6665 150.125C85.9209 152.606 87.3269 159.291 87.3269 159.291C87.3269 159.291 84.6444 161.015 87.7948 165.263C87.7948 165.263 87.7948 166.803 87.5858 167.025C87.3627 167.754 87.183 168.495 87.0475 169.245C86.9158 170.045 86.8613 170.855 87.0748 171.276C87.5858 172.281 90.6522 172.199 90.6522 172.199L90.7272 172.185C91.3061 172.125 91.8911 172.181 92.4483 172.349C93.0055 172.518 93.5238 172.795 93.973 173.165C95.1383 174.102 99.5607 173.691 101.955 173.393C102.893 173.275 103.52 173.165 103.52 173.165C103.55 173.059 103.561 172.948 103.552 172.838C103.527 172.249 103.065 170.957 99.94 169.804C99.94 169.804 97.0008 167.826 97.0417 166.102H96.9804H96.6397C96.8873 166.088 97.0463 166.102 97.0463 166.102C97.0463 166.102 95.8947 161.895 96.3648 161.554C96.835 161.213 95.4267 156.551 95.4267 156.551C95.4267 156.551 94.6204 148.728 94.5772 148.18C94.579 147.71 94.6502 147.243 94.7885 146.793L94.5772 142.504C94.5772 142.504 94.5364 141.078 94.5772 140.614C94.5704 140.212 94.5377 139.81 94.4796 139.411C94.4591 139.252 94.4387 139.086 94.416 138.923C95.5176 138.643 96.2331 138.384 96.2331 138.384L96.1059 123.454C97.0417 121.635 97.2143 117.644 97.2098 114.813C97.2098 112.994 97.128 111.647 97.128 111.647L98.4068 109.558C98.4068 109.558 98.7021 107.056 98.2342 106.508C98.0275 106.26 98.1206 106.003 98.291 105.792C98.3795 105.721 98.4728 105.658 98.5704 105.601C98.5704 105.601 98.5567 105.58 98.5408 105.551C98.6301 105.476 98.7251 105.408 98.8248 105.348C98.8248 105.348 98.3705 104.643 98.7771 104.345C99.1587 104.605 99.4994 104.8 99.7583 104.959C99.7402 105.125 99.722 105.221 99.722 105.221L99.831 104.993C100.081 105.134 100.233 105.221 100.233 105.221C100.233 105.221 102.236 101.225 102.193 100.636C102.15 100.047 103.556 97.5664 103.556 97.5664C103.556 97.5664 103.726 96.2634 104.494 95.7176C105.262 95.1718 105.089 91.2172 105.089 91.2172C105.089 91.2172 105.303 89.1569 105.814 88.3155C106.325 87.4741 105.348 86.3394 105.348 86.3394ZM67.0159 84.5861L67.0545 85.5389C66.8274 85.1728 66.6639 84.909 66.6639 84.909L67.0159 84.5861Z" fill="url(#paint0_linear_54912_28100)"/>
<path d="M100.342 103.495L99.8516 105.587C99.8516 105.587 95.9221 103.579 95.2134 101.028C94.5047 98.476 96.3991 97.5073 96.3991 97.5073L100.061 99.0604L100.342 103.495Z" fill="white"/>
<path opacity="0.1" d="M100.342 103.495L99.8516 105.587C99.8516 105.587 95.9221 103.579 95.2134 101.028C94.5047 98.476 96.3991 97.5073 96.3991 97.5073L100.061 99.0604L100.342 103.495Z" fill="black"/>
<path d="M78.289 174.698C78.289 174.698 74.6547 176.035 72.1562 176.203C70.8297 176.292 70.1323 175.478 69.7735 174.694C69.5774 174.257 69.4509 173.793 69.3987 173.318L69.7235 169.713L69.8961 167.794L75.2044 166.414L75.9562 168.715L76.0267 168.89C76.3288 169.659 77.5394 172.786 77.5031 173.438C77.5016 173.605 77.5338 173.771 77.5978 173.925C77.6618 174.08 77.7563 174.22 77.8756 174.336C77.9975 174.474 78.1364 174.596 78.289 174.698Z" fill="white"/>
<path d="M103.113 172.865C103.122 172.975 103.112 173.085 103.081 173.19C103.081 173.19 95.3086 174.489 93.7186 173.19C93.2704 172.811 92.7478 172.53 92.1845 172.364C91.6213 172.199 91.0297 172.154 90.4478 172.231C90.4478 172.231 87.4405 172.313 86.9385 171.321C86.7295 170.905 86.784 170.098 86.9135 169.302C87.0456 168.556 87.2215 167.819 87.4405 167.094L87.5608 166.998L88.2763 166.423L96.6533 166.175H96.7169C96.676 167.89 99.5607 169.857 99.5607 169.857C102.625 170.994 103.077 172.278 103.113 172.865Z" fill="white"/>
<path opacity="0.1" d="M103.113 172.865C103.121 172.975 103.11 173.085 103.079 173.19C103.079 173.19 95.3086 174.489 93.7187 173.19C93.2706 172.811 92.7485 172.53 92.1856 172.365C91.6228 172.2 91.0316 172.154 90.4501 172.231C90.4501 172.231 87.4405 172.313 86.9408 171.321C86.7318 170.903 86.784 170.098 86.9135 169.302C88.0719 169.418 89.9004 169.706 90.6182 170.396C91.7039 171.444 93.5438 172.49 94.6726 172.572C95.5562 172.629 100.842 172.797 103.113 172.865Z" fill="black"/>
<path opacity="0.1" d="M78.2891 174.698C78.2891 174.698 74.6549 176.035 72.1563 176.203C70.8298 176.292 70.1325 175.478 69.7759 174.691C70.7003 175.003 71.9837 175.33 72.6583 175.03C73.4578 174.675 76.2926 174.446 77.8825 174.348C78.0036 174.48 78.1401 174.598 78.2891 174.698Z" fill="black"/>
<path d="M83.6813 66.9416C80.683 65.775 76.8261 61.9205 77.7892 60.1194C78.0031 59.6649 78.1302 59.1744 78.164 58.6731C78.226 57.9926 78.2351 57.3083 78.1913 56.6264C78.1237 55.5097 77.9895 54.3979 77.7892 53.2972C77.7892 53.2972 87.1497 53.5087 86.6046 54.8891C86.4456 55.2938 86.4206 55.9965 86.4637 56.7833C86.5069 57.5702 86.6205 58.4593 86.7386 59.2121C86.9021 60.2445 87.0657 61.0313 87.0657 61.0313C87.0657 61.0313 86.4933 61.834 86.1571 61.8773C85.8209 61.9205 87.9833 68.6039 83.6813 66.9416Z" fill="#CF6F80"/>
<path opacity="0.1" d="M76.02 168.89L75.9495 168.967C73.1512 165.579 69.7668 169.802 69.7668 169.802L69.7168 169.713L69.8894 167.794L75.1977 166.414L75.9495 168.715L76.02 168.89Z" fill="black"/>
<path opacity="0.1" d="M96.7193 166.414C96.7193 166.414 94.675 166.37 93.5848 167.335C92.4945 168.299 87.2248 167.544 87.452 167.335C87.5192 167.231 87.5598 167.112 87.5701 166.989L88.2856 166.414L96.6625 166.166C96.6943 166.318 96.7193 166.414 96.7193 166.414Z" fill="black"/>
<path d="M79.502 139.805C79.3497 140.182 79.2341 140.572 79.1567 140.971C78.9673 142.064 78.9146 143.177 79 144.282C79.084 145.874 79 156.542 79 156.542C79 156.542 77.2033 159.387 76.2016 160.39C75.1999 161.393 78.2459 163.194 78.2459 163.194C78.7002 165.786 75.9472 168.715 75.9472 168.715C73.1488 165.327 69.7644 169.552 69.7644 169.552C69.7644 169.552 67.9246 166.368 67.4658 165.231C67.0069 164.094 69.2624 163.307 70.0552 162.846C70.8479 162.384 70.0166 159.662 70.0166 159.662C70.0166 159.662 69.3465 157.276 68.5515 155.1C67.7565 152.924 69.4283 142.09 69.4283 142.09C69.4283 142.09 69.5146 140.166 69.7213 139.496C69.8256 139.011 69.8463 138.513 69.7826 138.022C69.769 137.856 69.7531 137.717 69.7417 137.624C69.7304 137.531 69.7213 137.488 69.7213 137.488L69.7531 137.433L70.8888 135.314C70.8888 135.314 80.0471 138.47 79.502 139.805Z" fill="#00A8FF"/>
<path d="M96.7193 166.164C96.7193 166.164 94.675 166.12 93.5848 167.073C92.4945 168.026 87.2248 167.282 87.452 167.073C87.6791 166.864 87.6609 165.315 87.6609 165.315C84.5695 161.09 87.2066 159.375 87.2066 159.375C87.2066 159.375 85.8256 152.724 85.5758 150.256C85.4009 148.533 85.1851 143.9 85.0692 141.256C85.0193 140.119 84.9897 139.336 84.9897 139.336L87.5156 138.827L87.8404 138.761L93.9323 137.538C93.9323 137.538 94.1004 138.675 94.2139 139.605C94.2706 140.002 94.3024 140.402 94.3093 140.803C94.2685 141.258 94.3093 142.682 94.3093 142.682L94.516 146.95C94.381 147.398 94.3114 147.863 94.3093 148.33C94.3502 148.874 95.143 156.656 95.143 156.656C95.143 156.656 96.5217 161.299 96.0515 161.634C95.5813 161.968 96.7193 166.164 96.7193 166.164Z" fill="#00A8FF"/>
<path opacity="0.1" d="M86.6047 54.8891C86.4457 55.2938 86.4207 55.9965 86.4638 56.7833C85.21 57.5392 83.7687 57.9257 82.3053 57.8984C80.842 57.871 79.4161 57.4309 78.1913 56.6287C78.1239 55.5112 77.9897 54.3987 77.7893 53.2972C77.7893 53.2972 87.1498 53.5042 86.6047 54.8891Z" fill="black"/>
<path d="M90.223 49.8634C90.2249 50.6828 90.096 51.4973 89.8414 52.2762C89.2724 54.0212 88.1054 55.5086 86.5469 56.4756C84.9884 57.4426 83.1385 57.8268 81.3244 57.5604C79.5103 57.2939 77.8486 56.394 76.6331 55.0197C75.4176 53.6453 74.7266 51.885 74.682 50.0499C74.682 49.9862 74.682 49.9271 74.682 49.8634C74.6644 48.8304 74.8524 47.8043 75.235 46.8448C75.6177 45.8853 76.1873 45.0117 76.9107 44.275C77.6341 43.5383 78.4968 42.9531 79.4485 42.5537C80.4002 42.1542 81.4218 41.9485 82.4537 41.9485C83.4856 41.9485 84.5072 42.1542 85.4589 42.5537C86.4105 42.9531 87.2732 43.5383 87.9966 44.275C88.72 45.0117 89.2897 45.8853 89.6723 46.8448C90.055 47.8043 90.243 48.8304 90.2253 49.8634H90.223Z" fill="#CF6F80"/>
<path opacity="0.1" d="M83.6813 66.9416C80.683 65.775 76.8261 61.9205 77.7892 60.1194C78.0031 59.6649 78.1302 59.1744 78.164 58.6731L82.2685 62.0501L84.8079 64.1354L86.7386 59.2143C86.9021 60.2467 87.0657 61.0336 87.0657 61.0336C87.0657 61.0336 86.4933 61.8363 86.1571 61.8795C85.8209 61.9227 87.9833 68.6039 83.6813 66.9416Z" fill="black"/>
<path d="M94.2956 81.8663L90.868 139.514L86.3979 139.807L74.8228 106.381L76.7217 66.696L77.1214 58.3115L82.2684 62.5436L84.8101 64.6289L86.7976 59.5645L90.4932 62.7891L94.2956 81.8663Z" fill="#00A8FF"/>
<path opacity="0.1" d="M79.5021 139.805C79.3498 140.182 79.2342 140.572 79.1568 140.971C75.9041 140.469 72.7451 139.481 69.785 138.04L69.7236 138.008L69.7441 137.642L69.7554 137.451L70.8911 135.332C70.8911 135.332 80.0472 138.47 79.5021 139.805Z" fill="black"/>
<path opacity="0.1" d="M87.5678 140.981C86.7362 141.122 85.8976 141.218 85.0556 141.267C85.0056 140.13 84.9761 139.348 84.9761 139.348L87.5019 138.838L87.5678 140.981Z" fill="black"/>
<path opacity="0.1" d="M94.2002 139.616C92.5853 140.037 90.0913 140.51 87.8585 140.214L87.8267 138.772L93.9186 137.549C93.9186 137.549 94.0867 138.675 94.2002 139.616Z" fill="black"/>
<path opacity="0.1" d="M87.8176 140.478C78.5048 142.07 69.9756 137.506 69.9756 137.506L70.0574 135.959C70.0574 135.959 70.2687 118.429 69.6826 117.085C69.0966 115.741 68.64 108.925 68.9717 107.879C69.3033 106.833 67.761 91.1467 67.761 91.1467L67.5112 84.7793L58.3665 81.0703L62.455 72.538C63.0072 71.3418 63.4822 70.1113 63.8769 68.8541C64.5879 66.6391 67.8882 64.4629 67.8882 64.4629C67.8882 64.4629 71.2726 62.2888 72.6105 62.3707C73.9483 62.4526 75.7019 60.4469 75.7019 60.4469C76.9966 57.1426 78.1686 58.639 78.1686 58.639C78.1686 58.7959 78.1686 58.639 78.105 59.1279C77.6507 62.755 85.4508 74.2163 85.5621 74.4187L86.3048 92.5339L87.0566 115.459L87.8176 140.478Z" fill="black"/>
<path d="M87.5678 140.478C78.255 142.07 69.7236 137.506 69.7236 137.506L69.8076 135.959C69.8076 135.959 70.0189 118.429 69.4306 117.085C68.8423 115.741 68.388 108.925 68.7219 107.879C69.0558 106.833 67.5112 91.1467 67.5112 91.1467L67.2591 84.7793L58.1099 81.0567L62.1984 72.5244C62.7494 71.3276 63.2243 70.0972 63.6203 68.8404C64.329 66.6255 67.6316 64.4492 67.6316 64.4492C67.6316 64.4492 71.016 62.2752 72.3516 62.3571C73.6872 62.4389 75.443 60.4332 75.443 60.4332C76.74 57.129 78.1687 58.6253 78.1687 58.6253C78.1687 58.7822 78.0324 58.8527 78.1051 59.1143C79.1045 62.6322 85.201 74.2027 85.3123 74.4051L86.0641 92.5202L86.816 115.445L87.5678 140.478Z" fill="white"/>
<path opacity="0.1" d="M85.0579 74.9213C84.0562 74.5028 78.7502 68.4379 78.7502 68.4379V67.0576C78.5571 66.6028 77.41 66.8802 76.4788 67.1986L76.8785 58.8141L77.3328 59.1916C78.3277 62.7073 84.942 74.7189 85.0579 74.9213Z" fill="black"/>
<path d="M85.3099 74.4187C84.3059 74.0003 78.9999 67.9354 78.9999 67.9354V66.555C78.8069 66.1002 77.6598 66.3776 76.7285 66.696L77.1306 58.3115L77.5848 58.689C78.582 62.2047 85.1986 74.2186 85.3099 74.4187Z" fill="white"/>
<path opacity="0.1" d="M69.9757 104.666C70.1006 104.666 76.4515 103.997 76.4515 103.997C76.4515 103.997 80.297 111.568 80.0448 113.41C79.7927 115.252 79.3362 116.882 77.7893 116.593C76.2425 116.305 69.4646 116.821 69.4646 116.821L69.9757 104.666Z" fill="black"/>
<path d="M69.7235 104.163C69.8484 104.163 76.1993 103.495 76.1993 103.495C76.1993 103.495 80.0425 111.068 79.7926 112.907C79.5428 114.747 79.0817 116.38 77.5371 116.091C75.9926 115.802 69.2124 116.318 69.2124 116.318L69.7235 104.163Z" fill="white"/>
<path d="M74.5094 100.609C74.5094 100.609 80.3378 103.745 80.4627 104.702C80.5877 105.66 77.4963 104.284 76.8285 104.118C76.3889 104.012 75.9415 103.942 75.4906 103.909L71.0364 104.029L74.5094 100.609Z" fill="#CF6F80"/>
<path opacity="0.1" d="M83.4314 75.3124C83.7701 75.3124 84.0447 75.0375 84.0447 74.6984C84.0447 74.3593 83.7701 74.0844 83.4314 74.0844C83.0927 74.0844 82.8181 74.3593 82.8181 74.6984C82.8181 75.0375 83.0927 75.3124 83.4314 75.3124Z" fill="black"/>
<path d="M83.4314 75.0623C83.7701 75.0623 84.0447 74.7874 84.0447 74.4483C84.0447 74.1092 83.7701 73.8343 83.4314 73.8343C83.0927 73.8343 82.8181 74.1092 82.8181 74.4483C82.8181 74.7874 83.0927 75.0623 83.4314 75.0623Z" fill="#3F3D56"/>
<path opacity="0.1" d="M84.5603 101.892C84.899 101.892 85.1736 101.617 85.1736 101.278C85.1736 100.939 84.899 100.664 84.5603 100.664C84.2216 100.664 83.947 100.939 83.947 101.278C83.947 101.617 84.2216 101.892 84.5603 101.892Z" fill="black"/>
<path d="M84.5603 101.639C84.899 101.639 85.1736 101.364 85.1736 101.025C85.1736 100.686 84.899 100.411 84.5603 100.411C84.2216 100.411 83.947 100.686 83.947 101.025C83.947 101.364 84.2216 101.639 84.5603 101.639Z" fill="#3F3D56"/>
<path opacity="0.1" d="M84.0425 88.602C84.3812 88.602 84.6558 88.3272 84.6558 87.9881C84.6558 87.649 84.3812 87.3741 84.0425 87.3741C83.7038 87.3741 83.4292 87.649 83.4292 87.9881C83.4292 88.3272 83.7038 88.602 84.0425 88.602Z" fill="black"/>
<path d="M84.0425 88.3519C84.3812 88.3519 84.6558 88.077 84.6558 87.7379C84.6558 87.3988 84.3812 87.1239 84.0425 87.1239C83.7038 87.1239 83.4292 87.3988 83.4292 87.7379C83.4292 88.077 83.7038 88.3519 84.0425 88.3519Z" fill="#3F3D56"/>
<path d="M98.1797 103.781C98.1797 103.781 98.5976 104.409 98.1797 104.702C97.7618 104.996 98.2206 105.705 98.2206 105.705C98.2206 105.705 97.178 106.317 97.6368 106.867C98.0957 107.418 97.8049 109.903 97.8049 109.903L96.5511 111.982C96.5511 111.982 96.626 113.321 96.6306 115.131C96.6306 117.956 96.4648 121.926 95.5471 123.736L95.6743 138.588C95.6743 138.588 91.2837 140.194 87.6085 139.705L87.0634 115.873C87.0634 115.873 87.8584 102.358 88.1514 99.7654C88.3229 98.4195 88.3927 97.0626 88.3604 95.7062C88.3604 95.7062 88.2355 91.6493 87.8152 89.7664C87.8152 89.7664 87.361 81.6093 87.3155 79.3512C87.2951 78.271 87.3519 75.1191 87.4155 72.1219C87.4859 68.845 87.5654 65.7545 87.5654 65.7545L86.7363 59.187C86.7363 59.187 87.5654 59.1029 87.8152 59.4372C87.9272 59.5419 88.0489 59.6355 88.1787 59.7169C89.6097 60.6857 94.6658 63.6647 94.6658 63.6647C94.6658 63.6647 97.4642 64.779 98.1343 66.3754C98.8043 67.9718 99.27 69.1042 99.5948 69.559C99.9196 70.0139 100.097 72.1515 100.097 72.1515C100.097 72.1515 101.06 76.0856 101.812 76.7519C102.564 77.4182 103.113 81.6571 103.113 81.6571L96.4693 86.8874C96.4693 86.8874 95.8856 95.588 95.7606 95.9245C95.6357 96.2611 98.1797 103.781 98.1797 103.781Z" fill="white"/>
<path d="M98.4319 103.781C98.4319 103.781 98.8475 104.409 98.4319 104.702C98.0162 104.996 98.4705 105.705 98.4705 105.705C98.4705 105.705 97.4347 106.324 97.889 106.874C98.3433 107.424 98.0571 109.91 98.0571 109.91L96.8033 111.989C96.8033 111.989 96.8782 113.328 96.885 115.138C96.885 117.962 96.7192 121.933 95.8016 123.743L95.9265 138.595C95.9265 138.595 91.529 140.201 87.8584 139.712L87.3156 115.879C87.3156 115.879 88.1106 102.365 88.4036 99.7722C88.5752 98.4264 88.6443 97.0694 88.6103 95.713C88.6103 95.713 88.4854 91.6561 88.0674 89.7732C88.0674 89.7732 87.6131 81.6161 87.5654 79.358C87.545 78.2778 87.604 75.1259 87.6654 72.1287C87.7358 68.8518 87.8153 65.7613 87.8153 65.7613L86.7205 59.1052C86.7205 59.1052 87.8153 59.1052 88.0674 59.444C88.1783 59.5499 88.3001 59.6437 88.4308 59.7237C89.8618 60.6925 94.9203 63.6715 94.9203 63.6715C94.9203 63.6715 97.7164 64.7858 98.3864 66.3822C99.0565 67.9786 99.5221 69.111 99.8492 69.5659C100.176 70.0207 100.349 72.1583 100.349 72.1583C100.349 72.1583 101.312 76.0924 102.064 76.7587C102.816 77.425 103.359 81.6548 103.359 81.6548L96.7147 86.8851C96.7147 86.8851 96.1309 95.5857 96.0037 95.9222C95.8765 96.2588 98.4319 103.781 98.4319 103.781Z" fill="white"/>
<path opacity="0.1" d="M90.4752 67.692L91.0748 69.4431L87.9176 72.6268C87.988 69.3521 88.0675 66.2594 88.0675 66.2594L86.9727 59.6032C86.9727 59.6032 88.0675 59.6032 88.3196 59.942C88.4302 60.0476 88.552 60.1407 88.683 60.2195L91.3678 67.974L90.4752 67.692Z" fill="black"/>
<path d="M90.223 67.1895L90.8249 68.9405L87.6676 72.1242C87.7381 68.8473 87.8176 65.7568 87.8176 65.7568L86.7205 59.1006C86.7205 59.1006 87.8176 59.1006 88.0674 59.4395C88.1788 59.5447 88.3006 59.6384 88.4308 59.7192L91.1179 67.4714L90.223 67.1895Z" fill="white"/>
<path opacity="0.1" d="M90.223 49.8634C90.2249 50.6828 90.096 51.4973 89.8414 52.2762C89.7985 52.2829 89.7547 52.2809 89.7126 52.2703C89.6704 52.2598 89.6308 52.2409 89.5961 52.2148C89.5371 50.1681 88.5308 48.2465 87.2929 46.6115C86.9454 46.1178 86.524 45.6806 86.0436 45.3153C85.558 44.9501 84.9539 44.779 84.3492 44.8354C83.6678 44.9287 83.0658 45.3926 82.3776 45.4517C81.469 45.5267 80.6559 44.8968 79.7541 44.865C79.3875 44.8685 79.0259 44.9502 78.6933 45.1047C78.3608 45.2592 78.065 45.4829 77.8257 45.761C77.3519 46.322 77 46.9757 76.7922 47.6803C76.4351 48.7487 76.2406 49.8649 76.2152 50.9913C76.2039 51.6281 76.1426 52.4263 75.552 52.6582C75.5965 52.1899 75.5433 51.7175 75.3959 51.2709C75.2485 50.8242 75.0101 50.4131 74.6957 50.0635L74.682 50.0499C74.682 49.9862 74.682 49.9271 74.682 49.8634C74.6644 48.8304 74.8524 47.8043 75.235 46.8448C75.6177 45.8853 76.1873 45.0117 76.9107 44.275C77.6341 43.5383 78.4968 42.9531 79.4485 42.5537C80.4002 42.1542 81.4218 41.9485 82.4537 41.9485C83.4856 41.9485 84.5072 42.1542 85.4589 42.5537C86.4105 42.9531 87.2732 43.5383 87.9966 44.275C88.72 45.0117 89.2897 45.8853 89.6723 46.8448C90.055 47.8043 90.243 48.8304 90.2253 49.8634H90.223Z" fill="black"/>
<path d="M85.6711 37.5084C84.4908 36.9525 83.1484 36.8474 81.8961 37.2128C81.2669 37.3992 80.674 37.7017 80.0358 37.854C78.6729 38.1838 77.0829 37.8268 75.9132 38.625C75.2635 39.0798 74.8729 39.7984 74.5094 40.4965L73.6009 42.2293C73.1057 43.1776 72.606 44.1418 72.3993 45.1856C72.1926 46.2294 72.3175 47.3983 72.9785 48.2374C73.46 48.8491 74.171 49.2335 74.6934 49.8088C75.0064 50.1588 75.2438 50.5696 75.3908 51.0157C75.5377 51.4618 75.5911 51.9335 75.5475 52.4012C76.1403 52.1738 76.1971 51.3733 76.2107 50.7366C76.236 49.6102 76.4305 48.494 76.7877 47.4256C76.995 46.7208 77.347 46.067 77.8212 45.5063C78.0607 45.2285 78.3565 45.0049 78.689 44.8504C79.0215 44.6959 79.383 44.6141 79.7496 44.6103C80.6581 44.6421 81.4736 45.2698 82.3731 45.1947C83.0545 45.1379 83.6587 44.6717 84.3446 44.5807C84.9495 44.5234 85.5539 44.6946 86.0391 45.0606C86.5193 45.4254 86.94 45.8626 87.2861 46.3568C88.5263 47.9918 89.5325 49.9089 89.5916 51.9601C89.8483 52.1488 90.2185 51.9032 90.3457 51.6121C90.4729 51.321 90.4774 50.9799 90.6387 50.7025C90.825 50.3819 91.1816 50.2113 91.461 49.9703C92.1697 49.3585 92.3468 48.3284 92.3196 47.3937C92.2923 46.4591 92.1106 45.5108 92.2878 44.5921C92.3945 44.0281 92.6353 43.5005 92.767 42.9434C92.8988 42.3863 92.9147 41.7609 92.6035 41.2811C92.1492 40.5761 91.1929 40.4374 90.3593 40.3714C89.4122 40.2896 88.5649 40.3942 87.9607 39.596C87.6771 39.1794 87.3579 38.7884 87.0067 38.4271C86.8864 38.3089 85.6711 37.5584 85.6711 37.5084Z" fill="#512E4E"/>
<path opacity="0.1" d="M60.9831 85.4638L58.6095 81.0703L57.8577 87.8493C57.8577 87.8493 58.2756 90.8602 58.1916 91.3218C58.1075 91.7835 59.9042 95.9222 59.9042 95.9222C59.9042 95.9222 65.8394 106.506 68.263 107.052L76.4514 101.194L74.28 98.4328C74.28 98.4328 73.5281 98.1395 73.3396 98.4328C73.3396 98.4328 69.3078 91.4878 68.8899 90.9853C68.472 90.4827 68.5537 89.4798 68.5537 89.4798C68.5537 89.4798 67.9268 88.8113 68.1358 88.1836C68.3448 87.556 66.9251 85.3797 66.9251 85.3797L68.2198 84.1676L60.9831 85.4638Z" fill="black"/>
<path d="M58.7345 80.5701L58.1075 81.0703L57.3557 87.8493C57.3557 87.8493 57.7737 90.8602 57.6896 91.3218C57.6056 91.7835 59.4045 95.9223 59.4045 95.9223C59.4045 95.9223 65.3375 106.506 67.761 107.052L75.9518 101.194L73.778 98.4328C73.778 98.4328 73.0262 98.1395 72.8377 98.4328C72.8377 98.4328 68.8059 91.4878 68.388 90.9853C67.97 90.4827 68.0541 89.4798 68.0541 89.4798C68.0541 89.4798 67.4272 88.8113 67.6361 88.1836C67.8451 87.556 66.4232 85.3797 66.4232 85.3797L67.7179 84.1676L58.7345 80.5701Z" fill="white"/>
<path opacity="0.1" d="M97.637 107.127C98.0912 107.679 97.805 110.16 97.805 110.16L96.5512 112.239C96.5512 112.239 96.6262 113.58 96.6307 115.388L94.5229 116.048C94.3324 116.107 94.1304 116.12 93.9338 116.086C93.7372 116.051 93.5517 115.97 93.3928 115.85C93.2339 115.729 93.1061 115.572 93.0202 115.391C92.9342 115.211 92.8926 115.013 92.8988 114.813L93.2622 103.076L98.1798 104.959C97.7619 105.25 98.2207 105.965 98.2207 105.965C98.2207 105.965 97.1781 106.574 97.637 107.127Z" fill="black"/>
<path d="M97.8889 106.874C98.3432 107.427 98.057 109.91 98.057 109.91L96.8032 111.989C96.8032 111.989 96.8782 113.328 96.885 115.138L94.7385 115.809C94.5519 115.867 94.3542 115.88 94.1618 115.846C93.9694 115.812 93.7879 115.732 93.6323 115.614C93.4768 115.496 93.3517 115.342 93.2676 115.165C93.1834 114.989 93.1426 114.795 93.1485 114.599L93.5142 102.826L98.4341 104.709C98.0139 105 98.4727 105.712 98.4727 105.712C98.4727 105.712 97.4347 106.324 97.8889 106.874Z" fill="white"/>
<path d="M99.5176 101.28C99.5176 101.28 99.1837 103.415 98.3478 103.54C97.5119 103.665 97.1371 106.995 96.3035 106.876C95.4699 106.758 96.0219 103.781 96.0514 103.204C96.0809 102.626 95.1428 100.234 95.8447 99.6904C96.5466 99.1469 98.768 99.6904 98.768 99.6904L99.5176 101.28Z" fill="#CF6F80"/>
<path opacity="0.1" d="M101.296 84.8362L102.873 81.6525C102.873 81.6525 103.5 84.0789 103.5 85.3751C103.5 86.6714 104.376 86.7987 104.376 86.7987C104.376 86.7987 105.337 87.9357 104.831 88.7635C104.324 89.5912 104.12 91.6516 104.12 91.6516C104.12 91.6516 104.285 95.5834 103.534 96.1269C102.782 96.6704 102.625 97.9689 102.625 97.9689C102.625 97.9689 101.244 100.436 101.287 101.023C101.33 101.61 99.3656 105.582 99.3656 105.582C99.3656 105.582 100.326 100.645 94.7273 98.5124C94.7273 98.5124 94.6842 96.8364 95.1021 96.3771C95.5201 95.9177 96.172 95.7085 95.7631 93.3867C95.3543 91.0648 95.645 88.2905 95.645 87.7333C95.645 87.1762 96.8988 83.7014 96.8988 83.7014L101.296 84.8362Z" fill="black"/>
<path d="M101.978 81.1977L103.354 81.6525C103.354 81.6525 103.983 84.0789 103.983 85.3751C103.983 86.6714 104.86 86.7987 104.86 86.7987C104.86 86.7987 105.821 87.9357 105.314 88.7635C104.808 89.5913 104.606 91.6516 104.606 91.6516C104.606 91.6516 104.771 95.5834 104.02 96.1269C103.268 96.6704 103.1 97.9689 103.1 97.9689C103.1 97.9689 101.721 100.436 101.764 101.023C101.807 101.61 99.8402 105.582 99.8402 105.582C99.8402 105.582 100.803 100.645 95.202 98.5124C95.202 98.5124 95.1611 96.8364 95.5791 96.3771C95.997 95.9177 96.6489 95.7085 96.2401 93.3867C95.8312 91.0649 96.1219 88.2905 96.1219 87.7333C96.1219 87.1762 97.3758 83.7014 97.3758 83.7014L101.978 81.1977Z" fill="white"/>
<path opacity="0.1" d="M71.5747 163.717C71.5747 163.717 73.7689 162.336 75.209 163.339C76.649 164.342 71.5747 163.717 71.5747 163.717Z" fill="black"/>
<path opacity="0.1" d="M88.624 159.448C88.624 159.448 90.5661 159.198 92.197 160.956C93.8278 162.714 88.624 159.448 88.624 159.448Z" fill="black"/>
<g opacity="0.1">
<path d="M91.4654 49.4722C91.186 49.7133 90.8271 49.8861 90.6408 50.2068C90.4818 50.4819 90.4773 50.8207 90.3501 51.1164C90.2229 51.412 89.8527 51.6531 89.596 51.4666C89.5369 49.4199 88.5284 47.4983 87.2905 45.861C86.9444 45.3669 86.5237 44.9296 86.0435 44.5648C85.5574 44.1989 84.9523 44.0278 84.3468 44.085C83.6653 44.1782 83.0657 44.6421 82.3774 44.699C81.4689 44.7763 80.6534 44.1464 79.7517 44.1145C79.3852 44.1182 79.0238 44.2002 78.6916 44.3551C78.3594 44.5101 78.0641 44.7343 77.8255 45.0128C77.3514 45.5727 76.9993 46.2257 76.792 46.9298C76.4351 47.9983 76.2406 49.1145 76.2151 50.2409C76.2015 50.8753 76.1424 51.6667 75.5564 51.9032C75.57 52.0712 75.57 52.24 75.5564 52.408C76.147 52.1806 76.206 51.3802 76.2197 50.7434C76.245 49.617 76.4395 48.5008 76.7966 47.4324C77.0039 46.7276 77.3559 46.0739 77.8301 45.5131C78.0692 45.2353 78.3646 45.0118 78.6967 44.8573C79.0288 44.7028 79.39 44.6209 79.7562 44.6171C80.6648 44.6489 81.4825 45.2766 82.382 45.2015C83.0634 45.1447 83.6676 44.6785 84.3513 44.5875C84.9568 44.5303 85.5619 44.7014 86.048 45.0674C86.5283 45.4322 86.9489 45.8695 87.295 46.3636C88.533 47.9986 89.5415 49.9157 89.6005 51.9669C89.8572 52.1556 90.2274 51.91 90.3546 51.6189C90.4818 51.3279 90.4864 50.9868 90.6454 50.7093C90.8316 50.3887 91.1905 50.2181 91.4699 49.9771C92.1786 49.3653 92.3558 48.3352 92.3285 47.4006C92.3285 47.371 92.3285 47.3414 92.3285 47.3141C92.2853 48.1237 92.0696 48.9492 91.4654 49.4722Z" fill="black"/>
<path d="M74.6978 49.3108C74.1754 48.7354 73.4622 48.3511 72.9829 47.7417C72.5793 47.2022 72.3488 46.5527 72.3219 45.8792C72.2504 46.7208 72.4852 47.56 72.9829 48.242C73.4622 48.8537 74.1754 49.238 74.6978 49.8134C75.1994 50.3761 75.5005 51.0895 75.5541 51.8418C75.5889 51.384 75.531 50.9238 75.3838 50.4889C75.2367 50.0539 75.0034 49.6532 74.6978 49.3108Z" fill="black"/>
<path d="M92.7713 42.4454C92.6373 43.0025 92.3988 43.5324 92.2898 44.0941C92.2252 44.4694 92.2016 44.8507 92.2193 45.2311C92.227 45.0144 92.2505 44.7985 92.2898 44.5853C92.3988 44.0213 92.6373 43.4937 92.7713 42.9366C92.8494 42.6293 92.8748 42.3109 92.8463 41.9951C92.8321 42.1468 92.8071 42.2973 92.7713 42.4454Z" fill="black"/>
</g>
<path opacity="0.1" d="M30.6485 172.963C42.872 172.963 52.7811 171.37 52.7811 169.404C52.7811 167.439 42.872 165.845 30.6485 165.845C18.425 165.845 8.51587 167.439 8.51587 169.404C8.51587 171.37 18.425 172.963 30.6485 172.963Z" fill="#00A8FF"/>
<path d="M31.3617 101.228H29.9375V133.331H31.3617V101.228Z" fill="#535461"/>
<path d="M40.3111 133.233L40.2225 134.679L40.0954 136.726L40.0431 137.576L39.9182 139.623L39.8637 140.473L39.7365 142.52L38.3009 165.731C38.2385 166.73 37.7984 167.667 37.0701 168.353C36.3417 169.038 35.3799 169.42 34.3805 169.42H26.9166C25.9174 169.42 24.9559 169.038 24.2279 168.353C23.5 167.667 23.0603 166.73 22.9984 165.731L21.5697 142.504L21.4425 140.458L21.3903 139.607L21.2631 137.56L21.2108 136.71L21.0836 134.663L20.9928 133.217C20.977 132.939 21.0182 132.66 21.1138 132.398C21.2095 132.136 21.3576 131.897 21.549 131.694C21.7404 131.492 21.9711 131.33 22.227 131.22C22.4829 131.11 22.7586 131.054 23.0371 131.054H38.3032C38.5806 131.057 38.8547 131.116 39.1083 131.228C39.362 131.341 39.5899 131.504 39.7781 131.708C39.9662 131.913 40.1106 132.153 40.2023 132.415C40.294 132.678 40.331 132.956 40.3111 133.233Z" fill="#3F3D56"/>
<path d="M40.2225 134.679L40.0953 136.719H21.2017L21.0745 134.679H40.2225Z" fill="#9D9CB5"/>
<path d="M40.043 137.569L39.9181 139.612H21.3811L21.2539 137.569H40.043Z" fill="#9D9CB5"/>
<path d="M39.8636 140.464L39.7387 142.504H21.5605L21.4333 140.464H39.8636Z" fill="#9D9CB5"/>
<path d="M18.9006 113.26C27.1935 119.268 30.6551 128.664 30.6551 128.664C30.6551 128.664 20.6609 128.321 12.3657 122.313C4.07054 116.305 0.615723 106.911 0.615723 106.911C0.615723 106.911 10.6054 107.252 18.9006 113.26Z" fill="#00A8FF"/>
<path d="M0.609131 106.911C0.609131 106.911 10.9849 112.675 14.3126 117.449C17.6402 122.222 30.6554 128.664 30.6554 128.664" stroke="#535461" stroke-width="2" stroke-miterlimit="10"/>
<path d="M24.2543 101.157C28.7676 104.425 30.6552 109.539 30.6552 109.539C30.6552 109.539 25.2152 109.353 20.6996 106.085C16.184 102.817 14.301 97.7006 14.301 97.7006C14.301 97.7006 19.7388 97.887 24.2543 101.157Z" fill="#00A8FF"/>
<path d="M14.301 97.7006C14.301 97.7006 19.9478 100.839 21.7581 103.436C23.5684 106.033 30.6552 109.539 30.6552 109.539" stroke="#535461" stroke-width="2" stroke-miterlimit="10"/>
<path d="M37.2083 109.28C32.0226 114.986 30.9255 122.442 30.9255 122.442C30.9255 122.442 38.2372 120.646 43.4183 114.938C48.5994 109.23 49.701 101.776 49.701 101.776C49.701 101.776 42.3939 103.574 37.2083 109.28Z" fill="#00A8FF"/>
<path d="M49.7056 101.778C49.7056 101.778 42.9504 107.627 41.2332 111.656C39.516 115.686 30.9255 122.442 30.9255 122.442" stroke="#535461" stroke-width="2" stroke-miterlimit="10"/>
<path d="M227.566 107.272C227.566 107.272 223.816 88.5929 225.252 86.2688C225.252 86.2688 225.304 84.1085 225.218 81.3546C225.218 81.25 225.218 81.1454 225.218 81.0385C225.47 81.2071 225.733 81.359 226.006 81.4933C227.328 82.1736 228.847 82.3699 230.299 82.0482L229.163 80.7815C228.89 80.4791 228.607 80.1516 228.547 79.7514C228.488 79.3512 228.652 78.9941 228.793 78.6371C229.872 75.9082 229.929 72.4767 227.85 70.3936C226.094 68.6426 225.667 66.3822 223.762 64.7835C222.369 63.6124 221.604 61.8955 220.881 60.2354C220.27 58.8323 219.655 57.4178 219.305 55.9306C219.033 54.7685 218.924 53.5656 218.549 52.4308C218.174 51.296 217.472 50.1931 216.375 49.686C215.984 49.5064 215.55 49.404 215.194 49.1652C214.726 48.8491 214.444 48.3352 214.106 47.885C212.386 45.6109 206.628 46.9503 203.903 47.8736C203.162 48.1061 202.475 48.4867 201.886 48.9924L201.911 48.9515C201.931 48.9174 201.956 48.8833 201.979 48.8492C201.68 49.0907 201.423 49.3786 201.216 49.7019C200.818 50.3318 200.652 51.0664 200.321 51.7486C199.921 52.5559 197.697 54.8095 198.653 55.7168C198.72 55.7778 198.797 55.827 198.881 55.8624C199.24 56.0119 199.635 56.0515 200.016 55.9761L199.975 56.0738C199.649 56.8744 199.481 57.731 199.483 58.5958C199.483 62.3321 202.56 65.3611 206.36 65.3611C207.075 65.3618 207.785 65.2521 208.466 65.0359C208.482 65.1223 208.495 65.2088 208.511 65.2952C208.511 65.3293 208.523 65.3634 208.527 65.3975L208.407 65.5658C208.401 65.5554 208.394 65.5455 208.386 65.5362L204.82 70.5255C204.275 70.9098 201.136 73.1839 200.959 74.8894C200.773 76.7565 200.586 78.9418 200.586 78.9418L200.561 79.4103C200.406 79.5407 200.223 79.6356 200.027 79.6886C199.831 79.7416 199.626 79.7514 199.426 79.7173C198.313 79.5354 198.313 83.8106 198.313 83.8106C198.313 83.8106 197.572 84.4928 197.063 83.9016C196.555 83.3103 195.21 85.3137 195.21 85.3137L186.783 85.6776L186.59 85.689L186.136 84.2813C186.087 84.1328 185.981 84.0097 185.842 83.9386C185.703 83.8675 185.542 83.8542 185.393 83.9016C185.358 83.9131 185.324 83.9276 185.291 83.9448L185.259 83.963L185.2 84.0039L185.17 84.0312C185.154 84.046 185.139 84.0619 185.125 84.0789L185.098 84.1108L185.084 84.1244C185.032 84.197 184.997 84.2809 184.983 84.3694C184.968 84.4578 184.975 84.5484 185.002 84.6338L185.393 85.8413C183.767 86.1688 182.104 87.0921 183.46 89.6345L176.587 88.3633L178.81 90.2325L190.29 92.6044C190.138 92.8773 190.238 93.273 190.713 93.8301C192.757 96.2338 196.482 96.8865 197.981 97.0547C198.377 97.9414 198.872 98.7805 199.455 99.5562L199.326 101.951C199.326 101.951 195.53 120.202 194.835 121.128C195.186 120.73 195.507 120.307 195.796 119.861C194.694 123.611 193.154 128.744 192.75 129.512C192.1 130.74 191.498 135.709 192.239 136.028C192.466 136.125 193.116 136.078 194.042 136.007V136.419L194.002 152.017C194.002 152.017 194.188 161.584 193.677 162.495C193.166 163.407 193.029 165.32 193.029 165.32C193.029 165.32 190.985 169.092 189.366 170.609C189.355 170.621 189.342 170.632 189.329 170.641L189.279 170.286C189.279 170.286 187.333 172.747 183.026 172.608C183.026 172.608 180.434 174.296 184.278 174.387C188.121 174.477 193.029 174.25 193.029 174.25C193.029 174.25 196.457 169.02 199.328 169.702V173.666H200.207V169.638C200.615 169.37 200.964 169.021 201.233 168.613C201.502 168.205 201.685 167.747 201.772 167.266C201.847 166.771 201.792 166.264 201.612 165.796C201.432 165.329 201.133 164.916 200.745 164.599C200.571 164.441 200.431 164.249 200.335 164.035C200.238 163.82 200.187 163.588 200.184 163.353L200.153 163.38C200.153 163.3 200.132 163.219 200.123 163.134C199.871 161.088 199.555 156.865 200.67 153.74C202.199 149.456 202.662 143.489 201.549 139.937C201.19 138.801 200.895 137.647 200.666 136.478C200.639 136.33 200.614 136.189 200.591 136.057C201.352 136.16 202.105 136.312 202.846 136.512C205.425 137.224 211.064 137.356 215.88 137.317C215.891 137.449 215.905 137.588 215.921 137.726C216.007 138.691 216.186 139.644 216.457 140.573C217.061 142.393 217.338 150.413 217.338 150.413C217.338 150.413 218.117 157.008 217.692 159.692C217.465 161.183 217.238 162.682 217.109 164.187V164.217C217.109 164.217 215.832 167.855 214.899 169.832C214.876 169.882 214.851 169.932 214.828 169.979C214.579 170.002 214.334 170.056 214.099 170.141C214.099 170.141 212.847 172.642 211.6 173.056C210.353 173.47 210.767 174.832 213.59 174.332C216.414 173.832 220.677 173.422 220.677 173.422L220.861 170.871L221.729 169.784L221.502 172.328L222.426 172.147L222.303 169.052L223.723 167.273C223.723 167.273 225.438 165.745 222.889 162.739V162.805C222.862 162.761 222.837 162.716 222.808 162.673V162.659C222.385 162.004 222.049 160.783 222.665 158.616C223.778 154.7 224.425 151.146 224.425 151.146C224.425 151.146 226.91 141.624 223.923 137.119H224.055C223.749 136.485 223.532 135.812 223.412 135.118C223.397 135.036 223.383 134.952 223.371 134.866C225.581 134.738 227.75 134.338 229.52 133.474C229.513 133.465 228.448 110.87 227.566 107.272ZM199.507 91.5128V91.5583L199.053 91.5811L199.507 91.5128ZM197.949 91.7289C197.875 91.7454 197.805 91.7789 197.745 91.8267C197.55 92.1033 197.427 92.4247 197.388 92.7613L196.68 92.6021C196.68 92.6021 196.182 92.4952 195.467 92.3747L195.128 92.0336C196.059 91.9563 197.027 91.8426 197.949 91.7289Z" fill="url(#paint1_linear_54912_28100)"/>
<path d="M221.397 169.083L221.127 172.306L222.033 172.124L221.897 168.629L221.397 169.083Z" fill="#1D2366"/>
<path d="M200.72 153.783C199.628 156.899 199.937 161.104 200.182 163.146C200.273 163.901 200.357 164.36 200.357 164.36C200.357 164.36 198.724 168.085 198.587 168.226C198.451 168.367 193.781 171.221 193.781 171.221L190.517 173.129C190.517 173.129 187.205 171.676 188.793 171.176C189.118 171.045 189.41 170.846 189.649 170.591C191.239 169.079 193.236 165.32 193.236 165.32C193.236 165.32 193.372 163.412 193.872 162.505C194.372 161.597 194.19 152.062 194.19 152.062L194.229 136.519V134.493L200.441 134.538C200.48 135.226 200.57 135.91 200.709 136.585C200.932 137.749 201.221 138.9 201.574 140.032C202.669 143.577 202.215 149.515 200.72 153.783Z" fill="#FFB0B1"/>
<path opacity="0.1" d="M200.357 164.36C200.357 164.36 198.724 168.085 198.587 168.226C198.451 168.367 193.781 171.221 193.781 171.221L190.517 173.129C190.517 173.129 187.205 171.676 188.793 171.176C189.118 171.045 189.41 170.846 189.649 170.591L189.79 171.585L190.878 171.539L200.191 163.15C200.273 163.901 200.357 164.36 200.357 164.36Z" fill="black"/>
<path d="M200.243 163.362L190.878 171.808L189.79 171.853L189.563 170.261C189.563 170.261 187.66 172.713 183.43 172.576C183.43 172.576 180.891 174.257 184.655 174.348C188.418 174.439 193.225 174.211 193.225 174.211C193.225 174.211 196.582 168.981 199.391 169.663V173.613H200.255V169.627C200.656 169.356 200.998 169.007 201.262 168.601C201.525 168.195 201.703 167.739 201.786 167.262C201.86 166.77 201.807 166.268 201.632 165.803C201.457 165.337 201.164 164.925 200.784 164.606C200.614 164.446 200.478 164.254 200.385 164.04C200.292 163.826 200.244 163.595 200.243 163.362Z" fill="#1D2366"/>
<path d="M222.26 158.641C221.656 160.801 221.985 162.018 222.399 162.671V162.684C222.929 163.49 223.298 164.391 223.484 165.338L223.521 165.543L219.26 171.762L216.947 172.672C216.947 172.672 213.229 171.401 213.908 171.037C214.078 170.948 214.344 170.475 214.649 169.822C215.557 167.855 216.811 164.226 216.811 164.226V164.196C216.943 162.698 217.152 161.204 217.383 159.717C217.799 157.04 217.036 150.47 217.036 150.47C217.036 150.47 216.763 142.481 216.173 140.664C215.906 139.741 215.729 138.793 215.643 137.835C215.521 136.698 215.494 135.762 215.494 135.762C215.494 135.762 217.942 132.35 222.43 136.034C222.789 136.328 223.105 136.671 223.369 137.053C226.469 141.469 223.973 151.198 223.973 151.198C223.973 151.198 223.348 154.736 222.26 158.641Z" fill="#FFB0B1"/>
<path opacity="0.1" d="M223.528 165.543L219.266 171.762L216.954 172.672C216.954 172.672 213.236 171.401 213.915 171.037C214.085 170.948 214.351 170.475 214.655 169.822C216.229 169.809 217.045 171.31 217.045 171.31L219.039 170.991C219.039 170.991 221.669 165.816 222.26 165.499C222.851 165.183 222.351 163.137 222.351 163.137V162.616C222.367 162.634 222.38 162.655 222.399 162.673V162.686C222.929 163.492 223.298 164.394 223.484 165.34L223.528 165.543Z" fill="black"/>
<path d="M217.181 171.444C217.181 171.444 216.045 169.356 213.869 170.127C213.869 170.127 212.645 172.629 211.421 173.033C210.197 173.438 210.605 174.803 213.372 174.305C216.139 173.807 220.309 173.395 220.309 173.395L220.491 170.85L223.303 167.264C223.303 167.264 224.979 165.743 222.485 162.748V163.269C222.485 163.269 222.985 165.315 222.394 165.631C221.804 165.947 219.182 171.126 219.182 171.126L217.181 171.444Z" fill="#1D2366"/>
<path opacity="0.1" d="M200.448 134.534C200.487 135.221 200.577 135.905 200.716 136.58C198.158 136.205 195.785 136.391 194.229 136.514V134.488L200.448 134.534Z" fill="black"/>
<path opacity="0.1" d="M223.621 137.619C223.621 137.619 219.986 137.797 215.653 137.833C215.53 136.696 215.503 135.759 215.503 135.759C215.503 135.759 217.951 132.348 222.44 136.032C222.798 136.326 223.114 136.669 223.378 137.051C223.448 137.245 223.529 137.435 223.621 137.619Z" fill="black"/>
<path d="M223.621 137.21C223.621 137.21 207.703 137.981 202.851 136.619C197.999 135.257 193.191 136.437 192.466 136.121C191.741 135.805 192.33 130.854 192.966 129.628C193.602 128.403 197.091 116.007 197.091 116.007L200.448 98.4829L203.984 97.5073L204.234 97.4368L210.396 95.7358L214.912 94.4873C214.912 94.4873 223.891 129.583 223.121 132.171C222.841 133.162 222.796 134.204 222.989 135.216C223.107 135.907 223.319 136.578 223.621 137.21Z" fill="#1D2366"/>
<path d="M188.746 86.4985C188.746 86.4985 185.566 89.9096 187.973 91.8107C190.381 93.7119 191.964 91.9927 191.964 91.9927L188.746 86.4985Z" fill="#C7DAF5"/>
<path opacity="0.1" d="M188.746 86.4985C188.746 86.4985 185.566 89.9096 187.973 91.8107C190.381 93.7119 191.964 91.9927 191.964 91.9927L188.746 86.4985Z" fill="black"/>
<path d="M214.437 64.0717C214.437 64.0717 214.065 64.4265 213.504 64.9495C212.704 65.6977 211.521 66.7915 210.472 67.7079C209.018 68.9746 207.819 69.9047 208.248 69.111C208.677 68.3174 208.595 66.9348 208.382 65.6408C208.366 65.5544 208.352 65.468 208.336 65.3838C208.16 64.4336 207.925 63.4949 207.635 62.5731C207.635 62.5731 209.983 59.535 211.282 58.3365C211.766 57.8817 212.105 57.6952 212.125 58.0113C212.148 58.4366 212.466 59.3758 212.861 60.3718C212.872 60.4036 212.884 60.4332 212.897 60.465C213.161 61.1473 213.458 61.8477 213.72 62.4526C214.119 63.3804 214.437 64.0717 214.437 64.0717Z" fill="#FFB0B1"/>
<path opacity="0.1" d="M212.897 60.4651C212.677 61.6536 212.141 62.7609 211.347 63.6714C210.552 64.5819 209.528 65.262 208.382 65.6408C208.201 64.6027 207.952 63.5779 207.635 62.5731C207.635 62.5731 212.057 56.8539 212.125 58.0114C212.141 58.4502 212.486 59.4235 212.897 60.4651Z" fill="black"/>
<path opacity="0.1" d="M207.941 67.169L208.514 66.3617C208.514 66.3617 208.893 68.6767 210.288 67.6556C211.682 66.6346 211.75 75.3397 211.75 75.3397L210.253 97.746L199.437 97.0979L199.744 86.2711L200.968 80.8134L203.996 72.8792L205.797 70.2572L207.941 67.169Z" fill="black"/>
<path d="M211.75 75.4784L210.388 95.738L210.244 97.8848L204.214 97.5232L203.987 97.5095L199.444 97.2366L199.75 86.4076L200.975 80.9498L204.003 73.0156L205.804 70.3936L207.948 67.2941L208.52 66.489C208.52 66.489 208.9 68.804 210.294 67.783L210.324 67.7625C211.687 66.8984 211.75 75.4784 211.75 75.4784Z" fill="#1D2366"/>
<path d="M201.127 79.0533C201.127 79.0533 200.584 80.1903 199.494 80.0061C198.404 79.8219 198.406 84.0994 198.406 84.0994C198.406 84.0994 197.681 84.7816 197.182 84.1904C196.682 83.5991 195.364 85.598 195.364 85.598L187.11 85.9619C187.11 85.9619 190.783 87.6424 190.063 92.7272C190.063 92.7272 202.533 91.954 202.942 90.7738C203.351 89.5935 201.127 79.0533 201.127 79.0533Z" fill="white"/>
<path opacity="0.03" d="M201.127 79.0533C201.127 79.0533 200.584 80.1903 199.494 80.0061C198.404 79.8219 198.406 84.0994 198.406 84.0994C198.406 84.0994 197.681 84.7816 197.182 84.1904C196.682 83.5991 195.364 85.598 195.364 85.598L187.11 85.9619C187.11 85.9619 190.783 87.6424 190.063 92.7272C190.063 92.7272 202.533 91.954 202.942 90.7738C203.351 89.5935 201.127 79.0533 201.127 79.0533Z" fill="black"/>
<path d="M177.138 88.6339L179.314 90.4941L197.227 94.2622L195.005 91.9927L177.138 88.6339Z" fill="white"/>
<path d="M207.975 67.8853C207.678 68.3401 206.826 70.6688 206.115 72.7018C205.522 74.396 205.027 75.8855 205.027 75.8855C205.027 75.8855 203.871 83.4217 203.28 84.7839C202.69 86.1461 203.01 91.4583 203.01 91.4583L200.809 104.577C200.809 104.577 199.812 111.343 198.272 115.384C196.752 119.361 195.06 121.226 195.008 121.285C195.689 120.362 199.403 102.183 199.403 102.183L200.63 79.2556C200.63 79.2556 200.809 77.0771 200.991 75.2146C201.172 73.3522 204.852 70.8098 204.852 70.8098L208.4 65.7591C208.757 66.2366 208.518 67.0689 207.975 67.8853Z" fill="white"/>
<path d="M198.724 97.3504C198.724 97.3504 193.499 97.123 190.969 94.0803C188.439 91.0376 196.818 92.8659 196.818 92.8659L198.996 93.3662L198.724 97.3504Z" fill="#FFB0B1"/>
<path opacity="0.1" d="M223.121 132.173C222.841 133.164 222.796 134.207 222.989 135.218C217.29 135.623 211.194 134.081 211.194 134.081C210.058 135.127 207.067 136.669 207.067 136.669L205.436 116.43C204.393 113.701 203.984 99.4038 203.984 99.4038C203.984 99.4038 204.078 98.6557 204.212 97.5345C204.212 97.5073 204.212 97.4777 204.223 97.4504C204.629 94.319 205.436 88.4406 205.831 87.6469C206.376 86.5554 204.155 83.6514 204.155 83.6514L205.165 75.0213L205.288 73.9798C207.419 73.027 209.052 69.9843 209.052 69.9843L210.306 67.7853C211.669 66.9097 211.739 75.4898 211.739 75.4898L210.376 95.7494L214.892 94.5009C214.892 94.5009 223.891 129.585 223.121 132.173Z" fill="black"/>
<path d="M228.97 133.572C222.757 136.66 211.466 133.799 211.466 133.799C210.331 134.845 207.339 136.387 207.339 136.387L205.706 116.148C204.666 113.419 204.257 99.1219 204.257 99.1219C204.257 99.1219 205.57 88.4542 206.115 87.365C206.274 87.0466 206.197 86.5736 206.008 86.0642C205.081 83.6396 204.74 81.03 205.013 78.4484L205.449 74.7394L205.57 73.7001C207.703 72.745 209.336 69.7023 209.336 69.7023L210.471 67.7102L212.561 64.0399L213.551 62.3025L213.72 62.4549L215.003 63.6192C215.003 63.6192 215.548 64.074 216.366 64.7562C218.144 66.2571 221.217 68.8996 222.803 70.5164C224.198 71.94 224.638 77.4773 224.765 81.6457C224.849 84.3905 224.799 86.5417 224.799 86.5417C223.393 88.859 227.071 107.463 227.071 107.463C227.927 111.058 228.97 133.572 228.97 133.572Z" fill="white"/>
<path opacity="0.03" d="M217.045 69.6568C217.045 69.6568 212.782 77.782 213.277 80.8702C213.772 83.9584 215.18 87.4536 214.501 88.27C214.268 88.5793 213.966 88.8304 213.62 89.0036C213.273 89.1768 212.892 89.2674 212.504 89.2683C211.823 89.3138 210.006 90.585 210.006 90.7215C210.006 90.8579 208.327 90.8579 206.826 91.4946C205.325 92.1314 203.108 92.4929 203.108 92.4929C203.108 92.4929 198.792 92.3565 198.39 92.7658C197.988 93.1752 197.574 95.6243 198.435 97.5778C199.296 99.5312 200.252 100.989 200.975 101.255C201.697 101.521 206.281 99.9837 209.999 99.6199C213.717 99.256 217.754 96.3066 217.754 96.3066C217.754 96.3066 222.199 94.7147 222.978 92.0381C223.757 89.3616 222.026 74.6507 222.026 74.6507C222.026 74.6507 220.718 67.7944 217.045 69.6568Z" fill="black"/>
<path opacity="0.03" d="M216.5 68.9746C216.5 68.9746 212.236 77.1021 212.736 80.188C213.236 83.2739 214.64 86.7714 213.958 87.5901C213.726 87.8997 213.424 88.1511 213.078 88.3243C212.732 88.4975 212.351 88.588 211.964 88.5884C211.282 88.6339 209.465 89.9051 209.465 90.0415C209.465 90.178 207.787 90.178 206.285 90.8124C204.784 91.4469 202.567 91.8107 202.567 91.8107C202.567 91.8107 198.251 91.6743 197.852 92.0836C197.452 92.493 197.034 94.9444 197.897 96.8955C198.76 98.8467 199.714 100.307 200.436 100.573C201.159 100.839 205.742 99.3015 209.461 98.9399C213.179 98.5783 217.215 95.6243 217.215 95.6243C217.215 95.6243 221.658 94.0325 222.428 91.3582C223.198 88.6839 221.477 73.9684 221.477 73.9684C221.477 73.9684 220.173 67.1144 216.5 68.9746Z" fill="black"/>
<path d="M216.911 69.2475C216.911 69.2475 212.647 77.375 213.147 80.4609C213.647 83.5468 215.051 87.0443 214.371 87.8607C214.139 88.1711 213.837 88.423 213.491 88.5967C213.144 88.7703 212.762 88.8609 212.375 88.8613C211.693 88.9068 209.876 90.178 209.876 90.3121C209.876 90.4463 208.2 90.4486 206.696 91.0853C205.193 91.7221 202.978 92.0836 202.978 92.0836C202.978 92.0836 198.662 91.9472 198.26 92.3565C197.858 92.7659 197.445 95.2173 198.306 97.1684C199.167 99.1196 200.123 100.58 200.845 100.846C201.567 101.112 206.151 99.5744 209.869 99.2105C213.588 98.8467 217.624 95.8972 217.624 95.8972C217.624 95.8972 222.069 94.3054 222.848 91.6288C223.627 88.9522 221.908 74.2413 221.908 74.2413C221.908 74.2413 220.581 67.3964 216.911 69.2475Z" fill="white"/>
<path opacity="0.1" d="M216.818 91.0467C216.818 91.0467 213.411 90.3644 214.596 91.5015C215.782 92.6385 215.775 93.6345 217.227 93.5891C218.678 93.5436 216.818 91.0467 216.818 91.0467Z" fill="black"/>
<path opacity="0.1" d="M222.576 115.511C222.576 115.511 221.036 116.555 223.982 118.961C226.928 121.367 222.576 115.511 222.576 115.511Z" fill="black"/>
<path opacity="0.1" d="M219.637 124.091C219.637 124.228 219.092 129.094 221.131 130.311C223.171 131.527 219.637 124.091 219.637 124.091Z" fill="black"/>
<path d="M187.251 85.9505C185.606 86.0073 182.054 86.5099 183.896 89.9506C185.525 92.9955 188.262 90.9602 189.802 89.4162C189.426 87.9766 188.513 86.7361 187.251 85.9505Z" fill="#FFB0B1"/>
<path opacity="0.1" d="M216.366 64.8949C214.621 66.0888 213.159 67.0962 212.872 67.3054C212.091 67.8853 210.601 71.2896 209.64 73.027C208.875 74.4255 206.388 74.7848 205.449 74.8735L205.57 73.8343C207.703 72.8792 209.336 69.8365 209.336 69.8365L213.552 62.4367L215.003 63.7579C215.003 63.7579 215.548 64.2127 216.366 64.8949Z" fill="black"/>
<path d="M216.366 64.7585C214.621 65.9524 213.159 66.9598 212.872 67.1713C212.091 67.7489 210.601 71.1532 209.64 72.8905C208.875 74.2891 206.388 74.6484 205.449 74.7371L205.57 73.6978C207.703 72.7427 209.336 69.7 209.336 69.7L213.552 62.3002L215.003 63.6169C215.003 63.6169 215.548 64.0672 216.366 64.7585Z" fill="#DCE7FF"/>
<path d="M213.009 58.9642C213.01 60.3293 212.596 61.6624 211.823 62.7869C210.91 64.1164 209.551 65.0741 207.993 65.4864C206.435 65.8986 204.781 65.738 203.331 65.0337C201.881 64.3294 200.731 63.1281 200.09 61.6477C199.449 60.1673 199.36 58.506 199.838 56.9651C200.316 55.4242 201.329 54.1059 202.695 53.2494C204.061 52.3928 205.688 52.0548 207.281 52.2967C208.875 52.5385 210.329 53.3442 211.38 54.5675C212.43 55.7908 213.008 57.3507 213.009 58.9642Z" fill="#FFB0B1"/>
<path opacity="0.1" d="M224.765 81.648C223.843 81.0799 223.092 80.2719 222.592 79.3102C222.212 78.5598 221.96 77.6934 221.313 77.1612C220.729 76.6837 219.95 76.5677 219.223 76.3539C216.834 75.6467 214.83 73.4636 214.755 70.9712C214.719 69.7978 215.085 68.6267 214.919 67.4646C214.825 66.807 214.563 66.1845 214.16 65.6567C213.96 65.4043 213.741 65.1679 213.504 64.9495C213.186 64.6493 212.852 64.3583 212.561 64.0399C212.378 63.8428 212.218 63.6253 212.084 63.3918C211.976 63.2007 211.889 62.9987 211.823 62.7892C211.369 61.3974 211.782 59.7465 211.282 58.3388L211.255 58.2615C211.067 57.7612 210.683 57.2609 210.149 57.2222C209.615 57.1836 209.159 57.627 208.65 57.8249C207.584 58.2388 206.435 57.5338 205.547 56.8152C204.659 56.0966 203.657 55.2756 202.528 55.4348C201.781 55.5417 201.19 56.0511 200.502 56.3149C200.347 56.3751 200.186 56.4215 200.023 56.4536C200.605 54.9994 201.676 53.7936 203.049 53.0435C204.423 52.2933 206.015 52.0456 207.552 52.343C209.088 52.6403 210.474 53.4641 211.469 54.6728C212.465 55.8815 213.009 57.3997 213.009 58.9665C213.009 59.4396 212.96 59.9114 212.861 60.3741C212.872 60.4059 212.884 60.4355 212.897 60.4673C213.161 61.1496 213.458 61.85 213.72 62.4549L215.003 63.6192C215.003 63.6192 215.548 64.074 216.366 64.7562C218.144 66.2571 221.217 68.8996 222.803 70.5164C224.198 71.9445 224.634 77.4796 224.765 81.648Z" fill="black"/>
<path d="M200.423 52.1602C200.747 51.4984 200.909 50.7571 201.297 50.1294C201.867 49.2198 202.862 48.6376 203.884 48.2852C206.553 47.3642 212.193 46.027 213.879 48.2852C214.21 48.74 214.485 49.2448 214.944 49.5586C215.294 49.7974 215.716 49.8998 216.1 50.0794C217.174 50.5842 217.86 51.6849 218.226 52.8083C218.592 53.9317 218.701 55.1369 218.969 56.2944C219.312 57.7794 219.914 59.187 220.513 60.5856C221.22 62.2365 221.969 63.9489 223.332 65.1155C225.192 66.7074 225.604 68.961 227.33 70.7074C229.374 72.7814 229.308 76.2038 228.254 78.9213C228.116 79.2784 227.959 79.6513 228.014 80.0311C228.068 80.4109 228.35 80.7565 228.615 81.059L229.733 82.3211C227.089 82.9601 224.098 81.5774 222.866 79.151C222.487 78.4006 222.235 77.5364 221.585 77.002C221.004 76.5245 220.223 76.4108 219.498 76.197C217.108 75.4875 215.105 73.3021 215.03 70.8098C214.994 69.6386 215.359 68.4675 215.194 67.3077C215.101 66.6456 214.839 66.0188 214.433 65.4885C213.808 64.6721 212.865 64.124 212.357 63.2144C211.496 61.693 212.15 59.7169 211.53 58.0841C211.339 57.5838 210.957 57.0835 210.424 57.0449C209.89 57.0062 209.433 57.4496 208.922 57.6475C207.859 58.0614 206.71 57.3587 205.822 56.6378C204.934 55.9169 203.932 55.0983 202.801 55.2597C202.054 55.3643 201.465 55.8737 200.777 56.1398C200.268 56.3354 199.237 56.5105 198.792 56.0807C197.851 55.2142 200.03 52.9697 200.423 52.1602Z" fill="#591D4B"/>
<path opacity="0.1" d="M223.498 78.4006C223.116 77.6502 222.867 76.786 222.217 76.2539C221.636 75.7763 220.854 75.6603 220.127 75.4466C217.74 74.7393 215.737 72.554 215.659 70.0616C215.623 68.8905 215.989 67.717 215.825 66.5573C215.73 65.8994 215.468 65.277 215.064 64.7494C214.437 63.933 213.495 63.3849 212.988 62.4753C212.127 60.9562 212.782 58.9801 212.159 57.345C211.971 56.847 211.587 56.3467 211.055 56.3058C210.524 56.2649 210.063 56.7128 209.554 56.9107C208.491 57.3246 207.339 56.6196 206.453 55.901C205.568 55.1824 204.561 54.3615 203.432 54.5206C202.685 54.6275 202.095 55.1369 201.409 55.4007C200.9 55.5963 199.866 55.7737 199.421 55.3439C198.485 54.4342 200.664 52.1943 201.054 51.3893C201.379 50.7252 201.54 49.9862 201.931 49.3585C201.951 49.3244 201.974 49.2903 201.997 49.2562C201.705 49.4986 201.452 49.7856 201.25 50.1067C200.861 50.7343 200.7 51.4711 200.375 52.1374C199.982 52.9424 197.804 55.1892 198.742 56.092C199.196 56.5241 200.218 56.3467 200.727 56.1511C201.409 55.8851 202.004 55.3757 202.751 55.2711C203.887 55.1096 204.886 55.9306 205.772 56.6492C206.658 57.3678 207.816 58.0727 208.875 57.6589C209.384 57.461 209.829 57.0153 210.374 57.0562C210.919 57.0972 211.282 57.5952 211.48 58.0955C212.1 59.7283 211.446 61.7044 212.307 63.2258C212.816 64.1195 213.758 64.6789 214.383 65.4998C214.789 66.0302 215.052 66.657 215.144 67.3191C215.31 68.4788 214.944 69.65 214.98 70.8211C215.055 73.3226 217.059 75.4989 219.448 76.2084C220.168 76.4222 220.954 76.5359 221.536 77.0134C222.187 77.5478 222.444 78.412 222.817 79.1624C224.048 81.5888 227.039 82.9715 229.683 82.3324L229.156 81.7366C226.864 81.7707 224.545 80.4654 223.498 78.4006Z" fill="black"/>
<path opacity="0.1" d="M207.839 68.0218C207.541 68.4766 206.69 70.8052 205.979 72.8382C205.313 72.579 204.709 70.9257 204.709 70.9257L208.257 65.8728C208.62 66.3731 208.382 67.2031 207.839 68.0218Z" fill="black"/>
<path d="M207.975 67.8853C207.678 68.3401 206.826 70.6688 206.115 72.7018C205.449 72.4448 204.845 70.7893 204.845 70.7893L208.393 65.7386C208.757 66.2366 208.518 67.0689 207.975 67.8853Z" fill="#DCE7FF"/>
<path d="M187.346 91.1172L185.379 84.9067C185.356 84.834 185.347 84.7574 185.354 84.6813C185.36 84.6052 185.381 84.5311 185.416 84.4633C185.451 84.3955 185.499 84.3352 185.558 84.2861C185.616 84.2369 185.684 84.1997 185.756 84.1767C185.903 84.131 186.061 84.145 186.197 84.2157C186.333 84.2864 186.436 84.408 186.483 84.5542L188.45 90.7579L188.255 92.0563L187.346 91.1172Z" fill="#BE8B87"/>
<path opacity="0.1" d="M185.565 84.3609C185.712 84.3145 185.871 84.3281 186.008 84.3989C186.145 84.4696 186.248 84.5917 186.295 84.7384L188.262 90.9421L188.114 91.9154L188.257 92.0654L188.452 90.767L186.474 84.5633C186.427 84.4171 186.324 84.2955 186.188 84.2248C186.052 84.1541 185.894 84.1401 185.747 84.1858C185.624 84.2258 185.518 84.3059 185.445 84.4132C185.484 84.3925 185.524 84.375 185.565 84.3609Z" fill="white"/>
<path d="M187.346 91.1172L188.45 90.767L188.289 91.8312L188.255 92.0654L187.932 91.7289L187.346 91.1172Z" fill="#EFC8C4"/>
<path d="M187.932 91.7289C187.952 91.7046 187.976 91.6844 188.003 91.6697C188.019 91.6596 188.037 91.6543 188.056 91.6543C188.075 91.6543 188.094 91.6596 188.11 91.6697C188.125 91.6885 188.138 91.7091 188.148 91.7311C188.163 91.7562 188.184 91.7776 188.208 91.7938C188.232 91.8099 188.26 91.8204 188.289 91.8244L188.255 92.0518L187.932 91.7289Z" fill="#727A9C"/>
<path d="M185.368 87.1125C185.368 87.1125 189.313 87.0898 188.384 88.7703C187.455 90.4509 186.004 90.6532 186.004 90.6532L185.368 87.1125Z" fill="#FFB0B1"/>
<path d="M160.83 11.6932H160.659C153.882 11.6932 147.887 15.284 144.439 20.5826C140.991 15.284 134.997 11.6932 128.219 11.6932H128.049C122.962 11.7418 118.1 13.7981 114.519 17.4154C110.939 21.0327 108.929 25.9186 108.926 31.0114C108.926 37.3356 111.692 46.309 117.087 53.6929C127.365 67.7625 144.439 80.072 144.439 80.072C144.439 80.072 161.513 67.7648 171.789 53.6929C177.186 46.309 179.951 37.3356 179.951 31.0114C179.948 25.919 177.938 21.0334 174.358 17.4162C170.777 13.799 165.916 11.7424 160.83 11.6932ZM158.393 54.7754C157.621 54.7724 156.868 54.5359 156.232 54.0967C155.597 53.6576 155.11 53.0365 154.833 52.3148H150.781C150.514 52.3132 150.255 52.2281 150.038 52.0716C149.822 51.915 149.66 51.6948 149.575 51.4416L148.33 47.6871L144.392 61.4657C144.315 61.7309 144.154 61.9641 143.934 62.1301C143.714 62.2962 143.445 62.3862 143.17 62.3867H143.09C142.802 62.3727 142.528 62.2603 142.313 62.0683C142.098 61.8763 141.955 61.6162 141.909 61.3315L137.85 36.8899L134.883 51.3529C134.815 51.6277 134.657 51.8717 134.435 52.046C134.212 52.2204 133.937 52.315 133.655 52.3148H127.947C127.775 52.3221 127.605 52.2946 127.444 52.234C127.284 52.1735 127.138 52.0811 127.014 51.9624C126.891 51.8438 126.792 51.7013 126.725 51.5436C126.658 51.3859 126.623 51.2162 126.623 51.0448C126.623 50.8733 126.658 50.7036 126.725 50.5459C126.792 50.3882 126.891 50.2457 127.014 50.1271C127.138 50.0084 127.284 49.916 127.444 49.8555C127.605 49.7949 127.775 49.7675 127.947 49.7747H132.655L136.857 30.3292C136.926 30.0417 137.093 29.7871 137.329 29.609C137.564 29.4308 137.854 29.3402 138.15 29.3525C138.445 29.3649 138.726 29.4795 138.946 29.6767C139.166 29.8739 139.311 30.1415 139.356 30.4338L143.501 55.3666L147.031 43.0389C147.104 42.7793 147.26 42.5504 147.474 42.3865C147.688 42.2225 147.949 42.1323 148.219 42.1293H148.244C148.511 42.1294 148.771 42.2139 148.987 42.3707C149.203 42.5275 149.365 42.7486 149.448 43.0025L151.699 49.7815H154.783C155.003 49.1145 155.402 48.521 155.937 48.0667C156.472 47.6124 157.121 47.3149 157.815 47.207C158.508 47.0992 159.217 47.1851 159.865 47.4554C160.512 47.7257 161.072 48.1698 161.483 48.7388C161.895 49.3077 162.141 49.9793 162.195 50.6795C162.249 51.3797 162.109 52.0812 161.79 52.7067C161.471 53.3321 160.985 53.8571 160.387 54.2238C159.789 54.5904 159.101 54.7845 158.399 54.7845L158.393 54.7754Z" fill="#00A8FF"/>
</g>
<defs>
<linearGradient id="paint0_linear_54912_28100" x1="81.4371" y1="176.21" x2="81.4371" y2="36.2781" gradientUnits="userSpaceOnUse">
<stop stop-color="#808080" stop-opacity="0.25"/>
<stop offset="0.54" stop-color="#808080" stop-opacity="0.12"/>
<stop offset="1" stop-color="#808080" stop-opacity="0.1"/>
</linearGradient>
<linearGradient id="paint1_linear_54912_28100" x1="203.435" y1="174.441" x2="203.435" y2="46.6388" gradientUnits="userSpaceOnUse">
<stop stop-color="#808080" stop-opacity="0.25"/>
<stop offset="0.54" stop-color="#808080" stop-opacity="0.12"/>
<stop offset="1" stop-color="#808080" stop-opacity="0.1"/>
</linearGradient>
<clipPath id="clip0_54912_28100">
<rect width="251" height="178" fill="white" transform="translate(0.5)"/>
</clipPath>
</defs>
</svg>
