<svg width="155" height="134" viewBox="0 0 155 134" fill="none" xmlns="http://www.w3.org/2000/svg">
<path d="M50.3423 14.2407L52.0202 21.9216L48.4512 32.6126L42.7012 21.126L43.499 14.4621L50.3423 14.2407Z" fill="#FDB4B4"/>
<path d="M52.3325 21.5239H42.4043V33.5576H52.3325V21.5239Z" fill="#21005D"/>
<path d="M48.25 18.1099C51.9946 18.1099 55.0302 15.0647 55.0302 11.3082C55.0302 7.55179 51.9946 4.50659 48.25 4.50659C44.5053 4.50659 41.4697 7.55179 41.4697 11.3082C41.4697 15.0647 44.5053 18.1099 48.25 18.1099Z" fill="#FDB4B4"/>
<path d="M42.3474 16.3659C42.3474 16.3659 37.2934 7.00251 41.8502 2.49662C46.407 -2.00927 50.065 0.959828 50.065 0.959828L52.1538 0.875143C52.1538 0.875143 52.5895 2.52421 53.2919 1.6315C53.9944 0.738791 55.2638 3.98992 55.2638 3.98992C57.6199 8.24642 49.4523 9.19996 49.4523 9.19996C49.4523 9.19996 50.0421 11.0846 49.4426 11.4793C48.8432 11.874 47.2415 13.3587 47.2415 13.3587L45.8079 14.4449L44.9559 13.1427C44.9559 13.1427 44.066 12.438 43.6164 12.7341C43.1668 13.0301 43.7853 16.9249 43.7853 16.9249L42.3474 16.3659Z" fill="#2E2E41"/>
<path d="M34.2134 85.2507L31.6211 124.041L37.9938 124.257L46.4186 85.5758L34.2134 85.2507Z" fill="#2E2E41"/>
<path d="M49.6596 85.0339L47.0674 123.824L53.44 124.041L61.8649 85.359L49.6596 85.0339Z" fill="#2E2E41"/>
<path d="M32.6526 94.1131L36.0451 51.8654L30.8426 29.866C30.3941 26.5958 32.4481 23.5015 35.6182 22.6577L40.7089 21.3029L42.9621 19.0425L48.0872 30.396L51.288 19.0511L53.7843 20.8724L61.188 24.149L61.1846 24.2258L59.997 50.8009L62.648 93.7369L62.5304 93.7385L32.6526 94.1131Z" fill="#E8E9EA"/>
<path d="M53.0303 123.6L54.8755 129.126C54.8755 129.126 62.0945 130.11 62.2068 132.352C62.3191 134.594 52.3959 133.296 46.5852 133.589C40.7746 133.882 45.6115 127.57 45.6115 127.57L46.2307 123.943L53.0303 123.6Z" fill="#2E2E41"/>
<path d="M37.961 123.202L39.8062 128.728C39.8062 128.728 47.0251 129.712 47.1375 131.954C47.2498 134.196 37.3265 132.898 31.5159 133.191C25.7053 133.484 30.5422 127.172 30.5422 127.172L31.1614 123.545L37.961 123.202Z" fill="#2E2E41"/>
<path d="M28.9585 71.6757C28.8803 70.5861 29.0633 69.4937 29.4924 68.4897L28.1152 57.1569L33.5099 56.6572L34.3259 68.2068C34.868 69.1538 35.1762 70.2172 35.2247 71.3081C35.3834 74.0369 34.1092 76.3302 32.3787 76.4315C30.6481 76.5328 29.1168 74.4035 28.9585 71.6757Z" fill="#FDB4B4"/>
<path d="M63.1278 73.3391C63.0614 72.2488 63.2564 71.1584 63.6963 70.1591L62.4424 58.812L67.8422 58.3713L68.5326 69.9292C69.0644 70.882 69.361 71.9487 69.3976 73.0401C69.5266 75.7705 68.2276 78.0497 66.4961 78.132C64.7645 78.2144 63.2564 76.0685 63.1278 73.3391Z" fill="#FDB4B4"/>
<path d="M28.0934 67.1309L28.0752 67.0332L25.2637 51.9003L28.5858 27.2582C28.8822 25.0581 30.8405 23.4733 33.0488 23.6505C34.2021 23.7431 35.2368 24.2918 35.9626 25.1957C36.6883 26.0996 37.0023 27.2308 36.8467 28.3809L34.3464 46.8622L35.9206 66.6297L28.0934 67.1309Z" fill="#E8E9EA"/>
<path d="M61.4615 66.7757L55.8089 28.9246C55.5151 27.8148 55.687 26.6533 56.2956 25.6663C56.9042 24.6792 57.8633 24.0063 58.9964 23.7712C61.164 23.3214 63.3045 24.6506 63.8702 26.7967L69.3006 66.3004L61.4615 66.7757Z" fill="#E8E9EA"/>
<path d="M48.2535 33.8559C48.6368 33.8559 48.9475 33.5443 48.9475 33.1598C48.9475 32.7753 48.6368 32.4636 48.2535 32.4636C47.8703 32.4636 47.5596 32.7753 47.5596 33.1598C47.5596 33.5443 47.8703 33.8559 48.2535 33.8559Z" fill="#D6D7D8"/>
<path d="M48.2535 39.1267C48.6368 39.1267 48.9475 38.815 48.9475 38.4305C48.9475 38.0461 48.6368 37.7344 48.2535 37.7344C47.8703 37.7344 47.5596 38.0461 47.5596 38.4305C47.5596 38.815 47.8703 39.1267 48.2535 39.1267Z" fill="#D6D7D8"/>
<path d="M48.2535 44.3977C48.6368 44.3977 48.9475 44.086 48.9475 43.7015C48.9475 43.3171 48.6368 43.0054 48.2535 43.0054C47.8703 43.0054 47.5596 43.3171 47.5596 43.7015C47.5596 44.086 47.8703 44.3977 48.2535 44.3977Z" fill="#D6D7D8"/>
<path d="M48.2535 49.6687C48.6368 49.6687 48.9475 49.357 48.9475 48.9725C48.9475 48.588 48.6368 48.2764 48.2535 48.2764C47.8703 48.2764 47.5596 48.588 47.5596 48.9725C47.5596 49.357 47.8703 49.6687 48.2535 49.6687Z" fill="#D6D7D8"/>
<path d="M48.2535 54.9397C48.6368 54.9397 48.9475 54.628 48.9475 54.2435C48.9475 53.859 48.6368 53.5474 48.2535 53.5474C47.8703 53.5474 47.5596 53.859 47.5596 54.2435C47.5596 54.628 47.8703 54.9397 48.2535 54.9397Z" fill="#D6D7D8"/>
<path d="M48.2535 60.2104C48.6368 60.2104 48.9475 59.8988 48.9475 59.5143C48.9475 59.1298 48.6368 58.8181 48.2535 58.8181C47.8703 58.8181 47.5596 59.1298 47.5596 59.5143C47.5596 59.8988 47.8703 60.2104 48.2535 60.2104Z" fill="#D6D7D8"/>
<path d="M48.2535 65.4814C48.6368 65.4814 48.9475 65.1697 48.9475 64.7853C48.9475 64.4008 48.6368 64.0891 48.2535 64.0891C47.8703 64.0891 47.5596 64.4008 47.5596 64.7853C47.5596 65.1697 47.8703 65.4814 48.2535 65.4814Z" fill="#D6D7D8"/>
<path d="M48.2535 70.7524C48.6368 70.7524 48.9475 70.4407 48.9475 70.0563C48.9475 69.6718 48.6368 69.3601 48.2535 69.3601C47.8703 69.3601 47.5596 69.6718 47.5596 70.0563C47.5596 70.4407 47.8703 70.7524 48.2535 70.7524Z" fill="#D6D7D8"/>
<path d="M48.254 74.8297L35.1233 73.0743L34.8704 73.0406L28.1596 57.5182L24.1631 48.2766H34.5728L48.254 74.8297Z" fill="#21005D"/>
<path d="M100.901 15.9296L109.25 11.3418V24.4498H99.5947L100.901 15.9296Z" fill="#2E2E41"/>
<path d="M111.039 18.852L111.81 25.2872L106.257 36.3797L102.811 26.0555L104.431 18.6382L111.039 18.852Z" fill="#FDB4B4"/>
<path d="M112.096 25.6714H102.509V37.2921H112.096V25.6714Z" fill="#21005D"/>
<path d="M120.006 87.2114L122.509 124.67L116.355 124.88L108.22 87.5253L120.006 87.2114Z" fill="#2E2E41"/>
<path d="M105.09 87.0022L107.593 124.461L101.439 124.67L93.3037 87.3161L105.09 87.0022Z" fill="#2E2E41"/>
<path d="M126.508 95.1563L126.361 95.1559L87.1572 95.0274L87.1924 94.8882L97.2716 54.8282L94.7468 34.6114C94.2684 30.7805 96.3127 27.1596 99.8338 25.6013L101.105 25.0388L103.52 23.2771L106.609 34.2278L111.556 23.2686L113.736 25.4544L118.65 26.7626C121.714 27.5778 123.699 30.5678 123.267 33.7175L123.262 33.7394L115.756 55.2237L126.508 95.1563Z" fill="#E8E9EA"/>
<path d="M101.835 124.245L108.401 124.576L108.999 128.079C108.999 128.079 113.67 134.174 108.059 133.891C102.448 133.608 92.8651 134.862 92.9736 132.697C93.082 130.532 100.053 129.581 100.053 129.581L101.835 124.245Z" fill="#2E2E41"/>
<path d="M116.387 123.861L122.953 124.192L123.551 127.695C123.551 127.695 128.222 133.79 122.611 133.507C117 133.224 107.417 134.478 107.525 132.313C107.634 130.148 114.605 129.197 114.605 129.197L116.387 123.861Z" fill="#2E2E41"/>
<path d="M122.4 73.7182C122.247 76.3525 120.768 78.4086 119.097 78.3108C117.426 78.213 116.196 75.9984 116.349 73.3632C116.396 72.3097 116.693 71.2828 117.217 70.3684L118.005 59.2151L123.214 59.6976L121.884 70.6415C122.299 71.6111 122.476 72.6661 122.4 73.7182Z" fill="#FDB4B4"/>
<path d="M95.6287 72.7165C95.42 75.3469 93.8979 77.371 92.2292 77.2375C90.5605 77.104 89.3774 74.8637 89.5865 72.2324C89.6556 71.1801 89.975 70.1598 90.5178 69.2567L91.5422 58.1228L96.7404 58.7164L95.1786 69.6295C95.5722 70.6076 95.7266 71.6662 95.6287 72.7165Z" fill="#FDB4B4"/>
<path d="M123.239 69.3333L115.673 68.8489L115.682 68.7351L117.193 49.7561L114.779 31.9094C114.628 30.7978 114.932 29.7043 115.633 28.8307C116.335 27.9569 117.335 27.4265 118.45 27.3369C120.584 27.1681 122.477 28.6977 122.764 30.8242L125.972 54.6214L125.969 54.6392L123.239 69.3333Z" fill="#E8E9EA"/>
<path d="M96.8885 68.6063L89.3105 68.1467L89.3272 68.0267L94.5527 30.0074C95.1023 27.9193 97.1722 26.6349 99.2665 27.0694C100.362 27.2966 101.289 27.9472 101.877 28.9013C102.465 29.8554 102.632 30.978 102.345 32.0624L96.8885 68.6063Z" fill="#E8E9EA"/>
<path d="M106.448 37.5801C106.819 37.5801 107.119 37.2792 107.119 36.9079C107.119 36.5366 106.819 36.2356 106.448 36.2356C106.078 36.2356 105.778 36.5366 105.778 36.9079C105.778 37.2792 106.078 37.5801 106.448 37.5801Z" fill="#D6D7D8"/>
<path d="M106.448 42.6702C106.819 42.6702 107.119 42.3692 107.119 41.998C107.119 41.6267 106.819 41.3257 106.448 41.3257C106.078 41.3257 105.778 41.6267 105.778 41.998C105.778 42.3692 106.078 42.6702 106.448 42.6702Z" fill="#D6D7D8"/>
<path d="M106.448 47.7603C106.819 47.7603 107.119 47.4593 107.119 47.088C107.119 46.7168 106.819 46.4158 106.448 46.4158C106.078 46.4158 105.778 46.7168 105.778 47.088C105.778 47.4593 106.078 47.7603 106.448 47.7603Z" fill="#D6D7D8"/>
<path d="M106.448 52.8504C106.819 52.8504 107.119 52.5494 107.119 52.1781C107.119 51.8068 106.819 51.5059 106.448 51.5059C106.078 51.5059 105.778 51.8068 105.778 52.1781C105.778 52.5494 106.078 52.8504 106.448 52.8504Z" fill="#D6D7D8"/>
<path d="M106.448 57.9405C106.819 57.9405 107.119 57.6395 107.119 57.2682C107.119 56.8969 106.819 56.5959 106.448 56.5959C106.078 56.5959 105.778 56.8969 105.778 57.2682C105.778 57.6395 106.078 57.9405 106.448 57.9405Z" fill="#D6D7D8"/>
<path d="M106.448 63.0306C106.819 63.0306 107.119 62.7296 107.119 62.3583C107.119 61.987 106.819 61.686 106.448 61.686C106.078 61.686 105.778 61.987 105.778 62.3583C105.778 62.7296 106.078 63.0306 106.448 63.0306Z" fill="#D6D7D8"/>
<path d="M106.448 68.1207C106.819 68.1207 107.119 67.8197 107.119 67.4484C107.119 67.0771 106.819 66.7761 106.448 66.7761C106.078 66.7761 105.778 67.0771 105.778 67.4484C105.778 67.8197 106.078 68.1207 106.448 68.1207Z" fill="#D6D7D8"/>
<path d="M106.448 73.2108C106.819 73.2108 107.119 72.9098 107.119 72.5385C107.119 72.1672 106.819 71.8662 106.448 71.8662C106.078 71.8662 105.778 72.1672 105.778 72.5385C105.778 72.9098 106.078 73.2108 106.448 73.2108Z" fill="#D6D7D8"/>
<path d="M107.466 22.1363C110.928 22.1363 113.734 19.321 113.734 15.8482C113.734 12.3753 110.928 9.56006 107.466 9.56006C104.004 9.56006 101.197 12.3753 101.197 15.8482C101.197 19.321 104.004 22.1363 107.466 22.1363Z" fill="#FDB4B4"/>
<path d="M110.751 8.50758C111.051 9.1204 110.575 9.88589 109.944 10.1435C109.314 10.4012 108.602 10.2968 107.93 10.1895C107.257 10.0823 106.544 9.9806 105.916 10.2428C105.102 10.5821 104.644 11.4331 104.249 12.2229C103.511 13.6972 102.774 15.1716 102.036 16.6459C101.676 17.3662 101.307 18.1189 101.3 18.9248C101.288 20.4041 102.458 21.5864 103.087 22.9242C103.853 24.5531 103.79 26.5493 102.922 28.1262C102.054 29.703 100.404 30.8202 98.6217 31.0376C98.1528 31.0947 97.6564 31.0885 97.2348 30.8748C96.8132 30.6611 96.4913 30.1943 96.5694 29.7269C96.7221 28.8128 98.1146 28.5992 98.3703 27.7085C98.5038 27.2435 98.2674 26.747 97.9487 26.3838C97.6299 26.0206 97.2269 25.7373 96.9229 25.3617C96.2218 24.4955 96.1751 23.1583 96.814 22.245C97.1894 21.7083 97.7702 21.3095 98.0128 20.7006C98.2197 20.1817 98.1446 19.5983 98.0662 19.045C97.9656 18.3339 97.8649 17.6229 97.7642 16.9119C97.6468 16.0823 97.5312 15.223 97.7633 14.4181C98.2951 12.5735 100.371 11.7073 101.589 10.2257C102.155 9.53717 102.535 8.70916 103.116 8.03306C104.09 6.89848 105.623 6.27259 107.11 6.4027C108.597 6.53281 110 7.41558 110.763 8.7022" fill="#2E2E41"/>
<path d="M109.761 8.62378C109.455 8.73364 109.342 9.13378 109.43 9.44783C109.518 9.76188 109.749 10.0114 109.96 10.2595C112.35 13.0648 112.905 17.3083 111.318 20.6374C110.896 21.5229 110.334 22.3563 110.106 23.3109C109.941 24.0055 109.95 24.7673 109.566 25.3687C109.175 25.9808 108.4 26.391 108.323 27.1141C108.274 27.578 108.556 28.0287 108.934 28.3008C109.312 28.5728 109.773 28.6973 110.227 28.7987C111.407 29.0625 112.614 29.2065 113.823 29.2278C114.217 29.2348 114.623 29.2262 114.985 29.0687C115.346 28.9112 115.655 28.5696 115.659 28.1742C115.662 27.8635 115.484 27.5768 115.461 27.2669C115.393 26.3383 116.638 25.8443 116.881 24.9455C117.04 24.3547 116.726 23.7466 116.391 23.2349C116.056 22.7231 115.674 22.1857 115.682 21.5736C115.69 20.9876 116.057 20.4716 116.199 19.9032C116.396 19.1171 116.154 18.2948 115.914 17.5208C115.71 16.8627 115.506 16.2047 115.302 15.5467C115.085 14.8472 114.868 14.1476 114.651 13.4481C114.272 12.2269 113.874 10.9703 113.054 9.99083C112.234 9.01136 110.876 8.36939 109.665 8.76929" fill="#2E2E41"/>
<path d="M114.033 32.9904L113.603 32.8648C114.498 29.786 112.568 24.0407 112.549 23.983L112.972 23.8381C113.054 24.0792 114.967 29.7768 114.033 32.9904Z" fill="#3F3C57"/>
<path d="M113.818 36.5267C114.85 36.5267 115.687 35.6871 115.687 34.6514C115.687 33.6157 114.85 32.7761 113.818 32.7761C112.785 32.7761 111.948 33.6157 111.948 34.6514C111.948 35.6871 112.785 36.5267 113.818 36.5267Z" fill="#3F3C57"/>
<path d="M101.535 41.2904H100.401C100.277 41.2904 100.177 41.1899 100.177 41.066C100.177 40.942 100.277 40.8415 100.401 40.8415H101.535C101.847 40.8415 102.141 40.7194 102.361 40.4975C102.582 40.2758 102.703 39.9811 102.702 39.6678L102.689 32.6627C102.689 31.141 101.455 29.9033 99.9383 29.9033C98.4218 29.9033 97.1878 31.141 97.1878 32.6623L97.2015 39.2191C97.2028 39.8587 97.7227 40.3831 98.3604 40.388L99.1385 40.394C99.262 40.3949 99.3614 40.4961 99.3606 40.6202C99.3597 40.7435 99.2596 40.8429 99.1368 40.8429H99.135L98.3569 40.837C97.4749 40.8302 96.7558 40.1047 96.754 39.22L96.7402 32.6627C96.7402 30.8935 98.1748 29.4543 99.9383 29.4543C101.702 29.4543 103.136 30.8935 103.136 32.6623L103.15 39.6669C103.151 40.1003 102.983 40.5079 102.678 40.8146C102.373 41.1214 101.967 41.2904 101.535 41.2904Z" fill="#3F3C57"/>
<path d="M99.1369 41.414C99.5749 41.414 99.93 41.0578 99.93 40.6184C99.93 40.179 99.5749 39.8228 99.1369 39.8228C98.6988 39.8228 98.3438 40.179 98.3438 40.6184C98.3438 41.0578 98.6988 41.414 99.1369 41.414Z" fill="#3F3C57"/>
<path d="M100.401 41.8617C100.839 41.8617 101.194 41.5055 101.194 41.0661C101.194 40.6267 100.839 40.2705 100.401 40.2705C99.9625 40.2705 99.6074 40.6267 99.6074 41.0661C99.6074 41.5055 99.9625 41.8617 100.401 41.8617Z" fill="#3F3C57"/>
<path d="M54.6156 29.6256L54.186 29.5C55.0811 26.4213 53.1728 20.587 53.1533 20.5293L53.6903 20.9354C53.7723 21.1764 55.55 26.4121 54.6156 29.6256Z" fill="#3F3C57"/>
<path d="M39.5131 30.1726L39.9427 30.047C39.0476 26.9683 40.9776 21.2229 40.9971 21.1653L40.5375 21.4741C40.4556 21.7151 38.5787 26.9591 39.5131 30.1726Z" fill="#3F3C57"/>
<path d="M54.4006 33.1619C55.4331 33.1619 56.27 32.3223 56.27 31.2867C56.27 30.251 55.4331 29.4114 54.4006 29.4114C53.3682 29.4114 52.5312 30.251 52.5312 31.2867C52.5312 32.3223 53.3682 33.1619 54.4006 33.1619Z" fill="#3F3C57"/>
<path d="M41.5063 41.7047H40.3726C40.2489 41.7047 40.1489 41.6042 40.1489 41.4803C40.1489 41.3563 40.2489 41.2558 40.3726 41.2558H41.5063C41.8188 41.2558 42.1123 41.1337 42.333 40.9118C42.5535 40.6901 42.6748 40.3954 42.6741 40.0821L42.6604 33.0771C42.6604 31.5553 41.4266 30.3176 39.91 30.3176C38.3935 30.3176 37.1595 31.5553 37.1595 33.0766L37.1732 39.6334C37.1745 40.2731 37.6944 40.7974 38.332 40.8023L39.1102 40.8083C39.2337 40.8092 39.3331 40.9104 39.3322 41.0345C39.3314 41.1578 39.2313 41.2572 39.1085 41.2572H39.1067L38.3286 41.2513C37.4466 41.2445 36.7274 40.519 36.7257 39.6343L36.7119 33.0771C36.7119 31.3078 38.1465 29.8687 39.91 29.8687C41.6733 29.8687 43.1079 31.3078 43.1079 33.0766L43.1217 40.0812C43.1225 40.5146 42.9549 40.9223 42.6496 41.2289C42.3446 41.5357 41.9384 41.7047 41.5063 41.7047Z" fill="#3F3C57"/>
<path d="M39.1085 41.8285C39.5466 41.8285 39.9017 41.4723 39.9017 41.0329C39.9017 40.5935 39.5466 40.2373 39.1085 40.2373C38.6705 40.2373 38.3154 40.5935 38.3154 41.0329C38.3154 41.4723 38.6705 41.8285 39.1085 41.8285Z" fill="#3F3C57"/>
<path d="M40.3722 42.276C40.8102 42.276 41.1653 41.9198 41.1653 41.4804C41.1653 41.041 40.8102 40.6848 40.3722 40.6848C39.9342 40.6848 39.5791 41.041 39.5791 41.4804C39.5791 41.9198 39.9342 42.276 40.3722 42.276Z" fill="#3F3C57"/>
</svg>
